<?xml version="1.0" standalone="no"?>
<!DOCTYPE svg PUBLIC "-//W3C//DTD SVG 20010904//EN"
 "http://www.w3.org/TR/2001/REC-SVG-20010904/DTD/svg10.dtd">
<svg version="1.0" xmlns="http://www.w3.org/2000/svg"
 width="700.000000pt" height="700.000000pt" viewBox="0 0 700.000000 700.000000"
 preserveAspectRatio="xMidYMid meet">
<metadata>
Created by potrace 1.11, written by Peter Selinger 2001-2013
</metadata>
<g transform="translate(0.000000,700.000000) scale(0.100000,-0.100000)"
fill="#000000" stroke="none">
<path d="M1773 6986 c-138 -45 -229 -176 -221 -316 3 -59 12 -84 90 -240 138
-280 221 -495 299 -780 7 -25 14 -49 15 -55 2 -8 20 -78 50 -195 9 -36 75
-358 80 -390 2 -19 9 -57 14 -85 5 -27 11 -66 14 -85 17 -121 36 -273 41 -320
3 -30 8 -66 10 -80 2 -14 7 -65 10 -115 3 -49 8 -106 10 -125 27 -239 27
-1112 0 -1400 -2 -19 -6 -73 -9 -120 -4 -47 -8 -96 -11 -110 -2 -14 -7 -52
-10 -85 -12 -125 -57 -428 -85 -580 -11 -55 -21 -111 -24 -125 -5 -26 -23
-107 -57 -247 -82 -344 -201 -673 -350 -971 -85 -169 -87 -174 -87 -244 1
-275 313 -415 524 -234 69 59 99 133 109 273 3 38 7 86 10 108 2 22 7 67 10
100 33 310 100 701 161 935 13 52 26 105 28 116 17 88 144 464 197 581 10 24
19 45 19 48 0 3 27 60 59 125 281 565 606 816 955 736 410 -95 788 -696 1010
-1606 19 -80 37 -156 40 -170 2 -14 14 -70 25 -125 40 -200 82 -485 96 -645 3
-25 7 -63 9 -85 3 -22 8 -74 11 -115 13 -148 40 -217 111 -280 60 -53 118 -73
209 -74 100 -1 160 24 226 94 63 67 93 147 87 235 -3 58 -13 82 -75 204 -92
178 -168 359 -237 563 -60 179 -140 467 -160 578 -2 14 -14 68 -25 120 -11 52
-23 109 -25 125 -3 17 -14 84 -25 150 -11 66 -23 138 -26 160 -2 21 -9 73 -15
115 -5 41 -12 102 -15 135 -3 33 -8 71 -10 85 -2 14 -7 63 -10 110 -4 47 -8
101 -10 120 -20 183 -28 995 -12 1235 11 163 23 309 32 385 3 25 7 70 10 100
3 30 7 71 10 90 8 59 17 124 20 145 9 66 18 130 31 200 7 44 16 96 19 115 25
147 103 483 141 601 8 25 16 56 19 68 8 41 96 295 141 406 25 61 84 187 131
282 74 149 86 180 90 237 7 87 -22 168 -86 236 -112 119 -298 130 -427 25 -76
-62 -106 -133 -119 -276 -13 -150 -16 -176 -20 -219 -3 -25 -10 -79 -15 -120
-5 -41 -12 -95 -15 -120 -7 -58 -14 -110 -20 -140 -3 -14 -10 -56 -16 -95 -19
-125 -79 -395 -125 -569 -80 -299 -171 -549 -281 -771 -57 -116 -62 -126 -105
-192 -16 -23 -28 -44 -28 -48 0 -12 -139 -190 -192 -246 -310 -330 -680 -332
-992 -5 -91 95 -151 178 -263 361 -25 42 -113 225 -152 318 -50 116 -131 343
-131 364 0 8 -6 29 -14 46 -37 84 -162 623 -180 773 -2 22 -9 67 -15 100 -6
32 -13 79 -16 104 -3 25 -9 79 -15 120 -5 41 -12 100 -15 130 -3 30 -7 75 -10
100 -3 25 -7 70 -10 100 -13 139 -33 195 -89 257 -73 82 -221 122 -323 89z"/>
</g>
</svg>
