<?xml version="1.0" standalone="no"?>
<!DOCTYPE svg PUBLIC "-//W3C//DTD SVG 20010904//EN"
 "http://www.w3.org/TR/2001/REC-SVG-20010904/DTD/svg10.dtd">
<svg version="1.0" xmlns="http://www.w3.org/2000/svg"
 width="920.000000pt" height="920.000000pt" viewBox="0 0 920.000000 920.000000"
 preserveAspectRatio="xMidYMid meet">
<metadata>
Created by potrace 1.11, written by Peter Selinger 2001-2013
</metadata>
<g transform="translate(0.000000,920.000000) scale(0.100000,-0.100000)"
fill="#000000" stroke="none">
<path d="M5255 9131 c-22 -11 -52 -30 -67 -43 -45 -39 -185 -242 -270 -391
-168 -293 -255 -366 -361 -304 -55 33 -81 62 -163 182 -37 55 -82 120 -100
145 -18 25 -54 76 -80 113 -54 78 -112 129 -167 147 -36 11 -139 15 -182 6
-20 -4 -93 -12 -195 -21 -167 -15 -292 -89 -340 -199 -26 -63 -29 -84 -36
-306 -4 -113 -8 -223 -9 -245 -2 -22 -4 -59 -4 -82 l-1 -43 -42 0 c-27 0 -49
7 -62 19 -28 26 -280 179 -336 204 -62 27 -187 29 -255 3 -159 -61 -274 -238
-280 -434 -4 -97 -16 -131 -55 -152 -11 -6 -66 -25 -123 -41 -194 -58 -377
-160 -484 -270 -103 -107 -149 -187 -212 -371 -58 -170 -86 -220 -141 -248
-46 -23 -81 -27 -170 -15 -95 12 -111 11 -310 -11 -164 -18 -226 -40 -284
-100 -55 -57 -75 -121 -71 -234 5 -169 58 -301 164 -409 62 -64 121 -167 121
-213 0 -17 -45 -97 -117 -206 -60 -91 -83 -155 -132 -369 -27 -114 -60 -246
-75 -293 -36 -116 -118 -280 -181 -365 -73 -99 -97 -139 -131 -220 -26 -62
-29 -81 -29 -175 1 -100 2 -108 35 -170 66 -123 214 -240 380 -299 19 -7 44
-17 55 -21 11 -5 73 -26 138 -46 125 -40 167 -68 167 -110 0 -13 -15 -54 -34
-91 -45 -90 -58 -135 -59 -197 -2 -138 49 -209 265 -372 63 -48 105 -99 122
-148 7 -20 11 -79 10 -138 -6 -332 -4 -436 10 -498 8 -36 19 -89 26 -118 6
-29 23 -66 36 -82 23 -27 30 -29 87 -28 81 1 168 -18 239 -52 113 -55 188
-127 377 -365 161 -202 205 -246 291 -288 85 -42 178 -48 301 -18 198 48 266
16 313 -150 16 -58 53 -104 96 -121 14 -6 50 -10 80 -9 60 1 63 1 130 21 25 7
54 12 66 11 12 -1 40 14 63 33 50 42 57 43 67 14 13 -38 16 -83 29 -383 14
-343 130 -527 322 -513 33 2 80 14 108 28 69 33 178 145 259 266 37 56 85 121
106 145 22 24 40 48 40 53 0 13 127 135 164 157 85 52 174 4 300 -161 68 -89
179 -181 256 -212 30 -12 78 -34 105 -49 71 -39 167 -69 200 -63 70 13 120 59
165 156 34 72 22 65 143 84 15 2 39 6 55 9 15 2 45 7 67 9 22 3 51 8 65 11 14
3 48 8 75 11 28 3 64 7 80 9 53 8 229 6 270 -2 22 -4 76 -8 120 -8 170 1 247
77 359 356 34 83 75 127 164 174 84 44 124 86 217 224 80 121 137 181 197 212
75 38 137 114 211 258 38 73 72 138 77 145 5 6 33 38 61 71 29 33 65 89 82
125 39 86 47 221 22 395 -20 139 -25 204 -26 335 -2 141 19 226 76 315 58 91
40 86 332 91 142 3 286 10 320 16 225 38 507 310 668 643 94 193 112 376 62
605 -23 103 -114 284 -201 400 -96 127 -214 245 -366 363 -50 39 -122 87 -130
87 -6 0 -10 4 -10 8 0 8 -74 44 -240 118 -36 16 -84 48 -107 71 -50 50 -61 91
-54 193 1 14 24 44 119 159 21 24 42 61 49 82 18 61 10 166 -19 229 -55 118
-66 147 -78 190 -26 98 -19 150 42 290 58 133 78 218 77 320 -2 136 -41 217
-139 291 -81 61 -186 89 -348 94 -73 3 -141 9 -151 15 -18 9 -41 82 -41 129 0
35 -30 118 -59 162 -16 24 -51 58 -78 74 -230 143 -321 225 -402 363 -49 84
-75 168 -86 282 -5 53 -13 118 -21 170 -21 143 -96 244 -228 309 -97 48 -157
60 -286 57 -123 -3 -191 -17 -400 -83 -63 -20 -119 -38 -125 -39 -5 -2 -23 -7
-40 -12 -41 -12 -96 -7 -133 12 -42 22 -75 67 -113 156 -76 180 -154 233 -264
181z"/>
</g>
</svg>
