<?xml version="1.0" encoding="utf-8"?>
<!-- Generator: Adobe Illustrator 20.0.0, SVG Export Plug-In . SVG Version: 6.00 Build 0)  -->
<svg version="1.1" id="Layer_1" xmlns="http://www.w3.org/2000/svg" xmlns:xlink="http://www.w3.org/1999/xlink" x="0px" y="0px"
	 width="124.4px" height="100px" viewBox="0 0 124.4 100" enable-background="new 0 0 124.4 100" xml:space="preserve">
<g>
	<path fill="#FF6633" d="M35.1,63.8c-0.7-0.8-1.4-1.7-2.2-2.4c-1.7-1.4-4.7-1.5-6.3-0.1c-1.4,1.2-2.5,2.7-3.7,4.1
		c-0.5,0.6-1,1.1-1.5,1.8c-0.4-2.4,4.7-7.4,7.8-7.7c-2-0.3-2.1-0.3-2.4-1.6c1.7,0.7,3.4,1.3,5,2c0.7,0.3,1.3,0.8,1.9,1.2
		C34.4,61.6,35.1,62.9,35.1,63.8z"/>
	<path fill="#FF6633" d="M32.9,31c-0.6,0.4-1.2,1-1.9,1.2c-0.5,0.2-1.1,0.2-1.7,0c-0.2,0-0.5-0.9-0.3-1c1-0.9,0.1-1.3-0.5-1.8
		c-0.1-0.1-0.2-0.2-0.4-0.3c0.8-0.1,0.8-0.1,3.3,1.8c2.3-1.5,4.6-2.8,6.9-4.3c0.5-0.4,0.8-1.1,1.3-1.6c0.4-0.4,0.9-0.6,1.4-0.8
		c0.2,0,0.7,0.3,0.8,0.6c0.1,0.2-0.2,0.7-0.4,0.8c-0.8,0.5-1.8,0.9-2.6,1.5C36.7,28.5,34.8,29.8,32.9,31z"/>
	<path fill="#FF6633" d="M41.7,44.3c1.6-0.4,3.4-0.5,5.1-0.7c0.3,0,0.6,0,0.9,0c0,0.1,0,0.2,0,0.3c-0.9,0.1-1.8,0.2-2.6,0.4
		c-2.3,0.5-4.5,1.1-6.8,1.7c-2.6,0.8-5.1,1.6-7.7,2.4c-0.8,0.2-2.8-0.5-3.1-1.2c-0.4-1-1.1-1.5-1.9-2c-0.1-0.1-0.1-0.2-0.2-0.3
		c0-0.1,0.1-0.1,0.1-0.2c1.4,0.9,2.9,1.8,4.3,2.7c0.1-0.1,0.1-0.1,0.2-0.2c-0.2-0.4-0.5-0.7-0.7-1.1c0-0.1,0.1-0.1,0.1-0.2
		c0.6,0.3,1.1,0.7,1.7,0.9c0.5,0.2,1.2,0.3,1.7,0.2C35.8,46.2,38.7,45.1,41.7,44.3z"/>
	<path fill="#FF6633" d="M94.8,30.5c0.4-0.4,0.9-0.8,1.5-1.4c-1.6,0.1-2.4,1.2-3.3,2c-1.7-1.1-3.3-2.2-5-3.2
		c-1.2-0.7-2.4-1.4-3.1-2.7c-0.2-0.4-0.9-0.7-1.4-0.9c-0.2-0.1-0.7,0.3-0.8,0.6c-0.1,0.2,0.2,0.7,0.4,0.8c0.4,0.3,1,0.6,1.4,0.8
		c2.3,1.3,4.7,2.4,6.7,4.2c0.7,0.7,1.5,1.2,2.4,1.6c0.5,0.2,1.2-0.2,1.8-0.3c-0.1-0.4-0.3-0.8-0.4-1.2
		C94.9,30.8,94.9,30.7,94.8,30.5z M98.9,44.7c-1.5,0.9-2.9,1.8-4.4,2.7c0-0.1-0.1-0.2-0.1-0.2c0.2-0.3,0.5-0.7,0.7-1
		c-0.1-0.1-0.1-0.1-0.2-0.2c-0.6,0.3-1.2,0.7-1.9,1c-0.3,0.1-0.6,0.3-0.8,0.2c-1.9-0.5-4-0.9-5.8-1.7c-2.9-1.3-5.9-1.8-9-2
		c-0.3,0-0.6,0.1-0.9,0.1c0.5,0.3,1.1,0.3,1.6,0.5c2.3,0.5,4.7,1,7,1.6c2.9,0.8,5.6,1.8,8.5,2.7c0.4,0.1,1,0.1,1.4,0
		c0.9-0.4,1.9-0.7,2.2-1.9c0.1-0.4,0.7-0.7,1.1-1c0.2-0.2,0.5-0.3,0.7-0.5C99,44.9,98.9,44.8,98.9,44.7z M100.1,62.4
		c-1.3-1.4-2.6-2.8-4.7-2.9c1-0.1,2,0,2.2-1.5c-1,0.3-1.9,0.6-2.7,0.9c-1,0.4-1.9,0.9-2.8,1.4c-0.4,0.2-0.8,0.5-1.3,0.7
		c-0.9,0.5-1.7,1.9-1.6,3.1c0.2-0.3,0.3-0.5,0.4-0.7c2-3,3.4-3.5,6.7-2.8c1.9,0.4,3,1.9,4.1,3.4c0.8,1.1,1.6,2.1,2.4,3.2
		c0.1-0.1,0.2-0.2,0.4-0.3C102.7,65,101.3,63.7,100.1,62.4z M100.1,62.4c-1.3-1.4-2.6-2.8-4.7-2.9c1-0.1,2,0,2.2-1.5
		c-1,0.3-1.9,0.6-2.7,0.9c-1,0.4-1.9,0.9-2.8,1.4c-0.4,0.2-0.8,0.5-1.3,0.7c-0.9,0.5-1.7,1.9-1.6,3.1c0.2-0.3,0.3-0.5,0.4-0.7
		c2-3,3.4-3.5,6.7-2.8c1.9,0.4,3,1.9,4.1,3.4c0.8,1.1,1.6,2.1,2.4,3.2c0.1-0.1,0.2-0.2,0.4-0.3C102.7,65,101.3,63.7,100.1,62.4z
		 M98.9,44.7c-1.5,0.9-2.9,1.8-4.4,2.7c0-0.1-0.1-0.2-0.1-0.2c0.2-0.3,0.5-0.7,0.7-1c-0.1-0.1-0.1-0.1-0.2-0.2
		c-0.6,0.3-1.2,0.7-1.9,1c-0.3,0.1-0.6,0.3-0.8,0.2c-1.9-0.5-4-0.9-5.8-1.7c-2.9-1.3-5.9-1.8-9-2c-0.3,0-0.6,0.1-0.9,0.1
		c0.5,0.3,1.1,0.3,1.6,0.5c2.3,0.5,4.7,1,7,1.6c2.9,0.8,5.6,1.8,8.5,2.7c0.4,0.1,1,0.1,1.4,0c0.9-0.4,1.9-0.7,2.2-1.9
		c0.1-0.4,0.7-0.7,1.1-1c0.2-0.2,0.5-0.3,0.7-0.5C99,44.9,98.9,44.8,98.9,44.7z M94.8,30.5c0.4-0.4,0.9-0.8,1.5-1.4
		c-1.6,0.1-2.4,1.2-3.3,2c-1.7-1.1-3.3-2.2-5-3.2c-1.2-0.7-2.4-1.4-3.1-2.7c-0.2-0.4-0.9-0.7-1.4-0.9c-0.2-0.1-0.7,0.3-0.8,0.6
		c-0.1,0.2,0.2,0.7,0.4,0.8c0.4,0.3,1,0.6,1.4,0.8c2.3,1.3,4.7,2.4,6.7,4.2c0.7,0.7,1.5,1.2,2.4,1.6c0.5,0.2,1.2-0.2,1.8-0.3
		c-0.1-0.4-0.3-0.8-0.4-1.2C94.9,30.8,94.9,30.7,94.8,30.5z M94.8,30.5c0.4-0.4,0.9-0.8,1.5-1.4c-1.6,0.1-2.4,1.2-3.3,2
		c-1.7-1.1-3.3-2.2-5-3.2c-1.2-0.7-2.4-1.4-3.1-2.7c-0.2-0.4-0.9-0.7-1.4-0.9c-0.2-0.1-0.7,0.3-0.8,0.6c-0.1,0.2,0.2,0.7,0.4,0.8
		c0.4,0.3,1,0.6,1.4,0.8c2.3,1.3,4.7,2.4,6.7,4.2c0.7,0.7,1.5,1.2,2.4,1.6c0.5,0.2,1.2-0.2,1.8-0.3c-0.1-0.4-0.3-0.8-0.4-1.2
		C94.9,30.8,94.9,30.7,94.8,30.5z M98.9,44.7c-1.5,0.9-2.9,1.8-4.4,2.7c0-0.1-0.1-0.2-0.1-0.2c0.2-0.3,0.5-0.7,0.7-1
		c-0.1-0.1-0.1-0.1-0.2-0.2c-0.6,0.3-1.2,0.7-1.9,1c-0.3,0.1-0.6,0.3-0.8,0.2c-1.9-0.5-4-0.9-5.8-1.7c-2.9-1.3-5.9-1.8-9-2
		c-0.3,0-0.6,0.1-0.9,0.1c0.5,0.3,1.1,0.3,1.6,0.5c2.3,0.5,4.7,1,7,1.6c2.9,0.8,5.6,1.8,8.5,2.7c0.4,0.1,1,0.1,1.4,0
		c0.9-0.4,1.9-0.7,2.2-1.9c0.1-0.4,0.7-0.7,1.1-1c0.2-0.2,0.5-0.3,0.7-0.5C99,44.9,98.9,44.8,98.9,44.7z M100.1,62.4
		c-1.3-1.4-2.6-2.8-4.7-2.9c1-0.1,2,0,2.2-1.5c-1,0.3-1.9,0.6-2.7,0.9c-1,0.4-1.9,0.9-2.8,1.4c-0.4,0.2-0.8,0.5-1.3,0.7
		c-0.9,0.5-1.7,1.9-1.6,3.1c0.2-0.3,0.3-0.5,0.4-0.7c2-3,3.4-3.5,6.7-2.8c1.9,0.4,3,1.9,4.1,3.4c0.8,1.1,1.6,2.1,2.4,3.2
		c0.1-0.1,0.2-0.2,0.4-0.3C102.7,65,101.3,63.7,100.1,62.4z M100.1,62.4c-1.3-1.4-2.6-2.8-4.7-2.9c1-0.1,2,0,2.2-1.5
		c-1,0.3-1.9,0.6-2.7,0.9c-1,0.4-1.9,0.9-2.8,1.4c-0.4,0.2-0.8,0.5-1.3,0.7c-0.9,0.5-1.7,1.9-1.6,3.1c0.2-0.3,0.3-0.5,0.4-0.7
		c2-3,3.4-3.5,6.7-2.8c1.9,0.4,3,1.9,4.1,3.4c0.8,1.1,1.6,2.1,2.4,3.2c0.1-0.1,0.2-0.2,0.4-0.3C102.7,65,101.3,63.7,100.1,62.4z
		 M98.9,44.7c-1.5,0.9-2.9,1.8-4.4,2.7c0-0.1-0.1-0.2-0.1-0.2c0.2-0.3,0.5-0.7,0.7-1c-0.1-0.1-0.1-0.1-0.2-0.2
		c-0.6,0.3-1.2,0.7-1.9,1c-0.3,0.1-0.6,0.3-0.8,0.2c-1.9-0.5-4-0.9-5.8-1.7c-2.9-1.3-5.9-1.8-9-2c-0.3,0-0.6,0.1-0.9,0.1
		c0.5,0.3,1.1,0.3,1.6,0.5c2.3,0.5,4.7,1,7,1.6c2.9,0.8,5.6,1.8,8.5,2.7c0.4,0.1,1,0.1,1.4,0c0.9-0.4,1.9-0.7,2.2-1.9
		c0.1-0.4,0.7-0.7,1.1-1c0.2-0.2,0.5-0.3,0.7-0.5C99,44.9,98.9,44.8,98.9,44.7z M94.8,30.5c0.4-0.4,0.9-0.8,1.5-1.4
		c-1.6,0.1-2.4,1.2-3.3,2c-1.7-1.1-3.3-2.2-5-3.2c-1.2-0.7-2.4-1.4-3.1-2.7c-0.2-0.4-0.9-0.7-1.4-0.9c-0.2-0.1-0.7,0.3-0.8,0.6
		c-0.1,0.2,0.2,0.7,0.4,0.8c0.4,0.3,1,0.6,1.4,0.8c2.3,1.3,4.7,2.4,6.7,4.2c0.7,0.7,1.5,1.2,2.4,1.6c0.5,0.2,1.2-0.2,1.8-0.3
		c-0.1-0.4-0.3-0.8-0.4-1.2C94.9,30.8,94.9,30.7,94.8,30.5z M24.4,89.3c-0.6-0.2-1.3-0.3-1.9-0.5c-1.9-0.5-3.5,0-5,1.1
		c-0.2,0.2-0.3,0.8-0.3,1.1c0,0.2,0.7,0.3,1,0.3c0.4-0.1,0.8-0.4,1.1-0.5c0.6-0.3,1.3-0.7,2-0.9c1-0.2,2.1-0.3,3.1-0.4
		C24.4,89.4,24.4,89.4,24.4,89.3z M94.8,30.5c0.4-0.4,0.9-0.8,1.5-1.4c-1.6,0.1-2.4,1.2-3.3,2c-1.7-1.1-3.3-2.2-5-3.2
		c-1.2-0.7-2.4-1.4-3.1-2.7c-0.2-0.4-0.9-0.7-1.4-0.9c-0.2-0.1-0.7,0.3-0.8,0.6c-0.1,0.2,0.2,0.7,0.4,0.8c0.4,0.3,1,0.6,1.4,0.8
		c2.3,1.3,4.7,2.4,6.7,4.2c0.7,0.7,1.5,1.2,2.4,1.6c0.5,0.2,1.2-0.2,1.8-0.3c-0.1-0.4-0.3-0.8-0.4-1.2
		C94.9,30.8,94.9,30.7,94.8,30.5z M98.9,44.7c-1.5,0.9-2.9,1.8-4.4,2.7c0-0.1-0.1-0.2-0.1-0.2c0.2-0.3,0.5-0.7,0.7-1
		c-0.1-0.1-0.1-0.1-0.2-0.2c-0.6,0.3-1.2,0.7-1.9,1c-0.3,0.1-0.6,0.3-0.8,0.2c-1.9-0.5-4-0.9-5.8-1.7c-2.9-1.3-5.9-1.8-9-2
		c-0.3,0-0.6,0.1-0.9,0.1c0.5,0.3,1.1,0.3,1.6,0.5c2.3,0.5,4.7,1,7,1.6c2.9,0.8,5.6,1.8,8.5,2.7c0.4,0.1,1,0.1,1.4,0
		c0.9-0.4,1.9-0.7,2.2-1.9c0.1-0.4,0.7-0.7,1.1-1c0.2-0.2,0.5-0.3,0.7-0.5C99,44.9,98.9,44.8,98.9,44.7z M100.1,62.4
		c-1.3-1.4-2.6-2.8-4.7-2.9c1-0.1,2,0,2.2-1.5c-1,0.3-1.9,0.6-2.7,0.9c-1,0.4-1.9,0.9-2.8,1.4c-0.4,0.2-0.8,0.5-1.3,0.7
		c-0.9,0.5-1.7,1.9-1.6,3.1c0.2-0.3,0.3-0.5,0.4-0.7c2-3,3.4-3.5,6.7-2.8c1.9,0.4,3,1.9,4.1,3.4c0.8,1.1,1.6,2.1,2.4,3.2
		c0.1-0.1,0.2-0.2,0.4-0.3C102.7,65,101.3,63.7,100.1,62.4z M106.7,89.8c-2.2-1.6-4.4-1.2-6.7-0.3c0.5,0.1,0.9,0.2,1.4,0.2
		c1.7-0.1,3.1,0.7,4.6,1.5c0.3,0.2,1,0.1,1.2-0.1C107.4,90.6,107.2,90.2,106.7,89.8z M106.7,89.8c-2.2-1.6-4.4-1.2-6.7-0.3
		c0.5,0.1,0.9,0.2,1.4,0.2c1.7-0.1,3.1,0.7,4.6,1.5c0.3,0.2,1,0.1,1.2-0.1C107.4,90.6,107.2,90.2,106.7,89.8z M100.1,62.4
		c-1.3-1.4-2.6-2.8-4.7-2.9c1-0.1,2,0,2.2-1.5c-1,0.3-1.9,0.6-2.7,0.9c-1,0.4-1.9,0.9-2.8,1.4c-0.4,0.2-0.8,0.5-1.3,0.7
		c-0.9,0.5-1.7,1.9-1.6,3.1c0.2-0.3,0.3-0.5,0.4-0.7c2-3,3.4-3.5,6.7-2.8c1.9,0.4,3,1.9,4.1,3.4c0.8,1.1,1.6,2.1,2.4,3.2
		c0.1-0.1,0.2-0.2,0.4-0.3C102.7,65,101.3,63.7,100.1,62.4z M98.9,44.7c-1.5,0.9-2.9,1.8-4.4,2.7c0-0.1-0.1-0.2-0.1-0.2
		c0.2-0.3,0.5-0.7,0.7-1c-0.1-0.1-0.1-0.1-0.2-0.2c-0.6,0.3-1.2,0.7-1.9,1c-0.3,0.1-0.6,0.3-0.8,0.2c-1.9-0.5-4-0.9-5.8-1.7
		c-2.9-1.3-5.9-1.8-9-2c-0.3,0-0.6,0.1-0.9,0.1c0.5,0.3,1.1,0.3,1.6,0.5c2.3,0.5,4.7,1,7,1.6c2.9,0.8,5.6,1.8,8.5,2.7
		c0.4,0.1,1,0.1,1.4,0c0.9-0.4,1.9-0.7,2.2-1.9c0.1-0.4,0.7-0.7,1.1-1c0.2-0.2,0.5-0.3,0.7-0.5C99,44.9,98.9,44.8,98.9,44.7z
		 M94.8,30.5c0.4-0.4,0.9-0.8,1.5-1.4c-1.6,0.1-2.4,1.2-3.3,2c-1.7-1.1-3.3-2.2-5-3.2c-1.2-0.7-2.4-1.4-3.1-2.7
		c-0.2-0.4-0.9-0.7-1.4-0.9c-0.2-0.1-0.7,0.3-0.8,0.6c-0.1,0.2,0.2,0.7,0.4,0.8c0.4,0.3,1,0.6,1.4,0.8c2.3,1.3,4.7,2.4,6.7,4.2
		c0.7,0.7,1.5,1.2,2.4,1.6c0.5,0.2,1.2-0.2,1.8-0.3c-0.1-0.4-0.3-0.8-0.4-1.2C94.9,30.8,94.9,30.7,94.8,30.5z M24.4,89.3
		c-0.6-0.2-1.3-0.3-1.9-0.5c-1.9-0.5-3.5,0-5,1.1c-0.2,0.2-0.3,0.8-0.3,1.1c0,0.2,0.7,0.3,1,0.3c0.4-0.1,0.8-0.4,1.1-0.5
		c0.6-0.3,1.3-0.7,2-0.9c1-0.2,2.1-0.3,3.1-0.4C24.4,89.4,24.4,89.4,24.4,89.3z M24.4,89.3c-0.6-0.2-1.3-0.3-1.9-0.5
		c-1.9-0.5-3.5,0-5,1.1c-0.2,0.2-0.3,0.8-0.3,1.1c0,0.2,0.7,0.3,1,0.3c0.4-0.1,0.8-0.4,1.1-0.5c0.6-0.3,1.3-0.7,2-0.9
		c1-0.2,2.1-0.3,3.1-0.4C24.4,89.4,24.4,89.4,24.4,89.3z M94.8,30.5c0.4-0.4,0.9-0.8,1.5-1.4c-1.6,0.1-2.4,1.2-3.3,2
		c-1.7-1.1-3.3-2.2-5-3.2c-1.2-0.7-2.4-1.4-3.1-2.7c-0.2-0.4-0.9-0.7-1.4-0.9c-0.2-0.1-0.7,0.3-0.8,0.6c-0.1,0.2,0.2,0.7,0.4,0.8
		c0.4,0.3,1,0.6,1.4,0.8c2.3,1.3,4.7,2.4,6.7,4.2c0.7,0.7,1.5,1.2,2.4,1.6c0.5,0.2,1.2-0.2,1.8-0.3c-0.1-0.4-0.3-0.8-0.4-1.2
		C94.9,30.8,94.9,30.7,94.8,30.5z M98.9,44.7c-1.5,0.9-2.9,1.8-4.4,2.7c0-0.1-0.1-0.2-0.1-0.2c0.2-0.3,0.5-0.7,0.7-1
		c-0.1-0.1-0.1-0.1-0.2-0.2c-0.6,0.3-1.2,0.7-1.9,1c-0.3,0.1-0.6,0.3-0.8,0.2c-1.9-0.5-4-0.9-5.8-1.7c-2.9-1.3-5.9-1.8-9-2
		c-0.3,0-0.6,0.1-0.9,0.1c0.5,0.3,1.1,0.3,1.6,0.5c2.3,0.5,4.7,1,7,1.6c2.9,0.8,5.6,1.8,8.5,2.7c0.4,0.1,1,0.1,1.4,0
		c0.9-0.4,1.9-0.7,2.2-1.9c0.1-0.4,0.7-0.7,1.1-1c0.2-0.2,0.5-0.3,0.7-0.5C99,44.9,98.9,44.8,98.9,44.7z M100.1,62.4
		c-1.3-1.4-2.6-2.8-4.7-2.9c1-0.1,2,0,2.2-1.5c-1,0.3-1.9,0.6-2.7,0.9c-1,0.4-1.9,0.9-2.8,1.4c-0.4,0.2-0.8,0.5-1.3,0.7
		c-0.9,0.5-1.7,1.9-1.6,3.1c0.2-0.3,0.3-0.5,0.4-0.7c2-3,3.4-3.5,6.7-2.8c1.9,0.4,3,1.9,4.1,3.4c0.8,1.1,1.6,2.1,2.4,3.2
		c0.1-0.1,0.2-0.2,0.4-0.3C102.7,65,101.3,63.7,100.1,62.4z M106.7,89.8c-2.2-1.6-4.4-1.2-6.7-0.3c0.5,0.1,0.9,0.2,1.4,0.2
		c1.7-0.1,3.1,0.7,4.6,1.5c0.3,0.2,1,0.1,1.2-0.1C107.4,90.6,107.2,90.2,106.7,89.8z M106.7,89.8c-2.2-1.6-4.4-1.2-6.7-0.3
		c0.5,0.1,0.9,0.2,1.4,0.2c1.7-0.1,3.1,0.7,4.6,1.5c0.3,0.2,1,0.1,1.2-0.1C107.4,90.6,107.2,90.2,106.7,89.8z M100.1,62.4
		c-1.3-1.4-2.6-2.8-4.7-2.9c1-0.1,2,0,2.2-1.5c-1,0.3-1.9,0.6-2.7,0.9c-1,0.4-1.9,0.9-2.8,1.4c-0.4,0.2-0.8,0.5-1.3,0.7
		c-0.9,0.5-1.7,1.9-1.6,3.1c0.2-0.3,0.3-0.5,0.4-0.7c2-3,3.4-3.5,6.7-2.8c1.9,0.4,3,1.9,4.1,3.4c0.8,1.1,1.6,2.1,2.4,3.2
		c0.1-0.1,0.2-0.2,0.4-0.3C102.7,65,101.3,63.7,100.1,62.4z M98.9,44.7c-1.5,0.9-2.9,1.8-4.4,2.7c0-0.1-0.1-0.2-0.1-0.2
		c0.2-0.3,0.5-0.7,0.7-1c-0.1-0.1-0.1-0.1-0.2-0.2c-0.6,0.3-1.2,0.7-1.9,1c-0.3,0.1-0.6,0.3-0.8,0.2c-1.9-0.5-4-0.9-5.8-1.7
		c-2.9-1.3-5.9-1.8-9-2c-0.3,0-0.6,0.1-0.9,0.1c0.5,0.3,1.1,0.3,1.6,0.5c2.3,0.5,4.7,1,7,1.6c2.9,0.8,5.6,1.8,8.5,2.7
		c0.4,0.1,1,0.1,1.4,0c0.9-0.4,1.9-0.7,2.2-1.9c0.1-0.4,0.7-0.7,1.1-1c0.2-0.2,0.5-0.3,0.7-0.5C99,44.9,98.9,44.8,98.9,44.7z
		 M94.8,30.5c0.4-0.4,0.9-0.8,1.5-1.4c-1.6,0.1-2.4,1.2-3.3,2c-1.7-1.1-3.3-2.2-5-3.2c-1.2-0.7-2.4-1.4-3.1-2.7
		c-0.2-0.4-0.9-0.7-1.4-0.9c-0.2-0.1-0.7,0.3-0.8,0.6c-0.1,0.2,0.2,0.7,0.4,0.8c0.4,0.3,1,0.6,1.4,0.8c2.3,1.3,4.7,2.4,6.7,4.2
		c0.7,0.7,1.5,1.2,2.4,1.6c0.5,0.2,1.2-0.2,1.8-0.3c-0.1-0.4-0.3-0.8-0.4-1.2C94.9,30.8,94.9,30.7,94.8,30.5z M24.4,89.3
		c-0.6-0.2-1.3-0.3-1.9-0.5c-1.9-0.5-3.5,0-5,1.1c-0.2,0.2-0.3,0.8-0.3,1.1c0,0.2,0.7,0.3,1,0.3c0.4-0.1,0.8-0.4,1.1-0.5
		c0.6-0.3,1.3-0.7,2-0.9c1-0.2,2.1-0.3,3.1-0.4C24.4,89.4,24.4,89.4,24.4,89.3z M24.4,89.3c-0.6-0.2-1.3-0.3-1.9-0.5
		c-1.9-0.5-3.5,0-5,1.1c-0.2,0.2-0.3,0.8-0.3,1.1c0,0.2,0.7,0.3,1,0.3c0.4-0.1,0.8-0.4,1.1-0.5c0.6-0.3,1.3-0.7,2-0.9
		c1-0.2,2.1-0.3,3.1-0.4C24.4,89.4,24.4,89.4,24.4,89.3z M94.8,30.5c0.4-0.4,0.9-0.8,1.5-1.4c-1.6,0.1-2.4,1.2-3.3,2
		c-1.7-1.1-3.3-2.2-5-3.2c-1.2-0.7-2.4-1.4-3.1-2.7c-0.2-0.4-0.9-0.7-1.4-0.9c-0.2-0.1-0.7,0.3-0.8,0.6c-0.1,0.2,0.2,0.7,0.4,0.8
		c0.4,0.3,1,0.6,1.4,0.8c2.3,1.3,4.7,2.4,6.7,4.2c0.7,0.7,1.5,1.2,2.4,1.6c0.5,0.2,1.2-0.2,1.8-0.3c-0.1-0.4-0.3-0.8-0.4-1.2
		C94.9,30.8,94.9,30.7,94.8,30.5z M98.9,44.7c-1.5,0.9-2.9,1.8-4.4,2.7c0-0.1-0.1-0.2-0.1-0.2c0.2-0.3,0.5-0.7,0.7-1
		c-0.1-0.1-0.1-0.1-0.2-0.2c-0.6,0.3-1.2,0.7-1.9,1c-0.3,0.1-0.6,0.3-0.8,0.2c-1.9-0.5-4-0.9-5.8-1.7c-2.9-1.3-5.9-1.8-9-2
		c-0.3,0-0.6,0.1-0.9,0.1c0.5,0.3,1.1,0.3,1.6,0.5c2.3,0.5,4.7,1,7,1.6c2.9,0.8,5.6,1.8,8.5,2.7c0.4,0.1,1,0.1,1.4,0
		c0.9-0.4,1.9-0.7,2.2-1.9c0.1-0.4,0.7-0.7,1.1-1c0.2-0.2,0.5-0.3,0.7-0.5C99,44.9,98.9,44.8,98.9,44.7z M100.1,62.4
		c-1.3-1.4-2.6-2.8-4.7-2.9c1-0.1,2,0,2.2-1.5c-1,0.3-1.9,0.6-2.7,0.9c-1,0.4-1.9,0.9-2.8,1.4c-0.4,0.2-0.8,0.5-1.3,0.7
		c-0.9,0.5-1.7,1.9-1.6,3.1c0.2-0.3,0.3-0.5,0.4-0.7c2-3,3.4-3.5,6.7-2.8c1.9,0.4,3,1.9,4.1,3.4c0.8,1.1,1.6,2.1,2.4,3.2
		c0.1-0.1,0.2-0.2,0.4-0.3C102.7,65,101.3,63.7,100.1,62.4z M106.7,89.8c-2.2-1.6-4.4-1.2-6.7-0.3c0.5,0.1,0.9,0.2,1.4,0.2
		c1.7-0.1,3.1,0.7,4.6,1.5c0.3,0.2,1,0.1,1.2-0.1C107.4,90.6,107.2,90.2,106.7,89.8z M106.7,89.8c-2.2-1.6-4.4-1.2-6.7-0.3
		c0.5,0.1,0.9,0.2,1.4,0.2c1.7-0.1,3.1,0.7,4.6,1.5c0.3,0.2,1,0.1,1.2-0.1C107.4,90.6,107.2,90.2,106.7,89.8z M100.1,62.4
		c-1.3-1.4-2.6-2.8-4.7-2.9c1-0.1,2,0,2.2-1.5c-1,0.3-1.9,0.6-2.7,0.9c-1,0.4-1.9,0.9-2.8,1.4c-0.4,0.2-0.8,0.5-1.3,0.7
		c-0.9,0.5-1.7,1.9-1.6,3.1c0.2-0.3,0.3-0.5,0.4-0.7c2-3,3.4-3.5,6.7-2.8c1.9,0.4,3,1.9,4.1,3.4c0.8,1.1,1.6,2.1,2.4,3.2
		c0.1-0.1,0.2-0.2,0.4-0.3C102.7,65,101.3,63.7,100.1,62.4z M98.9,44.7c-1.5,0.9-2.9,1.8-4.4,2.7c0-0.1-0.1-0.2-0.1-0.2
		c0.2-0.3,0.5-0.7,0.7-1c-0.1-0.1-0.1-0.1-0.2-0.2c-0.6,0.3-1.2,0.7-1.9,1c-0.3,0.1-0.6,0.3-0.8,0.2c-1.9-0.5-4-0.9-5.8-1.7
		c-2.9-1.3-5.9-1.8-9-2c-0.3,0-0.6,0.1-0.9,0.1c0.5,0.3,1.1,0.3,1.6,0.5c2.3,0.5,4.7,1,7,1.6c2.9,0.8,5.6,1.8,8.5,2.7
		c0.4,0.1,1,0.1,1.4,0c0.9-0.4,1.9-0.7,2.2-1.9c0.1-0.4,0.7-0.7,1.1-1c0.2-0.2,0.5-0.3,0.7-0.5C99,44.9,98.9,44.8,98.9,44.7z
		 M94.8,30.5c0.4-0.4,0.9-0.8,1.5-1.4c-1.6,0.1-2.4,1.2-3.3,2c-1.7-1.1-3.3-2.2-5-3.2c-1.2-0.7-2.4-1.4-3.1-2.7
		c-0.2-0.4-0.9-0.7-1.4-0.9c-0.2-0.1-0.7,0.3-0.8,0.6c-0.1,0.2,0.2,0.7,0.4,0.8c0.4,0.3,1,0.6,1.4,0.8c2.3,1.3,4.7,2.4,6.7,4.2
		c0.7,0.7,1.5,1.2,2.4,1.6c0.5,0.2,1.2-0.2,1.8-0.3c-0.1-0.4-0.3-0.8-0.4-1.2C94.9,30.8,94.9,30.7,94.8,30.5z M24.4,89.3
		c-0.6-0.2-1.3-0.3-1.9-0.5c-1.9-0.5-3.5,0-5,1.1c-0.2,0.2-0.3,0.8-0.3,1.1c0,0.2,0.7,0.3,1,0.3c0.4-0.1,0.8-0.4,1.1-0.5
		c0.6-0.3,1.3-0.7,2-0.9c1-0.2,2.1-0.3,3.1-0.4C24.4,89.4,24.4,89.4,24.4,89.3z M24.4,89.3c-0.6-0.2-1.3-0.3-1.9-0.5
		c-1.9-0.5-3.5,0-5,1.1c-0.2,0.2-0.3,0.8-0.3,1.1c0,0.2,0.7,0.3,1,0.3c0.4-0.1,0.8-0.4,1.1-0.5c0.6-0.3,1.3-0.7,2-0.9
		c1-0.2,2.1-0.3,3.1-0.4C24.4,89.4,24.4,89.4,24.4,89.3z M94.8,30.5c0.4-0.4,0.9-0.8,1.5-1.4c-1.6,0.1-2.4,1.2-3.3,2
		c-1.7-1.1-3.3-2.2-5-3.2c-1.2-0.7-2.4-1.4-3.1-2.7c-0.2-0.4-0.9-0.7-1.4-0.9c-0.2-0.1-0.7,0.3-0.8,0.6c-0.1,0.2,0.2,0.7,0.4,0.8
		c0.4,0.3,1,0.6,1.4,0.8c2.3,1.3,4.7,2.4,6.7,4.2c0.7,0.7,1.5,1.2,2.4,1.6c0.5,0.2,1.2-0.2,1.8-0.3c-0.1-0.4-0.3-0.8-0.4-1.2
		C94.9,30.8,94.9,30.7,94.8,30.5z M98.9,44.7c-1.5,0.9-2.9,1.8-4.4,2.7c0-0.1-0.1-0.2-0.1-0.2c0.2-0.3,0.5-0.7,0.7-1
		c-0.1-0.1-0.1-0.1-0.2-0.2c-0.6,0.3-1.2,0.7-1.9,1c-0.3,0.1-0.6,0.3-0.8,0.2c-1.9-0.5-4-0.9-5.8-1.7c-2.9-1.3-5.9-1.8-9-2
		c-0.3,0-0.6,0.1-0.9,0.1c0.5,0.3,1.1,0.3,1.6,0.5c2.3,0.5,4.7,1,7,1.6c2.9,0.8,5.6,1.8,8.5,2.7c0.4,0.1,1,0.1,1.4,0
		c0.9-0.4,1.9-0.7,2.2-1.9c0.1-0.4,0.7-0.7,1.1-1c0.2-0.2,0.5-0.3,0.7-0.5C99,44.9,98.9,44.8,98.9,44.7z M100.1,62.4
		c-1.3-1.4-2.6-2.8-4.7-2.9c1-0.1,2,0,2.2-1.5c-1,0.3-1.9,0.6-2.7,0.9c-1,0.4-1.9,0.9-2.8,1.4c-0.4,0.2-0.8,0.5-1.3,0.7
		c-0.9,0.5-1.7,1.9-1.6,3.1c0.2-0.3,0.3-0.5,0.4-0.7c2-3,3.4-3.5,6.7-2.8c1.9,0.4,3,1.9,4.1,3.4c0.8,1.1,1.6,2.1,2.4,3.2
		c0.1-0.1,0.2-0.2,0.4-0.3C102.7,65,101.3,63.7,100.1,62.4z M106.7,89.8c-2.2-1.6-4.4-1.2-6.7-0.3c0.5,0.1,0.9,0.2,1.4,0.2
		c1.7-0.1,3.1,0.7,4.6,1.5c0.3,0.2,1,0.1,1.2-0.1C107.4,90.6,107.2,90.2,106.7,89.8z M106.7,89.8c-2.2-1.6-4.4-1.2-6.7-0.3
		c0.5,0.1,0.9,0.2,1.4,0.2c1.7-0.1,3.1,0.7,4.6,1.5c0.3,0.2,1,0.1,1.2-0.1C107.4,90.6,107.2,90.2,106.7,89.8z M100.1,62.4
		c-1.3-1.4-2.6-2.8-4.7-2.9c1-0.1,2,0,2.2-1.5c-1,0.3-1.9,0.6-2.7,0.9c-1,0.4-1.9,0.9-2.8,1.4c-0.4,0.2-0.8,0.5-1.3,0.7
		c-0.9,0.5-1.7,1.9-1.6,3.1c0.2-0.3,0.3-0.5,0.4-0.7c2-3,3.4-3.5,6.7-2.8c1.9,0.4,3,1.9,4.1,3.4c0.8,1.1,1.6,2.1,2.4,3.2
		c0.1-0.1,0.2-0.2,0.4-0.3C102.7,65,101.3,63.7,100.1,62.4z M98.9,44.7c-1.5,0.9-2.9,1.8-4.4,2.7c0-0.1-0.1-0.2-0.1-0.2
		c0.2-0.3,0.5-0.7,0.7-1c-0.1-0.1-0.1-0.1-0.2-0.2c-0.6,0.3-1.2,0.7-1.9,1c-0.3,0.1-0.6,0.3-0.8,0.2c-1.9-0.5-4-0.9-5.8-1.7
		c-2.9-1.3-5.9-1.8-9-2c-0.3,0-0.6,0.1-0.9,0.1c0.5,0.3,1.1,0.3,1.6,0.5c2.3,0.5,4.7,1,7,1.6c2.9,0.8,5.6,1.8,8.5,2.7
		c0.4,0.1,1,0.1,1.4,0c0.9-0.4,1.9-0.7,2.2-1.9c0.1-0.4,0.7-0.7,1.1-1c0.2-0.2,0.5-0.3,0.7-0.5C99,44.9,98.9,44.8,98.9,44.7z
		 M94.8,30.5c0.4-0.4,0.9-0.8,1.5-1.4c-1.6,0.1-2.4,1.2-3.3,2c-1.7-1.1-3.3-2.2-5-3.2c-1.2-0.7-2.4-1.4-3.1-2.7
		c-0.2-0.4-0.9-0.7-1.4-0.9c-0.2-0.1-0.7,0.3-0.8,0.6c-0.1,0.2,0.2,0.7,0.4,0.8c0.4,0.3,1,0.6,1.4,0.8c2.3,1.3,4.7,2.4,6.7,4.2
		c0.7,0.7,1.5,1.2,2.4,1.6c0.5,0.2,1.2-0.2,1.8-0.3c-0.1-0.4-0.3-0.8-0.4-1.2C94.9,30.8,94.9,30.7,94.8,30.5z M24.4,89.3
		c-0.6-0.2-1.3-0.3-1.9-0.5c-1.9-0.5-3.5,0-5,1.1c-0.2,0.2-0.3,0.8-0.3,1.1c0,0.2,0.7,0.3,1,0.3c0.4-0.1,0.8-0.4,1.1-0.5
		c0.6-0.3,1.3-0.7,2-0.9c1-0.2,2.1-0.3,3.1-0.4C24.4,89.4,24.4,89.4,24.4,89.3z M24.4,89.3c-0.6-0.2-1.3-0.3-1.9-0.5
		c-1.9-0.5-3.5,0-5,1.1c-0.2,0.2-0.3,0.8-0.3,1.1c0,0.2,0.7,0.3,1,0.3c0.4-0.1,0.8-0.4,1.1-0.5c0.6-0.3,1.3-0.7,2-0.9
		c1-0.2,2.1-0.3,3.1-0.4C24.4,89.4,24.4,89.4,24.4,89.3z M94.8,30.5c0.4-0.4,0.9-0.8,1.5-1.4c-1.6,0.1-2.4,1.2-3.3,2
		c-1.7-1.1-3.3-2.2-5-3.2c-1.2-0.7-2.4-1.4-3.1-2.7c-0.2-0.4-0.9-0.7-1.4-0.9c-0.2-0.1-0.7,0.3-0.8,0.6c-0.1,0.2,0.2,0.7,0.4,0.8
		c0.4,0.3,1,0.6,1.4,0.8c2.3,1.3,4.7,2.4,6.7,4.2c0.7,0.7,1.5,1.2,2.4,1.6c0.5,0.2,1.2-0.2,1.8-0.3c-0.1-0.4-0.3-0.8-0.4-1.2
		C94.9,30.8,94.9,30.7,94.8,30.5z M98.9,44.7c-1.5,0.9-2.9,1.8-4.4,2.7c0-0.1-0.1-0.2-0.1-0.2c0.2-0.3,0.5-0.7,0.7-1
		c-0.1-0.1-0.1-0.1-0.2-0.2c-0.6,0.3-1.2,0.7-1.9,1c-0.3,0.1-0.6,0.3-0.8,0.2c-1.9-0.5-4-0.9-5.8-1.7c-2.9-1.3-5.9-1.8-9-2
		c-0.3,0-0.6,0.1-0.9,0.1c0.5,0.3,1.1,0.3,1.6,0.5c2.3,0.5,4.7,1,7,1.6c2.9,0.8,5.6,1.8,8.5,2.7c0.4,0.1,1,0.1,1.4,0
		c0.9-0.4,1.9-0.7,2.2-1.9c0.1-0.4,0.7-0.7,1.1-1c0.2-0.2,0.5-0.3,0.7-0.5C99,44.9,98.9,44.8,98.9,44.7z M100.1,62.4
		c-1.3-1.4-2.6-2.8-4.7-2.9c1-0.1,2,0,2.2-1.5c-1,0.3-1.9,0.6-2.7,0.9c-1,0.4-1.9,0.9-2.8,1.4c-0.4,0.2-0.8,0.5-1.3,0.7
		c-0.9,0.5-1.7,1.9-1.6,3.1c0.2-0.3,0.3-0.5,0.4-0.7c2-3,3.4-3.5,6.7-2.8c1.9,0.4,3,1.9,4.1,3.4c0.8,1.1,1.6,2.1,2.4,3.2
		c0.1-0.1,0.2-0.2,0.4-0.3C102.7,65,101.3,63.7,100.1,62.4z M106.7,89.8c-2.2-1.6-4.4-1.2-6.7-0.3c0.5,0.1,0.9,0.2,1.4,0.2
		c1.7-0.1,3.1,0.7,4.6,1.5c0.3,0.2,1,0.1,1.2-0.1C107.4,90.6,107.2,90.2,106.7,89.8z M106.7,89.8c-2.2-1.6-4.4-1.2-6.7-0.3
		c0.5,0.1,0.9,0.2,1.4,0.2c1.7-0.1,3.1,0.7,4.6,1.5c0.3,0.2,1,0.1,1.2-0.1C107.4,90.6,107.2,90.2,106.7,89.8z M100.1,62.4
		c-1.3-1.4-2.6-2.8-4.7-2.9c1-0.1,2,0,2.2-1.5c-1,0.3-1.9,0.6-2.7,0.9c-1,0.4-1.9,0.9-2.8,1.4c-0.4,0.2-0.8,0.5-1.3,0.7
		c-0.9,0.5-1.7,1.9-1.6,3.1c0.2-0.3,0.3-0.5,0.4-0.7c2-3,3.4-3.5,6.7-2.8c1.9,0.4,3,1.9,4.1,3.4c0.8,1.1,1.6,2.1,2.4,3.2
		c0.1-0.1,0.2-0.2,0.4-0.3C102.7,65,101.3,63.7,100.1,62.4z M98.9,44.7c-1.5,0.9-2.9,1.8-4.4,2.7c0-0.1-0.1-0.2-0.1-0.2
		c0.2-0.3,0.5-0.7,0.7-1c-0.1-0.1-0.1-0.1-0.2-0.2c-0.6,0.3-1.2,0.7-1.9,1c-0.3,0.1-0.6,0.3-0.8,0.2c-1.9-0.5-4-0.9-5.8-1.7
		c-2.9-1.3-5.9-1.8-9-2c-0.3,0-0.6,0.1-0.9,0.1c0.5,0.3,1.1,0.3,1.6,0.5c2.3,0.5,4.7,1,7,1.6c2.9,0.8,5.6,1.8,8.5,2.7
		c0.4,0.1,1,0.1,1.4,0c0.9-0.4,1.9-0.7,2.2-1.9c0.1-0.4,0.7-0.7,1.1-1c0.2-0.2,0.5-0.3,0.7-0.5C99,44.9,98.9,44.8,98.9,44.7z
		 M94.8,30.5c0.4-0.4,0.9-0.8,1.5-1.4c-1.6,0.1-2.4,1.2-3.3,2c-1.7-1.1-3.3-2.2-5-3.2c-1.2-0.7-2.4-1.4-3.1-2.7
		c-0.2-0.4-0.9-0.7-1.4-0.9c-0.2-0.1-0.7,0.3-0.8,0.6c-0.1,0.2,0.2,0.7,0.4,0.8c0.4,0.3,1,0.6,1.4,0.8c2.3,1.3,4.7,2.4,6.7,4.2
		c0.7,0.7,1.5,1.2,2.4,1.6c0.5,0.2,1.2-0.2,1.8-0.3c-0.1-0.4-0.3-0.8-0.4-1.2C94.9,30.8,94.9,30.7,94.8,30.5z M24.4,89.3
		c-0.6-0.2-1.3-0.3-1.9-0.5c-1.9-0.5-3.5,0-5,1.1c-0.2,0.2-0.3,0.8-0.3,1.1c0,0.2,0.7,0.3,1,0.3c0.4-0.1,0.8-0.4,1.1-0.5
		c0.6-0.3,1.3-0.7,2-0.9c1-0.2,2.1-0.3,3.1-0.4C24.4,89.4,24.4,89.4,24.4,89.3z M24.4,89.3c-0.6-0.2-1.3-0.3-1.9-0.5
		c-1.9-0.5-3.5,0-5,1.1c-0.2,0.2-0.3,0.8-0.3,1.1c0,0.2,0.7,0.3,1,0.3c0.4-0.1,0.8-0.4,1.1-0.5c0.6-0.3,1.3-0.7,2-0.9
		c1-0.2,2.1-0.3,3.1-0.4C24.4,89.4,24.4,89.4,24.4,89.3z M94.8,30.5c0.4-0.4,0.9-0.8,1.5-1.4c-1.6,0.1-2.4,1.2-3.3,2
		c-1.7-1.1-3.3-2.2-5-3.2c-1.2-0.7-2.4-1.4-3.1-2.7c-0.2-0.4-0.9-0.7-1.4-0.9c-0.2-0.1-0.7,0.3-0.8,0.6c-0.1,0.2,0.2,0.7,0.4,0.8
		c0.4,0.3,1,0.6,1.4,0.8c2.3,1.3,4.7,2.4,6.7,4.2c0.7,0.7,1.5,1.2,2.4,1.6c0.5,0.2,1.2-0.2,1.8-0.3c-0.1-0.4-0.3-0.8-0.4-1.2
		C94.9,30.8,94.9,30.7,94.8,30.5z M98.9,44.7c-1.5,0.9-2.9,1.8-4.4,2.7c0-0.1-0.1-0.2-0.1-0.2c0.2-0.3,0.5-0.7,0.7-1
		c-0.1-0.1-0.1-0.1-0.2-0.2c-0.6,0.3-1.2,0.7-1.9,1c-0.3,0.1-0.6,0.3-0.8,0.2c-1.9-0.5-4-0.9-5.8-1.7c-2.9-1.3-5.9-1.8-9-2
		c-0.3,0-0.6,0.1-0.9,0.1c0.5,0.3,1.1,0.3,1.6,0.5c2.3,0.5,4.7,1,7,1.6c2.9,0.8,5.6,1.8,8.5,2.7c0.4,0.1,1,0.1,1.4,0
		c0.9-0.4,1.9-0.7,2.2-1.9c0.1-0.4,0.7-0.7,1.1-1c0.2-0.2,0.5-0.3,0.7-0.5C99,44.9,98.9,44.8,98.9,44.7z M100.1,62.4
		c-1.3-1.4-2.6-2.8-4.7-2.9c1-0.1,2,0,2.2-1.5c-1,0.3-1.9,0.6-2.7,0.9c-1,0.4-1.9,0.9-2.8,1.4c-0.4,0.2-0.8,0.5-1.3,0.7
		c-0.9,0.5-1.7,1.9-1.6,3.1c0.2-0.3,0.3-0.5,0.4-0.7c2-3,3.4-3.5,6.7-2.8c1.9,0.4,3,1.9,4.1,3.4c0.8,1.1,1.6,2.1,2.4,3.2
		c0.1-0.1,0.2-0.2,0.4-0.3C102.7,65,101.3,63.7,100.1,62.4z M106.7,89.8c-2.2-1.6-4.4-1.2-6.7-0.3c0.5,0.1,0.9,0.2,1.4,0.2
		c1.7-0.1,3.1,0.7,4.6,1.5c0.3,0.2,1,0.1,1.2-0.1C107.4,90.6,107.2,90.2,106.7,89.8z M106.7,89.8c-2.2-1.6-4.4-1.2-6.7-0.3
		c0.5,0.1,0.9,0.2,1.4,0.2c1.7-0.1,3.1,0.7,4.6,1.5c0.3,0.2,1,0.1,1.2-0.1C107.4,90.6,107.2,90.2,106.7,89.8z M100.1,62.4
		c-1.3-1.4-2.6-2.8-4.7-2.9c1-0.1,2,0,2.2-1.5c-1,0.3-1.9,0.6-2.7,0.9c-1,0.4-1.9,0.9-2.8,1.4c-0.4,0.2-0.8,0.5-1.3,0.7
		c-0.9,0.5-1.7,1.9-1.6,3.1c0.2-0.3,0.3-0.5,0.4-0.7c2-3,3.4-3.5,6.7-2.8c1.9,0.4,3,1.9,4.1,3.4c0.8,1.1,1.6,2.1,2.4,3.2
		c0.1-0.1,0.2-0.2,0.4-0.3C102.7,65,101.3,63.7,100.1,62.4z M98.9,44.7c-1.5,0.9-2.9,1.8-4.4,2.7c0-0.1-0.1-0.2-0.1-0.2
		c0.2-0.3,0.5-0.7,0.7-1c-0.1-0.1-0.1-0.1-0.2-0.2c-0.6,0.3-1.2,0.7-1.9,1c-0.3,0.1-0.6,0.3-0.8,0.2c-1.9-0.5-4-0.9-5.8-1.7
		c-2.9-1.3-5.9-1.8-9-2c-0.3,0-0.6,0.1-0.9,0.1c0.5,0.3,1.1,0.3,1.6,0.5c2.3,0.5,4.7,1,7,1.6c2.9,0.8,5.6,1.8,8.5,2.7
		c0.4,0.1,1,0.1,1.4,0c0.9-0.4,1.9-0.7,2.2-1.9c0.1-0.4,0.7-0.7,1.1-1c0.2-0.2,0.5-0.3,0.7-0.5C99,44.9,98.9,44.8,98.9,44.7z
		 M94.8,30.5c0.4-0.4,0.9-0.8,1.5-1.4c-1.6,0.1-2.4,1.2-3.3,2c-1.7-1.1-3.3-2.2-5-3.2c-1.2-0.7-2.4-1.4-3.1-2.7
		c-0.2-0.4-0.9-0.7-1.4-0.9c-0.2-0.1-0.7,0.3-0.8,0.6c-0.1,0.2,0.2,0.7,0.4,0.8c0.4,0.3,1,0.6,1.4,0.8c2.3,1.3,4.7,2.4,6.7,4.2
		c0.7,0.7,1.5,1.2,2.4,1.6c0.5,0.2,1.2-0.2,1.8-0.3c-0.1-0.4-0.3-0.8-0.4-1.2C94.9,30.8,94.9,30.7,94.8,30.5z M24.4,89.3
		c-0.6-0.2-1.3-0.3-1.9-0.5c-1.9-0.5-3.5,0-5,1.1c-0.2,0.2-0.3,0.8-0.3,1.1c0,0.2,0.7,0.3,1,0.3c0.4-0.1,0.8-0.4,1.1-0.5
		c0.6-0.3,1.3-0.7,2-0.9c1-0.2,2.1-0.3,3.1-0.4C24.4,89.4,24.4,89.4,24.4,89.3z M24.4,89.3c-0.6-0.2-1.3-0.3-1.9-0.5
		c-1.9-0.5-3.5,0-5,1.1c-0.2,0.2-0.3,0.8-0.3,1.1c0,0.2,0.7,0.3,1,0.3c0.4-0.1,0.8-0.4,1.1-0.5c0.6-0.3,1.3-0.7,2-0.9
		c1-0.2,2.1-0.3,3.1-0.4C24.4,89.4,24.4,89.4,24.4,89.3z M94.8,30.5c0.4-0.4,0.9-0.8,1.5-1.4c-1.6,0.1-2.4,1.2-3.3,2
		c-1.7-1.1-3.3-2.2-5-3.2c-1.2-0.7-2.4-1.4-3.1-2.7c-0.2-0.4-0.9-0.7-1.4-0.9c-0.2-0.1-0.7,0.3-0.8,0.6c-0.1,0.2,0.2,0.7,0.4,0.8
		c0.4,0.3,1,0.6,1.4,0.8c2.3,1.3,4.7,2.4,6.7,4.2c0.7,0.7,1.5,1.2,2.4,1.6c0.5,0.2,1.2-0.2,1.8-0.3c-0.1-0.4-0.3-0.8-0.4-1.2
		C94.9,30.8,94.9,30.7,94.8,30.5z M98.9,44.7c-1.5,0.9-2.9,1.8-4.4,2.7c0-0.1-0.1-0.2-0.1-0.2c0.2-0.3,0.5-0.7,0.7-1
		c-0.1-0.1-0.1-0.1-0.2-0.2c-0.6,0.3-1.2,0.7-1.9,1c-0.3,0.1-0.6,0.3-0.8,0.2c-1.9-0.5-4-0.9-5.8-1.7c-2.9-1.3-5.9-1.8-9-2
		c-0.3,0-0.6,0.1-0.9,0.1c0.5,0.3,1.1,0.3,1.6,0.5c2.3,0.5,4.7,1,7,1.6c2.9,0.8,5.6,1.8,8.5,2.7c0.4,0.1,1,0.1,1.4,0
		c0.9-0.4,1.9-0.7,2.2-1.9c0.1-0.4,0.7-0.7,1.1-1c0.2-0.2,0.5-0.3,0.7-0.5C99,44.9,98.9,44.8,98.9,44.7z M100.1,62.4
		c-1.3-1.4-2.6-2.8-4.7-2.9c1-0.1,2,0,2.2-1.5c-1,0.3-1.9,0.6-2.7,0.9c-1,0.4-1.9,0.9-2.8,1.4c-0.4,0.2-0.8,0.5-1.3,0.7
		c-0.9,0.5-1.7,1.9-1.6,3.1c0.2-0.3,0.3-0.5,0.4-0.7c2-3,3.4-3.5,6.7-2.8c1.9,0.4,3,1.9,4.1,3.4c0.8,1.1,1.6,2.1,2.4,3.2
		c0.1-0.1,0.2-0.2,0.4-0.3C102.7,65,101.3,63.7,100.1,62.4z M106.7,89.8c-2.2-1.6-4.4-1.2-6.7-0.3c0.5,0.1,0.9,0.2,1.4,0.2
		c1.7-0.1,3.1,0.7,4.6,1.5c0.3,0.2,1,0.1,1.2-0.1C107.4,90.6,107.2,90.2,106.7,89.8z M106.7,89.8c-2.2-1.6-4.4-1.2-6.7-0.3
		c0.5,0.1,0.9,0.2,1.4,0.2c1.7-0.1,3.1,0.7,4.6,1.5c0.3,0.2,1,0.1,1.2-0.1C107.4,90.6,107.2,90.2,106.7,89.8z M100.1,62.4
		c-1.3-1.4-2.6-2.8-4.7-2.9c1-0.1,2,0,2.2-1.5c-1,0.3-1.9,0.6-2.7,0.9c-1,0.4-1.9,0.9-2.8,1.4c-0.4,0.2-0.8,0.5-1.3,0.7
		c-0.9,0.5-1.7,1.9-1.6,3.1c0.2-0.3,0.3-0.5,0.4-0.7c2-3,3.4-3.5,6.7-2.8c1.9,0.4,3,1.9,4.1,3.4c0.8,1.1,1.6,2.1,2.4,3.2
		c0.1-0.1,0.2-0.2,0.4-0.3C102.7,65,101.3,63.7,100.1,62.4z M98.9,44.7c-1.5,0.9-2.9,1.8-4.4,2.7c0-0.1-0.1-0.2-0.1-0.2
		c0.2-0.3,0.5-0.7,0.7-1c-0.1-0.1-0.1-0.1-0.2-0.2c-0.6,0.3-1.2,0.7-1.9,1c-0.3,0.1-0.6,0.3-0.8,0.2c-1.9-0.5-4-0.9-5.8-1.7
		c-2.9-1.3-5.9-1.8-9-2c-0.3,0-0.6,0.1-0.9,0.1c0.5,0.3,1.1,0.3,1.6,0.5c2.3,0.5,4.7,1,7,1.6c2.9,0.8,5.6,1.8,8.5,2.7
		c0.4,0.1,1,0.1,1.4,0c0.9-0.4,1.9-0.7,2.2-1.9c0.1-0.4,0.7-0.7,1.1-1c0.2-0.2,0.5-0.3,0.7-0.5C99,44.9,98.9,44.8,98.9,44.7z
		 M94.8,30.5c0.4-0.4,0.9-0.8,1.5-1.4c-1.6,0.1-2.4,1.2-3.3,2c-1.7-1.1-3.3-2.2-5-3.2c-1.2-0.7-2.4-1.4-3.1-2.7
		c-0.2-0.4-0.9-0.7-1.4-0.9c-0.2-0.1-0.7,0.3-0.8,0.6c-0.1,0.2,0.2,0.7,0.4,0.8c0.4,0.3,1,0.6,1.4,0.8c2.3,1.3,4.7,2.4,6.7,4.2
		c0.7,0.7,1.5,1.2,2.4,1.6c0.5,0.2,1.2-0.2,1.8-0.3c-0.1-0.4-0.3-0.8-0.4-1.2C94.9,30.8,94.9,30.7,94.8,30.5z M24.4,89.3
		c-0.6-0.2-1.3-0.3-1.9-0.5c-1.9-0.5-3.5,0-5,1.1c-0.2,0.2-0.3,0.8-0.3,1.1c0,0.2,0.7,0.3,1,0.3c0.4-0.1,0.8-0.4,1.1-0.5
		c0.6-0.3,1.3-0.7,2-0.9c1-0.2,2.1-0.3,3.1-0.4C24.4,89.4,24.4,89.4,24.4,89.3z M24.4,89.3c-0.6-0.2-1.3-0.3-1.9-0.5
		c-1.9-0.5-3.5,0-5,1.1c-0.2,0.2-0.3,0.8-0.3,1.1c0,0.2,0.7,0.3,1,0.3c0.4-0.1,0.8-0.4,1.1-0.5c0.6-0.3,1.3-0.7,2-0.9
		c1-0.2,2.1-0.3,3.1-0.4C24.4,89.4,24.4,89.4,24.4,89.3z M94.8,30.5c0.4-0.4,0.9-0.8,1.5-1.4c-1.6,0.1-2.4,1.2-3.3,2
		c-1.7-1.1-3.3-2.2-5-3.2c-1.2-0.7-2.4-1.4-3.1-2.7c-0.2-0.4-0.9-0.7-1.4-0.9c-0.2-0.1-0.7,0.3-0.8,0.6c-0.1,0.2,0.2,0.7,0.4,0.8
		c0.4,0.3,1,0.6,1.4,0.8c2.3,1.3,4.7,2.4,6.7,4.2c0.7,0.7,1.5,1.2,2.4,1.6c0.5,0.2,1.2-0.2,1.8-0.3c-0.1-0.4-0.3-0.8-0.4-1.2
		C94.9,30.8,94.9,30.7,94.8,30.5z M98.9,44.7c-1.5,0.9-2.9,1.8-4.4,2.7c0-0.1-0.1-0.2-0.1-0.2c0.2-0.3,0.5-0.7,0.7-1
		c-0.1-0.1-0.1-0.1-0.2-0.2c-0.6,0.3-1.2,0.7-1.9,1c-0.3,0.1-0.6,0.3-0.8,0.2c-1.9-0.5-4-0.9-5.8-1.7c-2.9-1.3-5.9-1.8-9-2
		c-0.3,0-0.6,0.1-0.9,0.1c0.5,0.3,1.1,0.3,1.6,0.5c2.3,0.5,4.7,1,7,1.6c2.9,0.8,5.6,1.8,8.5,2.7c0.4,0.1,1,0.1,1.4,0
		c0.9-0.4,1.9-0.7,2.2-1.9c0.1-0.4,0.7-0.7,1.1-1c0.2-0.2,0.5-0.3,0.7-0.5C99,44.9,98.9,44.8,98.9,44.7z M100.1,62.4
		c-1.3-1.4-2.6-2.8-4.7-2.9c1-0.1,2,0,2.2-1.5c-1,0.3-1.9,0.6-2.7,0.9c-1,0.4-1.9,0.9-2.8,1.4c-0.4,0.2-0.8,0.5-1.3,0.7
		c-0.9,0.5-1.7,1.9-1.6,3.1c0.2-0.3,0.3-0.5,0.4-0.7c2-3,3.4-3.5,6.7-2.8c1.9,0.4,3,1.9,4.1,3.4c0.8,1.1,1.6,2.1,2.4,3.2
		c0.1-0.1,0.2-0.2,0.4-0.3C102.7,65,101.3,63.7,100.1,62.4z M106.7,89.8c-2.2-1.6-4.4-1.2-6.7-0.3c0.5,0.1,0.9,0.2,1.4,0.2
		c1.7-0.1,3.1,0.7,4.6,1.5c0.3,0.2,1,0.1,1.2-0.1C107.4,90.6,107.2,90.2,106.7,89.8z M106.7,89.8c-2.2-1.6-4.4-1.2-6.7-0.3
		c0.5,0.1,0.9,0.2,1.4,0.2c1.7-0.1,3.1,0.7,4.6,1.5c0.3,0.2,1,0.1,1.2-0.1C107.4,90.6,107.2,90.2,106.7,89.8z M100.1,62.4
		c-1.3-1.4-2.6-2.8-4.7-2.9c1-0.1,2,0,2.2-1.5c-1,0.3-1.9,0.6-2.7,0.9c-1,0.4-1.9,0.9-2.8,1.4c-0.4,0.2-0.8,0.5-1.3,0.7
		c-0.9,0.5-1.7,1.9-1.6,3.1c0.2-0.3,0.3-0.5,0.4-0.7c2-3,3.4-3.5,6.7-2.8c1.9,0.4,3,1.9,4.1,3.4c0.8,1.1,1.6,2.1,2.4,3.2
		c0.1-0.1,0.2-0.2,0.4-0.3C102.7,65,101.3,63.7,100.1,62.4z M95,48.4c0.9-0.4,1.9-0.7,2.2-1.9c0.1-0.4,0.7-0.7,1.1-1
		c0.2-0.2,0.5-0.3,0.7-0.5c0-0.1-0.1-0.1-0.2-0.2c-1.5,0.9-2.9,1.8-4.4,2.7c0-0.1-0.1-0.2-0.1-0.2c0.2-0.3,0.5-0.7,0.7-1
		c-0.1-0.1-0.1-0.1-0.2-0.2c-0.6,0.3-1.2,0.7-1.9,1c-0.3,0.1-0.6,0.3-0.8,0.2c-1.9-0.5-4-0.9-5.8-1.7c-2.9-1.3-5.9-1.8-9-2
		c-0.3,0-0.6,0.1-0.9,0.1c0.5,0.3,1.1,0.3,1.6,0.5c2.3,0.5,4.7,1,7,1.6c2.9,0.8,5.6,1.8,8.5,2.7C94,48.5,94.6,48.5,95,48.4z
		 M84.6,26.6c2.3,1.3,4.7,2.4,6.7,4.2c0.7,0.7,1.5,1.2,2.4,1.6c0.5,0.2,1.2-0.2,1.8-0.3c-0.1-0.4-0.3-0.8-0.4-1.2
		c0-0.1-0.1-0.2-0.2-0.4c0.4-0.4,0.9-0.8,1.5-1.4c-1.6,0.1-2.4,1.2-3.3,2c-1.7-1.1-3.3-2.2-5-3.2c-1.2-0.7-2.4-1.4-3.1-2.7
		c-0.2-0.4-0.9-0.7-1.4-0.9c-0.2-0.1-0.7,0.3-0.8,0.6c-0.1,0.2,0.2,0.7,0.4,0.8C83.5,26.1,84.1,26.3,84.6,26.6z M24.4,89.3
		c-0.6-0.2-1.3-0.3-1.9-0.5c-1.9-0.5-3.5,0-5,1.1c-0.2,0.2-0.3,0.8-0.3,1.1c0,0.2,0.7,0.3,1,0.3c0.4-0.1,0.8-0.4,1.1-0.5
		c0.6-0.3,1.3-0.7,2-0.9c1-0.2,2.1-0.3,3.1-0.4C24.4,89.4,24.4,89.4,24.4,89.3z M123.9,52c-0.7-1.4-1-3-1.3-4.6
		c-0.4-2.2-1.5-4.2-2.9-5.9c-0.8-0.9-0.9-1.4-0.5-2.4c1-2.6,0.3-5-1.9-6.5c-1.6-1.1-3-2.5-4-4.2c-1.2-1.9-2.6-3.5-4.5-4.6
		c-1-0.6-1.7-1.5-2-2.6c-0.2-0.8-0.5-1.6-1-2.2c-1.9-2.5-3.7-5.2-6.1-7.2c-0.5-0.4-1.1-0.9-1.4-1.5c-2-3.9-5.5-6-9.6-7.3
		c-3.3-1-6.6-1.7-10-2.1c-2.9-0.4-5.8-1-8.8-0.8c-3,0.2-5.5,1.1-6.6,4.3c-0.2,0.5-0.4,0.9-0.7,1.3c-0.1,0.2-0.2,0.7-0.5,0.6
		c-0.3,0-0.4-0.4-0.5-0.7c-0.3-0.7-0.7-1.4-1-2.1c-0.7-1.5-1.8-2.5-3.4-3c-1-0.3-2.1-0.5-3.1-0.5c-2.3-0.1-4.6,0.3-6.9,0.6
		c-4.5,0.6-8.9,1.3-13.1,2.9c-3.5,1.3-6.3,3.4-8,6.7c-0.2,0.3-0.4,0.6-0.7,0.8c-2.8,2.3-5,5.2-7,8.1c-0.4,0.5-0.7,1.1-0.8,1.7
		c-0.3,1.4-1.2,2.3-2.3,3c-2,1.3-3.5,3-4.7,5c-0.8,1.4-1.9,2.5-3.2,3.4c-2.9,2-3.6,4.1-2.2,7.4c0.2,0.5,0.2,0.9-0.2,1.3
		c-1.2,1.3-2.1,2.8-2.8,4.4c-0.9,2.2-1,4.6-2,6.8c-0.7,1.7-0.5,3.4,0.5,5c0.5,0.9,0.9,1.8,0.8,2.9c-0.1,1.2,0,2.4,0.6,3.5
		c0.4,0.7,0.4,1.4,0.3,2.1c-0.2,1-0.3,2-0.4,3c-0.3,2.1,0.2,3.9,1.9,5.2c0.8,0.5,0.9,1,0.6,1.8c-0.9,2.9-0.8,5.7,1.5,8
		c0.4,0.4,0.5,1,0.3,1.6c-0.3,1.4-0.4,2.7-0.1,4.1c1,5.3,6.5,9.3,11,10.3c3.2,0.7,6.5-0.6,9.8,0.2c0.1,0,0.2,0,0.3,0
		c3.1-0.6,5.8-2.1,8.4-3.7c0.5-0.3,0.9-0.5,1.4-0.7c2.1-0.6,4-1.7,5.3-3.6c0.3-0.4,0.7-0.7,1.1-1c1.5-1,3.1-0.7,4.8-0.3
		c3,0.8,5.5,0.2,7.5-2.3c0.1-0.2,0.3-0.4,0.5-0.5c1.9-1.5,2.9-3.5,3.4-5.8c0.4-1.9,0.6-3.9,1.6-5.7c0.5-1,0.6-2.2,0.6-3.4
		c0-0.4-0.1-0.8,0.3-1.2c0.1,2.4,0.7,4.8,1.8,6.9c0.1,0.2,0.1,0.4,0.1,0.6c0.4,3.4,1.3,6.6,4.2,8.8c0.1,0.1,0.2,0.2,0.3,0.4
		c0.9,1.3,2.1,1.9,3.6,2.3c1.5,0.4,3,0.1,4.4-0.4c2.2-0.6,4-0.1,5.4,1.7c1.3,1.6,3,2.7,5.1,3.3c0.4,0.1,0.8,0.2,1.1,0.4
		c1.8,1.3,3.7,2.2,5.7,3c1.3,0.6,2.6,1.1,4,1c2-0.2,3.9-0.3,6,0c2.9,0.4,5.4-0.7,7.9-2.1c3.9-2.3,7.6-7.1,6.1-12.4
		c-0.2-0.7,0-1.3,0.5-1.8c1-1.1,1.5-2.3,1.8-3.8c0.2-1.5-0.2-2.9-0.6-4.3c-0.2-0.7-0.1-1,0.5-1.4c0.8-0.5,1.4-1.2,1.7-2.1
		c0.6-1.3,0.6-2.7,0.3-4.1c-0.4-1.6-0.7-3.2,0.2-4.8c0.5-0.8,0.7-1.8,0.5-2.8c-0.3-1.2,0.2-2.2,0.8-3.3
		C124.4,55.5,124.7,53.8,123.9,52z M60.9,13.7c-0.3-0.2-0.6-0.3-0.7-0.5c-2.2-2.7-5.1-4.1-8.3-5c-1.5-0.5-3.1-1-4.6-1.6
		c-0.7-0.2-0.8-0.6-0.4-1.2c0.2-0.2,0.3-0.5,0.6-0.7c3.5-2.3,8-2.4,11.1,0.5C61,7.5,61.4,10.4,60.9,13.7z M33.6,4.3
		C35.3,3.8,37,3,38.8,2.8c1.3-0.2,2.8,0.1,3.6,1.4c0.5,0.8,0,1.8-0.9,1.8c-2.6-0.1-5.2,0.1-7.7-0.6c-0.3-0.1-0.6-0.2-1.2-0.5
		C33.1,4.7,33.3,4.4,33.6,4.3z M30.2,9.1c0.2-0.3,0.7-0.4,1-0.7c0,0.4,0.2,0.8,0.1,1.1c-0.7,2-1,3.9-0.5,6.1c-0.5,0-1.1,0.1-1.4-0.1
		c-0.4-0.2-0.9-0.7-0.9-1.1C28.5,12.5,29,10.7,30.2,9.1z M19.6,23.2c0,0.6,0,1.2,0,1.8c-0.1,1.4-0.6,2-2,2.3c-1.3,0.3-2.6,0.7-4,1.1
		C14.1,25.6,17.1,23.1,19.6,23.2z M5.9,35c0.3-0.7,1.1-0.8,1.5-0.2c0.8,1.3,1.7,2.6,1.3,4.3c-0.1,0.5-0.1,1-0.1,1.6
		c0,0.8-0.2,1.3-1.1,1.5c-1-1.6-2-3.2-2-5.1C5.5,36.4,5.7,35.7,5.9,35z M2.9,56.7c0.8-1.9,0.7-3.9,1-5.8c0.2-1.1,0.4-2.3,0.6-3.4
		c0.1,0,0.3,0,0.4-0.1c0.2,0.4,0.5,0.8,0.6,1.2c0.7,3,0.3,6-0.5,8.9c-0.5,1.6-1.1,3.2-1.6,4.8c0-0.1-0.1-0.1-0.2-0.2
		C2.9,60.3,2.2,58.4,2.9,56.7z M5.1,62.4c2.1-5,3-10.3,3.6-15.7c0.4-3.3,1-6.6,1.3-9.9c0.1-1.1,0-2.2-0.2-3.3
		c-0.3-1.7,0.1-2.7,1.8-3.3c1.6-0.5,3.2-0.8,4.8-1.1c0.6-0.1,1.2-0.1,2-0.2c-0.1,0.8-0.3,1.5-0.4,2.1c-0.1,1.4-0.2,2.9-0.2,4.3
		c0,1-0.1,1.9-1,2.5c-1.5,1.2-2.5,2.7-3.2,4.5c-0.7,1.9-1.5,3.7-2.2,5.6c-0.3,0.9-0.5,1.8-0.4,2.7c0.3,3.1,0.6,6.2,1.3,9.3
		c0.4,1.6,0.4,2.6-0.5,4.1c-2,3.1-2.2,6.5-0.5,9.9c0.3,0.7,0.4,1.5,0.5,2.4c-0.9-0.3-1.3-1.1-1.4-1.9c-0.1-0.4,0-0.7-0.1-1.1
		c0-1.2-0.6-1.9-1.8-2c-2-0.2-3.1-1.4-3.6-3.2C4.5,66.2,4.3,64.2,5.1,62.4z M13.2,63.1c0.4,0.6,0.7,1,0.9,1.5
		c0.5,1.4,1.4,2.5,2.8,3.1c0.7,0.3,0.6,0.8,0.6,1.4c0.1,2.7,0.2,5.5,0.3,8.2c0,0.7,0.3,1.3,0.5,2.1c-1.1,0.7-2.8,0.2-3.5-1.1
		c-0.9-1.5-1.8-3.1-2.6-4.7c-1.5-2.9-1.3-5.9,0-8.9C12.3,64.2,12.7,63.8,13.2,63.1z M40.5,92.1c-1.8,1.2-3.8,2.1-6.1,2
		c-1.9-0.1-3.7,0.3-5.3,1.4c-0.5,0.4-1.2,0.6-1.8,0.9c-0.4,0.2-0.8,0.6-0.9,1c-0.2,0.8-0.6,0.9-1.3,0.9c-2.7,0-4.7-2-4.8-5
		c0-0.8,0-1.6,0-2.4c0,0-0.1,0-0.1-0.1c-0.1,0.4-0.3,0.9-0.4,1.4c-0.5,1.6-1.5,2.8-3,3.6c-2,1-3.9,0.7-5.5-0.9
		c-1.2-1.2-2.6-2.3-3.4-3.8c-0.8-1.5-1-3.4-1.4-5.1c0.1,0,0.2-0.1,0.3-0.1c0.8,1.9,1.5,3.8,2.4,5.7c0.3,0.6,1,1.3,1.6,1.4
		c1.2,0.3,2.6,0.2,3.9,0.3c0-0.1,0.1-0.2,0.1-0.3c-0.2-0.1-0.5-0.3-0.7-0.4c-3.8-1.3-6.1-3.9-7-7.8c-0.3-1.1-0.8-2.2-1.3-3.2
		c-0.7-1.4-1-2.9-0.5-4.4c0.1-0.4,0.5-0.7,0.8-1c0.3,0.3,0.6,0.6,0.8,0.9c0.2,0.5,0.4,1,0.5,1.6C8,80.9,8.5,83,9,85.1
		c0.1,0.4,0,0.9,0.1,1.4c0,0.4,0.2,0.9,0.3,1.3c1-0.3,0.8-1,0.7-1.5C9.7,85,9.3,83.7,9,82.5c-0.5-2.1-1-4.3-1.5-6.4
		c1.4,0.3,2.6,0.6,3.9,1c0.3,0.1,0.6,0.2,0.8,0.4c3.3,3,7.3,4.4,11.8,4.4c1.5,0,2.8,0.5,4,1.4c2.2,1.7,4.7,2.4,7.4,2.1
		c0.4,0,0.9,0.1,1.2,0.2c1.5,0.6,3,1.1,4.6,0.9c0.8-0.1,1.7,1.2,1.6,2.2C42.6,90.2,41.7,91.3,40.5,92.1z M48.7,89.9
		c0.1-0.2,0.1-0.4,0.3-0.5c1.7-1.1,2.6-2.8,3.8-4.4c0.2-0.2,0.4-0.5,0.7-0.6c1.3-0.4,2.7-0.8,4-1.2c-0.8,3.2-3,5.4-6,6.8
		C50.5,90.5,49.6,90.5,48.7,89.9z M45.3,17.5c1.2,0.2,2.3,0.3,3.5,0.4c3.5,0.3,6.8,1.2,9.7,3.3c2.6,1.9,3.1,6.1,2,8.4
		c-0.3,0.5-0.4,1.3-0.2,1.9c0.6,2,0.8,4,0.4,6.1c-0.2,1.2-0.5,1.3-1.5,0.7c-0.6-0.3-1.2-0.6-1.9-0.8c0.4,0.5,0.8,1,1.2,1.4
		c1.8,1.9,2.7,4.1,2.3,6.8c-0.2,1-0.4,1.3-1.4,0.9c-1.7-0.7-3.4-1.4-5.1-2.1c-0.3-0.1-0.6-0.2-0.9-0.2c0,0.1-0.1,0.1-0.1,0.2
		c0.2,0.1,0.5,0.2,0.7,0.3c2.1,0.8,3.8,2.2,5.3,3.9c1.4,1.6,1.1,3.4,1,5.2c0,0.9-0.1,1.8,0,2.7c0.5,3.8,0,7.3-2.8,10.1
		c-0.2,0.2-0.4,0.5-0.5,0.8c0.1,0.1,0.1,0.2,0.2,0.3c0.5-0.2,1.1-0.5,1.6-0.7c0.8-0.4,1-0.1,1,0.7c0,4.3-0.4,8.4-2.5,12.3
		c-1.1,2.1-2.6,3.4-5,3.8c-1.1,0.1-2.3,0.4-3.4,0.8c-2.1,0.8-4.1,0.3-6.1-0.3c-1.4-0.4-2.9-0.7-4.4-0.9c-1.8-0.2-3.4-0.7-4.5-2.2
		c-0.3-0.3-0.2-0.9-0.3-1.3c0.5-0.1,1.1-0.4,1.5-0.2c1,0.3,1.8,0.9,2.8,1.3c1.3,0.5,2.7,0.1,3.9-0.3c0.3-0.1,0.5-0.8,0.7-1.2
		c-0.3-0.1-0.6-0.3-0.9-0.4c-0.9-0.2-1.9-0.3-2.9-0.4c-2.1-0.2-4.1-0.8-5.7-2.3c-0.2-0.2-0.5-0.2-0.8-0.3c0,0.2-0.1,0.4-0.2,0.6
		c-0.1,0.6,0.1,1.5-0.2,1.8c-0.8,0.8-1.9,1.1-3,0.7c-1.2-0.5-2.4-1.1-3.4-1.9c-2-1.5-3.7-3.4-4.5-5.9c0-0.2-0.2-0.3-0.3-0.5
		c-0.1,0-0.2,0.1-0.3,0.1c0.1,0.6,0,1.2,0.2,1.7c0.7,2,1.4,4,3.4,5.2c1.1,0.6,2.2,1.1,3.4,1.6c0.2,0.1,0.3,0.2,0.5,0.3
		c-2.7,1.8-7,0.6-8.3-2.2c-1-2.1-1.3-4.3-1-6.6c0.1-1.2,0.1-2.2-0.8-3.3c-1.4-1.7-2.4-3.7-3.5-5.7c-1.4-2.7-1-4.3,1.4-6.7
		c0.9-0.9,1.9-1.6,2.8-2.5c0.4-0.4,0.8-0.9,0.9-1.5c0.4-1.3,0.6-2.7,1-4c0.3-1.1,0.8-2.1,1.3-3.1c0.4-0.8,0.7-1.7,1.3-2.4
		c1.2-1.5,2.8-2.5,4.8-3c1.2-0.3,2.3-1,3.5-1.5c0.2-0.1,0.5-0.4,0.5-0.6c0-0.3,0-0.7-0.2-0.9c-0.1-0.1-0.7-0.1-0.8,0.1
		c-0.9,1.2-2.4,1.4-3.6,2.1c-1.7,1-3.2,2.3-4.6,3.7c-2.4,2.3-3.3,5.4-3.6,8.7c-0.1,0.9-0.5,1.7-1.3,2.2c-1.7,1.2-3.3,2.4-5.1,3.8
		c-0.1-0.7-0.3-1.4-0.4-2.1c-1-4.7,0.5-8.8,2.9-12.6c0.9-1.5,2.2-2.9,3.3-4.3c0.4-0.5,0.6-1.2,0.6-1.9c0-4.6,1.1-9,3.1-13.2
		c1.4-2.8,3.4-5.1,6.6-6c1.4-0.4,2.7-0.3,3.7,0.2c-1.1,2-2.2,4.1-3.3,6.2c-0.3,0.5-0.3,1.1-0.4,1.7c0.1,0,0.3,0.1,0.4,0.1
		c0.2-0.4,0.5-0.8,0.6-1.2c1.3-3.3,3-6.5,5.8-8.9c1.2-1,2.7-1.7,4.1-2.4c0.1-0.1,0.4-0.1,0.6,0c0.9,0.5,1.7,0.3,2.6,0.1
		c2.3-0.7,4.6-1.2,7-1.8c4.2-1.1,10,2,11.3,6.1c0.6,1.8,0.2,3.7,0,5.5c-0.1,0.1-0.2,0.2-0.3,0.2c-0.4-0.5-0.8-1.1-1.3-1.5
		c-2.8-2.2-6.1-3.1-9.5-3.5c-1.3-0.2-2.7-0.2-3.9-1c-0.4-0.3-1-0.5-1.3,0.1C44.4,16.9,44.8,17.4,45.3,17.5z M116.8,35
		c0.2-0.3,0.6-0.5,0.9-0.5c0.3,0,0.7,0.4,0.7,0.6c0.2,1,0.5,2,0.3,2.9c-0.4,1.5-1.1,2.8-1.7,4.3c-1-0.3-1.3-0.7-1.3-1.5
		c0-0.5,0-0.9-0.1-1.4C115.2,37.7,115.9,36.3,116.8,35z M110.7,28.4c-1.7-0.4-3.4-0.7-5-1.4c-0.5-0.2-0.7-1.3-0.9-2
		c-0.1-0.5,0-1.2,0-1.7C107.1,22.9,110.4,25.8,110.7,28.4z M93.1,8.4c0.3,0.2,0.8,0.3,1,0.6c1.1,1.6,1.7,3.4,1.7,5.4
		c0,0.8-0.6,1-1.2,1.2c-0.3,0.1-0.7,0-1.2,0c0.6-2.1,0.2-4.1-0.5-6.1C92.9,9.2,93.1,8.8,93.1,8.4z M88.6,3.5c1,0.3,1.9,0.8,2.9,1.2
		c0,0.2,0,0.3,0,0.5c-1,0.3-2,0.6-3,0.7C86.7,6.1,85,6,83.2,6.1c-0.8,0-1.4-0.1-1.5-1c-0.1-0.8,0.4-1.3,1.1-1.7
		C84.8,2.4,86.7,2.8,88.6,3.5z M64.7,6.5C67,3.1,71.6,2,75.5,4c0.7,0.3,1.3,0.9,1.8,1.4c0.4,0.4,0.4,0.9-0.3,1.1
		C75.7,7,74.4,7.6,73,8c-3.4,1-6.6,2.3-8.9,5.2c-0.1,0.1-0.3,0.2-0.7,0.4C63.3,11,63.2,8.6,64.7,6.5z M72.3,89.8
		c-2.7-1.5-4.7-3.6-5.5-6.5c1.2,0.4,2.6,0.7,3.9,1.1c0.3,0.1,0.6,0.2,0.7,0.4c1.2,1.7,2.2,3.5,4,4.7c0.1,0,0.1,0.2,0.1,0.3
		C74.5,90.6,73.4,90.4,72.3,89.8z M80,84.8c-1.4,0.5-2.9,0.5-4.4,0c-1.3-0.4-2.6-0.7-4-0.9c-2-0.3-3.4-1.4-4.4-3.2
		c-2.3-4-2.9-8.4-2.8-12.9c0-0.8,0.3-0.9,1-0.6c0.5,0.2,1,0.4,1.4,0.7c0,0,0.1,0,0.3-0.1c-0.1-0.3-0.2-0.6-0.4-0.7
		c-2.7-2.7-3.1-6-2.8-9.6c0.1-1.7,0.1-3.5,0-5.2c-0.1-1.4,0.4-2.6,1.3-3.6c1.5-1.6,3.1-2.9,5.2-3.7c0.2-0.1,0.4-0.2,0.6-0.2
		c0-0.1-0.1-0.2-0.1-0.3c-1,0.3-2.1,0.6-3.1,1c-1,0.4-2,0.9-3,1.3c-0.9,0.4-1.2,0.1-1.4-0.9c-0.4-2.7,0.5-5,2.3-6.9
		c0.4-0.4,0.7-0.8,1.1-1.3c0-0.1-0.1-0.1-0.1-0.2c-0.6,0.3-1.3,0.7-1.9,1c-0.9,0.5-1.1,0.4-1.3-0.6c-0.4-2.1-0.3-4.1,0.3-6.2
		c0.2-0.6,0.2-1.3,0-1.8c-1.5-4-0.3-8,3.8-10c3.2-1.6,6.6-2,10.1-2.2c0.5,0,1.1-0.3,1.5-0.5c0.2-0.1,0.2-0.7,0.1-0.9
		c-0.1-0.2-0.7-0.3-0.8-0.2c-2.5,1.7-5.6,1-8.3,2c-1.9,0.7-3.9,1.4-5.5,2.7c-0.5,0.4-1,0.8-1.4,1.2c-1.1-2-0.3-6.3,1.5-8.3
		c1.9-2.1,4.5-2.6,7.1-3.1c2-0.3,3.7,0.3,5.5,0.7c1.7,0.3,3.3,1,4.9,1.4c0.2,0.1,0.6,0,0.8-0.1c1.1-0.7,2.1-0.2,3.1,0.4
		c3.9,2.2,6.1,5.7,7.8,9.7c0.3,0.7,0.6,1.4,1,2.1c0.2,0,0.3-0.1,0.5-0.1c-0.1-0.5-0.2-1.1-0.4-1.6c-0.5-1.1-1-2.1-1.6-3.2
		c-0.6-1-1.2-2-1.8-3.1c2.3-0.8,4.3-0.2,6.2,1c2.9,1.9,4.4,4.8,5.4,7.9c1.2,3.4,2,6.8,1.9,10.5c0,0.6,0.5,1.4,1,1.9
		c3,3.3,5.2,7.2,5.9,11.6c0.3,2.1-0.2,4.4-0.4,6.6c0,0.1-0.2,0.3-0.2,0.4c-0.1,0-0.2,0-0.2,0c-1.8-1.4-3.7-2.7-5.3-4.2
		c-0.5-0.4-0.6-1.4-0.8-2.1c-0.6-1.9-0.8-4-1.7-5.7c-1.2-2.5-3.4-4.4-5.7-6c-0.4-0.3-0.9-0.4-1.4-0.5c-1.1-0.3-2-0.7-2.8-1.6
		c-0.3-0.4-0.6-0.8-1.1-0.2c-0.5,0.5-0.2,1,0.2,1.3c1.1,0.6,2.2,1.3,3.3,1.6c2.6,0.6,4.6,1.9,5.8,4.2c0.9,1.6,1.3,3.4,1.9,5.1
		c0.4,1.2,0.4,2.5,1,3.5c0.5,0.9,1.5,1.5,2.2,2.3c1.1,1.2,2.4,2.3,3.2,3.7c0.4,0.7,0.5,1.9,0.2,2.6c-0.5,1.4-1.3,2.6-2,3.9
		c-0.6,1.1-1.2,2.2-1.8,3.2c-0.1,0.1-0.1,0.3-0.2,0.3c-1.2,0.8-1,1.9-0.9,3.1c0.3,2.4,0,4.7-1.1,6.8c-0.6,1.3-1.6,2.2-3,2.5
		c-1.8,0.4-3.5,0.4-5.5-0.4c1.2-0.6,2.3-1,3.3-1.6c0.8-0.5,1.8-1,2.3-1.8c0.8-1.3,1.4-2.8,2-4.2c0.2-0.4,0.1-0.9-0.1-1.4
		c-0.2,0.4-0.3,0.8-0.5,1.2c-1.5,3.3-3.9,5.7-7.3,7c-0.6,0.2-1.3,0.2-1.9,0c-1.5-0.3-1.7-0.7-1.6-2.2c0-0.3,0-0.6,0-1
		c-0.4,0.2-0.7,0.2-0.8,0.4c-2,1.8-4.4,2.2-7,2.5c-0.6,0.1-1.1,0.1-1.7,0.2c-0.3,0.1-0.6,0.3-1,0.5c0.3,0.4,0.5,1.1,0.9,1.2
		c1.6,0.4,3.3,0.8,4.9-0.2c0.6-0.3,1.1-0.7,1.8-0.9c0.4-0.1,1,0.1,1.5,0.2c-0.1,0.4-0.1,1-0.3,1.3c-0.9,1.3-2.3,2-3.8,2.1
		C84.3,83.6,82.2,84.1,80,84.8z M106.9,69.8c-0.1-1.1,0-1.8,1.2-2.5c0.8-0.4,1.4-1.5,2-2.4c0.3-0.5,0.5-1,1-1.9
		c0.5,0.7,1,1.1,1.2,1.6c1.3,2.9,1.4,5.8,0,8.7c-0.8,1.7-1.7,3.3-2.7,4.8c-0.5,0.9-1.4,1.4-2.4,1.5c-0.7,0.1-1.1-0.3-1-0.9
		C107,75.9,107.2,72.8,106.9,69.8z M118.5,81.6c-0.5,1.1-1.1,2.3-1.4,3.6c-0.9,3.7-3.1,6.2-6.7,7.5c-0.3,0.1-0.6,0.3-0.9,0.7
		c0.2,0.1,0.4,0.2,0.7,0.2c1,0,2-0.1,3-0.2c1-0.1,1.9-1.1,2.1-2c0-0.2,0-0.4,0.1-0.6c0.8-1.6,1.6-3.1,2.4-4.7
		c-0.4,2.8-0.5,5.6-3,7.6c-0.6,0.5-1.2,1.1-1.8,1.7c-1.9,1.8-5.3,1.6-7-0.6c-0.4-0.5-0.9-1-1.2-1.6c-0.3-0.6-0.4-1.3-0.6-2
		c-0.1,0-0.2,0-0.2,0v2.3c0,3-2.1,5.1-4.8,5.1c-0.7,0-1.2-0.2-1.4-0.9c-0.1-0.3-0.4-0.7-0.7-0.9C94.5,95.1,92,94,88.9,94
		c-2.7,0-5.2-1.3-6.8-3.7c-0.9-1.4-0.8-2.6,0.4-3.6c0.2-0.1,0.4-0.3,0.6-0.2c1.6,0.2,3.1-0.3,4.6-0.9c0.4-0.2,0.9-0.3,1.3-0.2
		c2.6,0.2,5-0.4,7.1-2c1.4-1,2.8-1.6,4.6-1.6c4.4,0,8.2-1.5,11.5-4.4c0.2-0.2,0.6-0.3,0.9-0.4c1.2-0.3,2.3-0.6,3.7-0.9
		c-0.2,1.3-0.5,2.6-0.8,3.8c-0.5,2-1.1,3.9-1.6,5.8c-0.2,0.7-0.4,1.4,0.4,2.1c0.2-0.4,0.4-0.7,0.4-1c-0.2-2.5,0.9-4.7,1.4-7
		c0.2-1,0.6-2,1-2.9c0.1-0.2,0.4-0.5,0.7-0.6c0.1,0,0.4,0.4,0.5,0.6C119.4,78.6,119.2,80.1,118.5,81.6z M115.9,71.4
		c-1.2,0.1-1.7,0.7-1.9,2c-0.1,0.8-0.4,1.6-0.6,2.4c-0.1,0.3-0.3,0.7-0.5,1c-0.2-0.1-0.4-0.3-0.6-0.4c0.2-0.8,0.3-1.6,0.6-2.3
		c1.9-4,1.2-7.6-1.3-11.1c-0.2-0.3-0.4-0.9-0.2-1.2c1-2.4,1.2-4.9,1.4-7.5c0.1-1.7,0.5-3.5,0.1-5.2c-0.6-3.3-2-6.4-3.8-9.3
		c-0.4-0.7-1.2-1.2-1.7-1.9c-0.4-0.5-0.9-1.1-0.9-1.8c-0.2-2.4-0.2-4.7-0.3-7.2c2.3,0.3,4.8,0.3,7.1,1.6c1.2,0.7,1.3,1.4,1.2,2.8
		c-0.1,1.6-0.2,3.3,0,4.9c0.4,4.1,1.1,8.2,1.6,12.3c0.5,3.9,1.5,7.7,3,11.4c0.9,2.1,0.8,4.4,0.2,6.6
		C118.8,70.1,117.7,71.2,115.9,71.4z M121.3,60.9c-0.1,0.5-0.2,1-0.4,1.5c-0.8-3.3-2.5-6.3-2.5-9.7c0-1.4,0.2-2.8,0.4-4.2
		c0-0.4,0.4-0.7,0.6-1.2c1.3,2.1,0.9,4.2,1.2,6.3c0.1,0.7,0.1,1.4,0.4,2C122,57.3,121.5,59.1,121.3,60.9z M106.7,89.8
		c-2.2-1.6-4.4-1.2-6.7-0.3c0.5,0.1,0.9,0.2,1.4,0.2c1.7-0.1,3.1,0.7,4.6,1.5c0.3,0.2,1,0.1,1.2-0.1
		C107.4,90.6,107.2,90.2,106.7,89.8z M97.6,58c-1,0.3-1.9,0.6-2.7,0.9c-1,0.4-1.9,0.9-2.8,1.4c-0.4,0.2-0.8,0.5-1.3,0.7
		c-0.9,0.5-1.7,1.9-1.6,3.1c0.2-0.3,0.3-0.5,0.4-0.7c2-3,3.4-3.5,6.7-2.8c1.9,0.4,3,1.9,4.1,3.4c0.8,1.1,1.6,2.1,2.4,3.2
		c0.1-0.1,0.2-0.2,0.4-0.3c-0.4-1.9-1.8-3.2-3-4.5c-1.3-1.4-2.6-2.8-4.7-2.9C96.4,59.4,97.4,59.5,97.6,58z M93.6,48.4
		c0.4,0.1,1,0.1,1.4,0c0.9-0.4,1.9-0.7,2.2-1.9c0.1-0.4,0.7-0.7,1.1-1c0.2-0.2,0.5-0.3,0.7-0.5c0-0.1-0.1-0.1-0.2-0.2
		c-1.5,0.9-2.9,1.8-4.4,2.7c0-0.1-0.1-0.2-0.1-0.2c0.2-0.3,0.5-0.7,0.7-1c-0.1-0.1-0.1-0.1-0.2-0.2c-0.6,0.3-1.2,0.7-1.9,1
		c-0.3,0.1-0.6,0.3-0.8,0.2c-1.9-0.5-4-0.9-5.8-1.7c-2.9-1.3-5.9-1.8-9-2c-0.3,0-0.6,0.1-0.9,0.1c0.5,0.3,1.1,0.3,1.6,0.5
		c2.3,0.5,4.7,1,7,1.6C88,46.5,90.7,47.5,93.6,48.4z M84.6,26.6c2.3,1.3,4.7,2.4,6.7,4.2c0.7,0.7,1.5,1.2,2.4,1.6
		c0.5,0.2,1.2-0.2,1.8-0.3c-0.1-0.4-0.3-0.8-0.4-1.2c0-0.1-0.1-0.2-0.2-0.4c0.4-0.4,0.9-0.8,1.5-1.4c-1.6,0.1-2.4,1.2-3.3,2
		c-1.7-1.1-3.3-2.2-5-3.2c-1.2-0.7-2.4-1.4-3.1-2.7c-0.2-0.4-0.9-0.7-1.4-0.9c-0.2-0.1-0.7,0.3-0.8,0.6c-0.1,0.2,0.2,0.7,0.4,0.8
		C83.5,26.1,84.1,26.3,84.6,26.6z M22.5,88.8c-1.9-0.5-3.5,0-5,1.1c-0.2,0.2-0.3,0.8-0.3,1.1c0,0.2,0.7,0.3,1,0.3
		c0.4-0.1,0.8-0.4,1.1-0.5c0.6-0.3,1.3-0.7,2-0.9c1-0.2,2.1-0.3,3.1-0.4c0-0.1,0-0.1,0-0.2C23.7,89.2,23.1,89,22.5,88.8z M24.4,89.3
		c-0.6-0.2-1.3-0.3-1.9-0.5c-1.9-0.5-3.5,0-5,1.1c-0.2,0.2-0.3,0.8-0.3,1.1c0,0.2,0.7,0.3,1,0.3c0.4-0.1,0.8-0.4,1.1-0.5
		c0.6-0.3,1.3-0.7,2-0.9c1-0.2,2.1-0.3,3.1-0.4C24.4,89.4,24.4,89.4,24.4,89.3z M94.8,30.5c0.4-0.4,0.9-0.8,1.5-1.4
		c-1.6,0.1-2.4,1.2-3.3,2c-1.7-1.1-3.3-2.2-5-3.2c-1.2-0.7-2.4-1.4-3.1-2.7c-0.2-0.4-0.9-0.7-1.4-0.9c-0.2-0.1-0.7,0.3-0.8,0.6
		c-0.1,0.2,0.2,0.7,0.4,0.8c0.4,0.3,1,0.6,1.4,0.8c2.3,1.3,4.7,2.4,6.7,4.2c0.7,0.7,1.5,1.2,2.4,1.6c0.5,0.2,1.2-0.2,1.8-0.3
		c-0.1-0.4-0.3-0.8-0.4-1.2C94.9,30.8,94.9,30.7,94.8,30.5z M98.9,44.7c-1.5,0.9-2.9,1.8-4.4,2.7c0-0.1-0.1-0.2-0.1-0.2
		c0.2-0.3,0.5-0.7,0.7-1c-0.1-0.1-0.1-0.1-0.2-0.2c-0.6,0.3-1.2,0.7-1.9,1c-0.3,0.1-0.6,0.3-0.8,0.2c-1.9-0.5-4-0.9-5.8-1.7
		c-2.9-1.3-5.9-1.8-9-2c-0.3,0-0.6,0.1-0.9,0.1c0.5,0.3,1.1,0.3,1.6,0.5c2.3,0.5,4.7,1,7,1.6c2.9,0.8,5.6,1.8,8.5,2.7
		c0.4,0.1,1,0.1,1.4,0c0.9-0.4,1.9-0.7,2.2-1.9c0.1-0.4,0.7-0.7,1.1-1c0.2-0.2,0.5-0.3,0.7-0.5C99,44.9,98.9,44.8,98.9,44.7z
		 M100.1,62.4c-1.3-1.4-2.6-2.8-4.7-2.9c1-0.1,2,0,2.2-1.5c-1,0.3-1.9,0.6-2.7,0.9c-1,0.4-1.9,0.9-2.8,1.4c-0.4,0.2-0.8,0.5-1.3,0.7
		c-0.9,0.5-1.7,1.9-1.6,3.1c0.2-0.3,0.3-0.5,0.4-0.7c2-3,3.4-3.5,6.7-2.8c1.9,0.4,3,1.9,4.1,3.4c0.8,1.1,1.6,2.1,2.4,3.2
		c0.1-0.1,0.2-0.2,0.4-0.3C102.7,65,101.3,63.7,100.1,62.4z M106.7,89.8c-2.2-1.6-4.4-1.2-6.7-0.3c0.5,0.1,0.9,0.2,1.4,0.2
		c1.7-0.1,3.1,0.7,4.6,1.5c0.3,0.2,1,0.1,1.2-0.1C107.4,90.6,107.2,90.2,106.7,89.8z M106.7,89.8c-2.2-1.6-4.4-1.2-6.7-0.3
		c0.5,0.1,0.9,0.2,1.4,0.2c1.7-0.1,3.1,0.7,4.6,1.5c0.3,0.2,1,0.1,1.2-0.1C107.4,90.6,107.2,90.2,106.7,89.8z M100.1,62.4
		c-1.3-1.4-2.6-2.8-4.7-2.9c1-0.1,2,0,2.2-1.5c-1,0.3-1.9,0.6-2.7,0.9c-1,0.4-1.9,0.9-2.8,1.4c-0.4,0.2-0.8,0.5-1.3,0.7
		c-0.9,0.5-1.7,1.9-1.6,3.1c0.2-0.3,0.3-0.5,0.4-0.7c2-3,3.4-3.5,6.7-2.8c1.9,0.4,3,1.9,4.1,3.4c0.8,1.1,1.6,2.1,2.4,3.2
		c0.1-0.1,0.2-0.2,0.4-0.3C102.7,65,101.3,63.7,100.1,62.4z M98.9,44.7c-1.5,0.9-2.9,1.8-4.4,2.7c0-0.1-0.1-0.2-0.1-0.2
		c0.2-0.3,0.5-0.7,0.7-1c-0.1-0.1-0.1-0.1-0.2-0.2c-0.6,0.3-1.2,0.7-1.9,1c-0.3,0.1-0.6,0.3-0.8,0.2c-1.9-0.5-4-0.9-5.8-1.7
		c-2.9-1.3-5.9-1.8-9-2c-0.3,0-0.6,0.1-0.9,0.1c0.5,0.3,1.1,0.3,1.6,0.5c2.3,0.5,4.7,1,7,1.6c2.9,0.8,5.6,1.8,8.5,2.7
		c0.4,0.1,1,0.1,1.4,0c0.9-0.4,1.9-0.7,2.2-1.9c0.1-0.4,0.7-0.7,1.1-1c0.2-0.2,0.5-0.3,0.7-0.5C99,44.9,98.9,44.8,98.9,44.7z
		 M94.8,30.5c0.4-0.4,0.9-0.8,1.5-1.4c-1.6,0.1-2.4,1.2-3.3,2c-1.7-1.1-3.3-2.2-5-3.2c-1.2-0.7-2.4-1.4-3.1-2.7
		c-0.2-0.4-0.9-0.7-1.4-0.9c-0.2-0.1-0.7,0.3-0.8,0.6c-0.1,0.2,0.2,0.7,0.4,0.8c0.4,0.3,1,0.6,1.4,0.8c2.3,1.3,4.7,2.4,6.7,4.2
		c0.7,0.7,1.5,1.2,2.4,1.6c0.5,0.2,1.2-0.2,1.8-0.3c-0.1-0.4-0.3-0.8-0.4-1.2C94.9,30.8,94.9,30.7,94.8,30.5z M24.4,89.3
		c-0.6-0.2-1.3-0.3-1.9-0.5c-1.9-0.5-3.5,0-5,1.1c-0.2,0.2-0.3,0.8-0.3,1.1c0,0.2,0.7,0.3,1,0.3c0.4-0.1,0.8-0.4,1.1-0.5
		c0.6-0.3,1.3-0.7,2-0.9c1-0.2,2.1-0.3,3.1-0.4C24.4,89.4,24.4,89.4,24.4,89.3z M24.4,89.3c-0.6-0.2-1.3-0.3-1.9-0.5
		c-1.9-0.5-3.5,0-5,1.1c-0.2,0.2-0.3,0.8-0.3,1.1c0,0.2,0.7,0.3,1,0.3c0.4-0.1,0.8-0.4,1.1-0.5c0.6-0.3,1.3-0.7,2-0.9
		c1-0.2,2.1-0.3,3.1-0.4C24.4,89.4,24.4,89.4,24.4,89.3z M94.8,30.5c0.4-0.4,0.9-0.8,1.5-1.4c-1.6,0.1-2.4,1.2-3.3,2
		c-1.7-1.1-3.3-2.2-5-3.2c-1.2-0.7-2.4-1.4-3.1-2.7c-0.2-0.4-0.9-0.7-1.4-0.9c-0.2-0.1-0.7,0.3-0.8,0.6c-0.1,0.2,0.2,0.7,0.4,0.8
		c0.4,0.3,1,0.6,1.4,0.8c2.3,1.3,4.7,2.4,6.7,4.2c0.7,0.7,1.5,1.2,2.4,1.6c0.5,0.2,1.2-0.2,1.8-0.3c-0.1-0.4-0.3-0.8-0.4-1.2
		C94.9,30.8,94.9,30.7,94.8,30.5z M98.9,44.7c-1.5,0.9-2.9,1.8-4.4,2.7c0-0.1-0.1-0.2-0.1-0.2c0.2-0.3,0.5-0.7,0.7-1
		c-0.1-0.1-0.1-0.1-0.2-0.2c-0.6,0.3-1.2,0.7-1.9,1c-0.3,0.1-0.6,0.3-0.8,0.2c-1.9-0.5-4-0.9-5.8-1.7c-2.9-1.3-5.9-1.8-9-2
		c-0.3,0-0.6,0.1-0.9,0.1c0.5,0.3,1.1,0.3,1.6,0.5c2.3,0.5,4.7,1,7,1.6c2.9,0.8,5.6,1.8,8.5,2.7c0.4,0.1,1,0.1,1.4,0
		c0.9-0.4,1.9-0.7,2.2-1.9c0.1-0.4,0.7-0.7,1.1-1c0.2-0.2,0.5-0.3,0.7-0.5C99,44.9,98.9,44.8,98.9,44.7z M100.1,62.4
		c-1.3-1.4-2.6-2.8-4.7-2.9c1-0.1,2,0,2.2-1.5c-1,0.3-1.9,0.6-2.7,0.9c-1,0.4-1.9,0.9-2.8,1.4c-0.4,0.2-0.8,0.5-1.3,0.7
		c-0.9,0.5-1.7,1.9-1.6,3.1c0.2-0.3,0.3-0.5,0.4-0.7c2-3,3.4-3.5,6.7-2.8c1.9,0.4,3,1.9,4.1,3.4c0.8,1.1,1.6,2.1,2.4,3.2
		c0.1-0.1,0.2-0.2,0.4-0.3C102.7,65,101.3,63.7,100.1,62.4z M106.7,89.8c-2.2-1.6-4.4-1.2-6.7-0.3c0.5,0.1,0.9,0.2,1.4,0.2
		c1.7-0.1,3.1,0.7,4.6,1.5c0.3,0.2,1,0.1,1.2-0.1C107.4,90.6,107.2,90.2,106.7,89.8z M106.7,89.8c-2.2-1.6-4.4-1.2-6.7-0.3
		c0.5,0.1,0.9,0.2,1.4,0.2c1.7-0.1,3.1,0.7,4.6,1.5c0.3,0.2,1,0.1,1.2-0.1C107.4,90.6,107.2,90.2,106.7,89.8z M100.1,62.4
		c-1.3-1.4-2.6-2.8-4.7-2.9c1-0.1,2,0,2.2-1.5c-1,0.3-1.9,0.6-2.7,0.9c-1,0.4-1.9,0.9-2.8,1.4c-0.4,0.2-0.8,0.5-1.3,0.7
		c-0.9,0.5-1.7,1.9-1.6,3.1c0.2-0.3,0.3-0.5,0.4-0.7c2-3,3.4-3.5,6.7-2.8c1.9,0.4,3,1.9,4.1,3.4c0.8,1.1,1.6,2.1,2.4,3.2
		c0.1-0.1,0.2-0.2,0.4-0.3C102.7,65,101.3,63.7,100.1,62.4z M98.9,44.7c-1.5,0.9-2.9,1.8-4.4,2.7c0-0.1-0.1-0.2-0.1-0.2
		c0.2-0.3,0.5-0.7,0.7-1c-0.1-0.1-0.1-0.1-0.2-0.2c-0.6,0.3-1.2,0.7-1.9,1c-0.3,0.1-0.6,0.3-0.8,0.2c-1.9-0.5-4-0.9-5.8-1.7
		c-2.9-1.3-5.9-1.8-9-2c-0.3,0-0.6,0.1-0.9,0.1c0.5,0.3,1.1,0.3,1.6,0.5c2.3,0.5,4.7,1,7,1.6c2.9,0.8,5.6,1.8,8.5,2.7
		c0.4,0.1,1,0.1,1.4,0c0.9-0.4,1.9-0.7,2.2-1.9c0.1-0.4,0.7-0.7,1.1-1c0.2-0.2,0.5-0.3,0.7-0.5C99,44.9,98.9,44.8,98.9,44.7z
		 M94.8,30.5c0.4-0.4,0.9-0.8,1.5-1.4c-1.6,0.1-2.4,1.2-3.3,2c-1.7-1.1-3.3-2.2-5-3.2c-1.2-0.7-2.4-1.4-3.1-2.7
		c-0.2-0.4-0.9-0.7-1.4-0.9c-0.2-0.1-0.7,0.3-0.8,0.6c-0.1,0.2,0.2,0.7,0.4,0.8c0.4,0.3,1,0.6,1.4,0.8c2.3,1.3,4.7,2.4,6.7,4.2
		c0.7,0.7,1.5,1.2,2.4,1.6c0.5,0.2,1.2-0.2,1.8-0.3c-0.1-0.4-0.3-0.8-0.4-1.2C94.9,30.8,94.9,30.7,94.8,30.5z M24.4,89.3
		c-0.6-0.2-1.3-0.3-1.9-0.5c-1.9-0.5-3.5,0-5,1.1c-0.2,0.2-0.3,0.8-0.3,1.1c0,0.2,0.7,0.3,1,0.3c0.4-0.1,0.8-0.4,1.1-0.5
		c0.6-0.3,1.3-0.7,2-0.9c1-0.2,2.1-0.3,3.1-0.4C24.4,89.4,24.4,89.4,24.4,89.3z M24.4,89.3c-0.6-0.2-1.3-0.3-1.9-0.5
		c-1.9-0.5-3.5,0-5,1.1c-0.2,0.2-0.3,0.8-0.3,1.1c0,0.2,0.7,0.3,1,0.3c0.4-0.1,0.8-0.4,1.1-0.5c0.6-0.3,1.3-0.7,2-0.9
		c1-0.2,2.1-0.3,3.1-0.4C24.4,89.4,24.4,89.4,24.4,89.3z M94.8,30.5c0.4-0.4,0.9-0.8,1.5-1.4c-1.6,0.1-2.4,1.2-3.3,2
		c-1.7-1.1-3.3-2.2-5-3.2c-1.2-0.7-2.4-1.4-3.1-2.7c-0.2-0.4-0.9-0.7-1.4-0.9c-0.2-0.1-0.7,0.3-0.8,0.6c-0.1,0.2,0.2,0.7,0.4,0.8
		c0.4,0.3,1,0.6,1.4,0.8c2.3,1.3,4.7,2.4,6.7,4.2c0.7,0.7,1.5,1.2,2.4,1.6c0.5,0.2,1.2-0.2,1.8-0.3c-0.1-0.4-0.3-0.8-0.4-1.2
		C94.9,30.8,94.9,30.7,94.8,30.5z M98.9,44.7c-1.5,0.9-2.9,1.8-4.4,2.7c0-0.1-0.1-0.2-0.1-0.2c0.2-0.3,0.5-0.7,0.7-1
		c-0.1-0.1-0.1-0.1-0.2-0.2c-0.6,0.3-1.2,0.7-1.9,1c-0.3,0.1-0.6,0.3-0.8,0.2c-1.9-0.5-4-0.9-5.8-1.7c-2.9-1.3-5.9-1.8-9-2
		c-0.3,0-0.6,0.1-0.9,0.1c0.5,0.3,1.1,0.3,1.6,0.5c2.3,0.5,4.7,1,7,1.6c2.9,0.8,5.6,1.8,8.5,2.7c0.4,0.1,1,0.1,1.4,0
		c0.9-0.4,1.9-0.7,2.2-1.9c0.1-0.4,0.7-0.7,1.1-1c0.2-0.2,0.5-0.3,0.7-0.5C99,44.9,98.9,44.8,98.9,44.7z M100.1,62.4
		c-1.3-1.4-2.6-2.8-4.7-2.9c1-0.1,2,0,2.2-1.5c-1,0.3-1.9,0.6-2.7,0.9c-1,0.4-1.9,0.9-2.8,1.4c-0.4,0.2-0.8,0.5-1.3,0.7
		c-0.9,0.5-1.7,1.9-1.6,3.1c0.2-0.3,0.3-0.5,0.4-0.7c2-3,3.4-3.5,6.7-2.8c1.9,0.4,3,1.9,4.1,3.4c0.8,1.1,1.6,2.1,2.4,3.2
		c0.1-0.1,0.2-0.2,0.4-0.3C102.7,65,101.3,63.7,100.1,62.4z M106.7,89.8c-2.2-1.6-4.4-1.2-6.7-0.3c0.5,0.1,0.9,0.2,1.4,0.2
		c1.7-0.1,3.1,0.7,4.6,1.5c0.3,0.2,1,0.1,1.2-0.1C107.4,90.6,107.2,90.2,106.7,89.8z M106.7,89.8c-2.2-1.6-4.4-1.2-6.7-0.3
		c0.5,0.1,0.9,0.2,1.4,0.2c1.7-0.1,3.1,0.7,4.6,1.5c0.3,0.2,1,0.1,1.2-0.1C107.4,90.6,107.2,90.2,106.7,89.8z M100.1,62.4
		c-1.3-1.4-2.6-2.8-4.7-2.9c1-0.1,2,0,2.2-1.5c-1,0.3-1.9,0.6-2.7,0.9c-1,0.4-1.9,0.9-2.8,1.4c-0.4,0.2-0.8,0.5-1.3,0.7
		c-0.9,0.5-1.7,1.9-1.6,3.1c0.2-0.3,0.3-0.5,0.4-0.7c2-3,3.4-3.5,6.7-2.8c1.9,0.4,3,1.9,4.1,3.4c0.8,1.1,1.6,2.1,2.4,3.2
		c0.1-0.1,0.2-0.2,0.4-0.3C102.7,65,101.3,63.7,100.1,62.4z M98.9,44.7c-1.5,0.9-2.9,1.8-4.4,2.7c0-0.1-0.1-0.2-0.1-0.2
		c0.2-0.3,0.5-0.7,0.7-1c-0.1-0.1-0.1-0.1-0.2-0.2c-0.6,0.3-1.2,0.7-1.9,1c-0.3,0.1-0.6,0.3-0.8,0.2c-1.9-0.5-4-0.9-5.8-1.7
		c-2.9-1.3-5.9-1.8-9-2c-0.3,0-0.6,0.1-0.9,0.1c0.5,0.3,1.1,0.3,1.6,0.5c2.3,0.5,4.7,1,7,1.6c2.9,0.8,5.6,1.8,8.5,2.7
		c0.4,0.1,1,0.1,1.4,0c0.9-0.4,1.9-0.7,2.2-1.9c0.1-0.4,0.7-0.7,1.1-1c0.2-0.2,0.5-0.3,0.7-0.5C99,44.9,98.9,44.8,98.9,44.7z
		 M94.8,30.5c0.4-0.4,0.9-0.8,1.5-1.4c-1.6,0.1-2.4,1.2-3.3,2c-1.7-1.1-3.3-2.2-5-3.2c-1.2-0.7-2.4-1.4-3.1-2.7
		c-0.2-0.4-0.9-0.7-1.4-0.9c-0.2-0.1-0.7,0.3-0.8,0.6c-0.1,0.2,0.2,0.7,0.4,0.8c0.4,0.3,1,0.6,1.4,0.8c2.3,1.3,4.7,2.4,6.7,4.2
		c0.7,0.7,1.5,1.2,2.4,1.6c0.5,0.2,1.2-0.2,1.8-0.3c-0.1-0.4-0.3-0.8-0.4-1.2C94.9,30.8,94.9,30.7,94.8,30.5z M24.4,89.3
		c-0.6-0.2-1.3-0.3-1.9-0.5c-1.9-0.5-3.5,0-5,1.1c-0.2,0.2-0.3,0.8-0.3,1.1c0,0.2,0.7,0.3,1,0.3c0.4-0.1,0.8-0.4,1.1-0.5
		c0.6-0.3,1.3-0.7,2-0.9c1-0.2,2.1-0.3,3.1-0.4C24.4,89.4,24.4,89.4,24.4,89.3z M24.4,89.3c-0.6-0.2-1.3-0.3-1.9-0.5
		c-1.9-0.5-3.5,0-5,1.1c-0.2,0.2-0.3,0.8-0.3,1.1c0,0.2,0.7,0.3,1,0.3c0.4-0.1,0.8-0.4,1.1-0.5c0.6-0.3,1.3-0.7,2-0.9
		c1-0.2,2.1-0.3,3.1-0.4C24.4,89.4,24.4,89.4,24.4,89.3z M94.8,30.5c0.4-0.4,0.9-0.8,1.5-1.4c-1.6,0.1-2.4,1.2-3.3,2
		c-1.7-1.1-3.3-2.2-5-3.2c-1.2-0.7-2.4-1.4-3.1-2.7c-0.2-0.4-0.9-0.7-1.4-0.9c-0.2-0.1-0.7,0.3-0.8,0.6c-0.1,0.2,0.2,0.7,0.4,0.8
		c0.4,0.3,1,0.6,1.4,0.8c2.3,1.3,4.7,2.4,6.7,4.2c0.7,0.7,1.5,1.2,2.4,1.6c0.5,0.2,1.2-0.2,1.8-0.3c-0.1-0.4-0.3-0.8-0.4-1.2
		C94.9,30.8,94.9,30.7,94.8,30.5z M98.9,44.7c-1.5,0.9-2.9,1.8-4.4,2.7c0-0.1-0.1-0.2-0.1-0.2c0.2-0.3,0.5-0.7,0.7-1
		c-0.1-0.1-0.1-0.1-0.2-0.2c-0.6,0.3-1.2,0.7-1.9,1c-0.3,0.1-0.6,0.3-0.8,0.2c-1.9-0.5-4-0.9-5.8-1.7c-2.9-1.3-5.9-1.8-9-2
		c-0.3,0-0.6,0.1-0.9,0.1c0.5,0.3,1.1,0.3,1.6,0.5c2.3,0.5,4.7,1,7,1.6c2.9,0.8,5.6,1.8,8.5,2.7c0.4,0.1,1,0.1,1.4,0
		c0.9-0.4,1.9-0.7,2.2-1.9c0.1-0.4,0.7-0.7,1.1-1c0.2-0.2,0.5-0.3,0.7-0.5C99,44.9,98.9,44.8,98.9,44.7z M100.1,62.4
		c-1.3-1.4-2.6-2.8-4.7-2.9c1-0.1,2,0,2.2-1.5c-1,0.3-1.9,0.6-2.7,0.9c-1,0.4-1.9,0.9-2.8,1.4c-0.4,0.2-0.8,0.5-1.3,0.7
		c-0.9,0.5-1.7,1.9-1.6,3.1c0.2-0.3,0.3-0.5,0.4-0.7c2-3,3.4-3.5,6.7-2.8c1.9,0.4,3,1.9,4.1,3.4c0.8,1.1,1.6,2.1,2.4,3.2
		c0.1-0.1,0.2-0.2,0.4-0.3C102.7,65,101.3,63.7,100.1,62.4z M106.7,89.8c-2.2-1.6-4.4-1.2-6.7-0.3c0.5,0.1,0.9,0.2,1.4,0.2
		c1.7-0.1,3.1,0.7,4.6,1.5c0.3,0.2,1,0.1,1.2-0.1C107.4,90.6,107.2,90.2,106.7,89.8z M106.7,89.8c-2.2-1.6-4.4-1.2-6.7-0.3
		c0.5,0.1,0.9,0.2,1.4,0.2c1.7-0.1,3.1,0.7,4.6,1.5c0.3,0.2,1,0.1,1.2-0.1C107.4,90.6,107.2,90.2,106.7,89.8z M100.1,62.4
		c-1.3-1.4-2.6-2.8-4.7-2.9c1-0.1,2,0,2.2-1.5c-1,0.3-1.9,0.6-2.7,0.9c-1,0.4-1.9,0.9-2.8,1.4c-0.4,0.2-0.8,0.5-1.3,0.7
		c-0.9,0.5-1.7,1.9-1.6,3.1c0.2-0.3,0.3-0.5,0.4-0.7c2-3,3.4-3.5,6.7-2.8c1.9,0.4,3,1.9,4.1,3.4c0.8,1.1,1.6,2.1,2.4,3.2
		c0.1-0.1,0.2-0.2,0.4-0.3C102.7,65,101.3,63.7,100.1,62.4z M98.9,44.7c-1.5,0.9-2.9,1.8-4.4,2.7c0-0.1-0.1-0.2-0.1-0.2
		c0.2-0.3,0.5-0.7,0.7-1c-0.1-0.1-0.1-0.1-0.2-0.2c-0.6,0.3-1.2,0.7-1.9,1c-0.3,0.1-0.6,0.3-0.8,0.2c-1.9-0.5-4-0.9-5.8-1.7
		c-2.9-1.3-5.9-1.8-9-2c-0.3,0-0.6,0.1-0.9,0.1c0.5,0.3,1.1,0.3,1.6,0.5c2.3,0.5,4.7,1,7,1.6c2.9,0.8,5.6,1.8,8.5,2.7
		c0.4,0.1,1,0.1,1.4,0c0.9-0.4,1.9-0.7,2.2-1.9c0.1-0.4,0.7-0.7,1.1-1c0.2-0.2,0.5-0.3,0.7-0.5C99,44.9,98.9,44.8,98.9,44.7z
		 M94.8,30.5c0.4-0.4,0.9-0.8,1.5-1.4c-1.6,0.1-2.4,1.2-3.3,2c-1.7-1.1-3.3-2.2-5-3.2c-1.2-0.7-2.4-1.4-3.1-2.7
		c-0.2-0.4-0.9-0.7-1.4-0.9c-0.2-0.1-0.7,0.3-0.8,0.6c-0.1,0.2,0.2,0.7,0.4,0.8c0.4,0.3,1,0.6,1.4,0.8c2.3,1.3,4.7,2.4,6.7,4.2
		c0.7,0.7,1.5,1.2,2.4,1.6c0.5,0.2,1.2-0.2,1.8-0.3c-0.1-0.4-0.3-0.8-0.4-1.2C94.9,30.8,94.9,30.7,94.8,30.5z M24.4,89.3
		c-0.6-0.2-1.3-0.3-1.9-0.5c-1.9-0.5-3.5,0-5,1.1c-0.2,0.2-0.3,0.8-0.3,1.1c0,0.2,0.7,0.3,1,0.3c0.4-0.1,0.8-0.4,1.1-0.5
		c0.6-0.3,1.3-0.7,2-0.9c1-0.2,2.1-0.3,3.1-0.4C24.4,89.4,24.4,89.4,24.4,89.3z M24.4,89.3c-0.6-0.2-1.3-0.3-1.9-0.5
		c-1.9-0.5-3.5,0-5,1.1c-0.2,0.2-0.3,0.8-0.3,1.1c0,0.2,0.7,0.3,1,0.3c0.4-0.1,0.8-0.4,1.1-0.5c0.6-0.3,1.3-0.7,2-0.9
		c1-0.2,2.1-0.3,3.1-0.4C24.4,89.4,24.4,89.4,24.4,89.3z M94.8,30.5c0.4-0.4,0.9-0.8,1.5-1.4c-1.6,0.1-2.4,1.2-3.3,2
		c-1.7-1.1-3.3-2.2-5-3.2c-1.2-0.7-2.4-1.4-3.1-2.7c-0.2-0.4-0.9-0.7-1.4-0.9c-0.2-0.1-0.7,0.3-0.8,0.6c-0.1,0.2,0.2,0.7,0.4,0.8
		c0.4,0.3,1,0.6,1.4,0.8c2.3,1.3,4.7,2.4,6.7,4.2c0.7,0.7,1.5,1.2,2.4,1.6c0.5,0.2,1.2-0.2,1.8-0.3c-0.1-0.4-0.3-0.8-0.4-1.2
		C94.9,30.8,94.9,30.7,94.8,30.5z M98.9,44.7c-1.5,0.9-2.9,1.8-4.4,2.7c0-0.1-0.1-0.2-0.1-0.2c0.2-0.3,0.5-0.7,0.7-1
		c-0.1-0.1-0.1-0.1-0.2-0.2c-0.6,0.3-1.2,0.7-1.9,1c-0.3,0.1-0.6,0.3-0.8,0.2c-1.9-0.5-4-0.9-5.8-1.7c-2.9-1.3-5.9-1.8-9-2
		c-0.3,0-0.6,0.1-0.9,0.1c0.5,0.3,1.1,0.3,1.6,0.5c2.3,0.5,4.7,1,7,1.6c2.9,0.8,5.6,1.8,8.5,2.7c0.4,0.1,1,0.1,1.4,0
		c0.9-0.4,1.9-0.7,2.2-1.9c0.1-0.4,0.7-0.7,1.1-1c0.2-0.2,0.5-0.3,0.7-0.5C99,44.9,98.9,44.8,98.9,44.7z M100.1,62.4
		c-1.3-1.4-2.6-2.8-4.7-2.9c1-0.1,2,0,2.2-1.5c-1,0.3-1.9,0.6-2.7,0.9c-1,0.4-1.9,0.9-2.8,1.4c-0.4,0.2-0.8,0.5-1.3,0.7
		c-0.9,0.5-1.7,1.9-1.6,3.1c0.2-0.3,0.3-0.5,0.4-0.7c2-3,3.4-3.5,6.7-2.8c1.9,0.4,3,1.9,4.1,3.4c0.8,1.1,1.6,2.1,2.4,3.2
		c0.1-0.1,0.2-0.2,0.4-0.3C102.7,65,101.3,63.7,100.1,62.4z M106.7,89.8c-2.2-1.6-4.4-1.2-6.7-0.3c0.5,0.1,0.9,0.2,1.4,0.2
		c1.7-0.1,3.1,0.7,4.6,1.5c0.3,0.2,1,0.1,1.2-0.1C107.4,90.6,107.2,90.2,106.7,89.8z M106.7,89.8c-2.2-1.6-4.4-1.2-6.7-0.3
		c0.5,0.1,0.9,0.2,1.4,0.2c1.7-0.1,3.1,0.7,4.6,1.5c0.3,0.2,1,0.1,1.2-0.1C107.4,90.6,107.2,90.2,106.7,89.8z M100.1,62.4
		c-1.3-1.4-2.6-2.8-4.7-2.9c1-0.1,2,0,2.2-1.5c-1,0.3-1.9,0.6-2.7,0.9c-1,0.4-1.9,0.9-2.8,1.4c-0.4,0.2-0.8,0.5-1.3,0.7
		c-0.9,0.5-1.7,1.9-1.6,3.1c0.2-0.3,0.3-0.5,0.4-0.7c2-3,3.4-3.5,6.7-2.8c1.9,0.4,3,1.9,4.1,3.4c0.8,1.1,1.6,2.1,2.4,3.2
		c0.1-0.1,0.2-0.2,0.4-0.3C102.7,65,101.3,63.7,100.1,62.4z M98.9,44.7c-1.5,0.9-2.9,1.8-4.4,2.7c0-0.1-0.1-0.2-0.1-0.2
		c0.2-0.3,0.5-0.7,0.7-1c-0.1-0.1-0.1-0.1-0.2-0.2c-0.6,0.3-1.2,0.7-1.9,1c-0.3,0.1-0.6,0.3-0.8,0.2c-1.9-0.5-4-0.9-5.8-1.7
		c-2.9-1.3-5.9-1.8-9-2c-0.3,0-0.6,0.1-0.9,0.1c0.5,0.3,1.1,0.3,1.6,0.5c2.3,0.5,4.7,1,7,1.6c2.9,0.8,5.6,1.8,8.5,2.7
		c0.4,0.1,1,0.1,1.4,0c0.9-0.4,1.9-0.7,2.2-1.9c0.1-0.4,0.7-0.7,1.1-1c0.2-0.2,0.5-0.3,0.7-0.5C99,44.9,98.9,44.8,98.9,44.7z
		 M94.8,30.5c0.4-0.4,0.9-0.8,1.5-1.4c-1.6,0.1-2.4,1.2-3.3,2c-1.7-1.1-3.3-2.2-5-3.2c-1.2-0.7-2.4-1.4-3.1-2.7
		c-0.2-0.4-0.9-0.7-1.4-0.9c-0.2-0.1-0.7,0.3-0.8,0.6c-0.1,0.2,0.2,0.7,0.4,0.8c0.4,0.3,1,0.6,1.4,0.8c2.3,1.3,4.7,2.4,6.7,4.2
		c0.7,0.7,1.5,1.2,2.4,1.6c0.5,0.2,1.2-0.2,1.8-0.3c-0.1-0.4-0.3-0.8-0.4-1.2C94.9,30.8,94.9,30.7,94.8,30.5z M24.4,89.3
		c-0.6-0.2-1.3-0.3-1.9-0.5c-1.9-0.5-3.5,0-5,1.1c-0.2,0.2-0.3,0.8-0.3,1.1c0,0.2,0.7,0.3,1,0.3c0.4-0.1,0.8-0.4,1.1-0.5
		c0.6-0.3,1.3-0.7,2-0.9c1-0.2,2.1-0.3,3.1-0.4C24.4,89.4,24.4,89.4,24.4,89.3z M24.4,89.3c-0.6-0.2-1.3-0.3-1.9-0.5
		c-1.9-0.5-3.5,0-5,1.1c-0.2,0.2-0.3,0.8-0.3,1.1c0,0.2,0.7,0.3,1,0.3c0.4-0.1,0.8-0.4,1.1-0.5c0.6-0.3,1.3-0.7,2-0.9
		c1-0.2,2.1-0.3,3.1-0.4C24.4,89.4,24.4,89.4,24.4,89.3z M94.8,30.5c0.4-0.4,0.9-0.8,1.5-1.4c-1.6,0.1-2.4,1.2-3.3,2
		c-1.7-1.1-3.3-2.2-5-3.2c-1.2-0.7-2.4-1.4-3.1-2.7c-0.2-0.4-0.9-0.7-1.4-0.9c-0.2-0.1-0.7,0.3-0.8,0.6c-0.1,0.2,0.2,0.7,0.4,0.8
		c0.4,0.3,1,0.6,1.4,0.8c2.3,1.3,4.7,2.4,6.7,4.2c0.7,0.7,1.5,1.2,2.4,1.6c0.5,0.2,1.2-0.2,1.8-0.3c-0.1-0.4-0.3-0.8-0.4-1.2
		C94.9,30.8,94.9,30.7,94.8,30.5z M98.9,44.7c-1.5,0.9-2.9,1.8-4.4,2.7c0-0.1-0.1-0.2-0.1-0.2c0.2-0.3,0.5-0.7,0.7-1
		c-0.1-0.1-0.1-0.1-0.2-0.2c-0.6,0.3-1.2,0.7-1.9,1c-0.3,0.1-0.6,0.3-0.8,0.2c-1.9-0.5-4-0.9-5.8-1.7c-2.9-1.3-5.9-1.8-9-2
		c-0.3,0-0.6,0.1-0.9,0.1c0.5,0.3,1.1,0.3,1.6,0.5c2.3,0.5,4.7,1,7,1.6c2.9,0.8,5.6,1.8,8.5,2.7c0.4,0.1,1,0.1,1.4,0
		c0.9-0.4,1.9-0.7,2.2-1.9c0.1-0.4,0.7-0.7,1.1-1c0.2-0.2,0.5-0.3,0.7-0.5C99,44.9,98.9,44.8,98.9,44.7z M100.1,62.4
		c-1.3-1.4-2.6-2.8-4.7-2.9c1-0.1,2,0,2.2-1.5c-1,0.3-1.9,0.6-2.7,0.9c-1,0.4-1.9,0.9-2.8,1.4c-0.4,0.2-0.8,0.5-1.3,0.7
		c-0.9,0.5-1.7,1.9-1.6,3.1c0.2-0.3,0.3-0.5,0.4-0.7c2-3,3.4-3.5,6.7-2.8c1.9,0.4,3,1.9,4.1,3.4c0.8,1.1,1.6,2.1,2.4,3.2
		c0.1-0.1,0.2-0.2,0.4-0.3C102.7,65,101.3,63.7,100.1,62.4z M106.7,89.8c-2.2-1.6-4.4-1.2-6.7-0.3c0.5,0.1,0.9,0.2,1.4,0.2
		c1.7-0.1,3.1,0.7,4.6,1.5c0.3,0.2,1,0.1,1.2-0.1C107.4,90.6,107.2,90.2,106.7,89.8z M106.7,89.8c-2.2-1.6-4.4-1.2-6.7-0.3
		c0.5,0.1,0.9,0.2,1.4,0.2c1.7-0.1,3.1,0.7,4.6,1.5c0.3,0.2,1,0.1,1.2-0.1C107.4,90.6,107.2,90.2,106.7,89.8z M100.1,62.4
		c-1.3-1.4-2.6-2.8-4.7-2.9c1-0.1,2,0,2.2-1.5c-1,0.3-1.9,0.6-2.7,0.9c-1,0.4-1.9,0.9-2.8,1.4c-0.4,0.2-0.8,0.5-1.3,0.7
		c-0.9,0.5-1.7,1.9-1.6,3.1c0.2-0.3,0.3-0.5,0.4-0.7c2-3,3.4-3.5,6.7-2.8c1.9,0.4,3,1.9,4.1,3.4c0.8,1.1,1.6,2.1,2.4,3.2
		c0.1-0.1,0.2-0.2,0.4-0.3C102.7,65,101.3,63.7,100.1,62.4z M98.9,44.7c-1.5,0.9-2.9,1.8-4.4,2.7c0-0.1-0.1-0.2-0.1-0.2
		c0.2-0.3,0.5-0.7,0.7-1c-0.1-0.1-0.1-0.1-0.2-0.2c-0.6,0.3-1.2,0.7-1.9,1c-0.3,0.1-0.6,0.3-0.8,0.2c-1.9-0.5-4-0.9-5.8-1.7
		c-2.9-1.3-5.9-1.8-9-2c-0.3,0-0.6,0.1-0.9,0.1c0.5,0.3,1.1,0.3,1.6,0.5c2.3,0.5,4.7,1,7,1.6c2.9,0.8,5.6,1.8,8.5,2.7
		c0.4,0.1,1,0.1,1.4,0c0.9-0.4,1.9-0.7,2.2-1.9c0.1-0.4,0.7-0.7,1.1-1c0.2-0.2,0.5-0.3,0.7-0.5C99,44.9,98.9,44.8,98.9,44.7z
		 M94.8,30.5c0.4-0.4,0.9-0.8,1.5-1.4c-1.6,0.1-2.4,1.2-3.3,2c-1.7-1.1-3.3-2.2-5-3.2c-1.2-0.7-2.4-1.4-3.1-2.7
		c-0.2-0.4-0.9-0.7-1.4-0.9c-0.2-0.1-0.7,0.3-0.8,0.6c-0.1,0.2,0.2,0.7,0.4,0.8c0.4,0.3,1,0.6,1.4,0.8c2.3,1.3,4.7,2.4,6.7,4.2
		c0.7,0.7,1.5,1.2,2.4,1.6c0.5,0.2,1.2-0.2,1.8-0.3c-0.1-0.4-0.3-0.8-0.4-1.2C94.9,30.8,94.9,30.7,94.8,30.5z M24.4,89.3
		c-0.6-0.2-1.3-0.3-1.9-0.5c-1.9-0.5-3.5,0-5,1.1c-0.2,0.2-0.3,0.8-0.3,1.1c0,0.2,0.7,0.3,1,0.3c0.4-0.1,0.8-0.4,1.1-0.5
		c0.6-0.3,1.3-0.7,2-0.9c1-0.2,2.1-0.3,3.1-0.4C24.4,89.4,24.4,89.4,24.4,89.3z M24.4,89.3c-0.6-0.2-1.3-0.3-1.9-0.5
		c-1.9-0.5-3.5,0-5,1.1c-0.2,0.2-0.3,0.8-0.3,1.1c0,0.2,0.7,0.3,1,0.3c0.4-0.1,0.8-0.4,1.1-0.5c0.6-0.3,1.3-0.7,2-0.9
		c1-0.2,2.1-0.3,3.1-0.4C24.4,89.4,24.4,89.4,24.4,89.3z M94.8,30.5c0.4-0.4,0.9-0.8,1.5-1.4c-1.6,0.1-2.4,1.2-3.3,2
		c-1.7-1.1-3.3-2.2-5-3.2c-1.2-0.7-2.4-1.4-3.1-2.7c-0.2-0.4-0.9-0.7-1.4-0.9c-0.2-0.1-0.7,0.3-0.8,0.6c-0.1,0.2,0.2,0.7,0.4,0.8
		c0.4,0.3,1,0.6,1.4,0.8c2.3,1.3,4.7,2.4,6.7,4.2c0.7,0.7,1.5,1.2,2.4,1.6c0.5,0.2,1.2-0.2,1.8-0.3c-0.1-0.4-0.3-0.8-0.4-1.2
		C94.9,30.8,94.9,30.7,94.8,30.5z M98.9,44.7c-1.5,0.9-2.9,1.8-4.4,2.7c0-0.1-0.1-0.2-0.1-0.2c0.2-0.3,0.5-0.7,0.7-1
		c-0.1-0.1-0.1-0.1-0.2-0.2c-0.6,0.3-1.2,0.7-1.9,1c-0.3,0.1-0.6,0.3-0.8,0.2c-1.9-0.5-4-0.9-5.8-1.7c-2.9-1.3-5.9-1.8-9-2
		c-0.3,0-0.6,0.1-0.9,0.1c0.5,0.3,1.1,0.3,1.6,0.5c2.3,0.5,4.7,1,7,1.6c2.9,0.8,5.6,1.8,8.5,2.7c0.4,0.1,1,0.1,1.4,0
		c0.9-0.4,1.9-0.7,2.2-1.9c0.1-0.4,0.7-0.7,1.1-1c0.2-0.2,0.5-0.3,0.7-0.5C99,44.9,98.9,44.8,98.9,44.7z M100.1,62.4
		c-1.3-1.4-2.6-2.8-4.7-2.9c1-0.1,2,0,2.2-1.5c-1,0.3-1.9,0.6-2.7,0.9c-1,0.4-1.9,0.9-2.8,1.4c-0.4,0.2-0.8,0.5-1.3,0.7
		c-0.9,0.5-1.7,1.9-1.6,3.1c0.2-0.3,0.3-0.5,0.4-0.7c2-3,3.4-3.5,6.7-2.8c1.9,0.4,3,1.9,4.1,3.4c0.8,1.1,1.6,2.1,2.4,3.2
		c0.1-0.1,0.2-0.2,0.4-0.3C102.7,65,101.3,63.7,100.1,62.4z M106.7,89.8c-2.2-1.6-4.4-1.2-6.7-0.3c0.5,0.1,0.9,0.2,1.4,0.2
		c1.7-0.1,3.1,0.7,4.6,1.5c0.3,0.2,1,0.1,1.2-0.1C107.4,90.6,107.2,90.2,106.7,89.8z M106.7,89.8c-2.2-1.6-4.4-1.2-6.7-0.3
		c0.5,0.1,0.9,0.2,1.4,0.2c1.7-0.1,3.1,0.7,4.6,1.5c0.3,0.2,1,0.1,1.2-0.1C107.4,90.6,107.2,90.2,106.7,89.8z M100.1,62.4
		c-1.3-1.4-2.6-2.8-4.7-2.9c1-0.1,2,0,2.2-1.5c-1,0.3-1.9,0.6-2.7,0.9c-1,0.4-1.9,0.9-2.8,1.4c-0.4,0.2-0.8,0.5-1.3,0.7
		c-0.9,0.5-1.7,1.9-1.6,3.1c0.2-0.3,0.3-0.5,0.4-0.7c2-3,3.4-3.5,6.7-2.8c1.9,0.4,3,1.9,4.1,3.4c0.8,1.1,1.6,2.1,2.4,3.2
		c0.1-0.1,0.2-0.2,0.4-0.3C102.7,65,101.3,63.7,100.1,62.4z M98.9,44.7c-1.5,0.9-2.9,1.8-4.4,2.7c0-0.1-0.1-0.2-0.1-0.2
		c0.2-0.3,0.5-0.7,0.7-1c-0.1-0.1-0.1-0.1-0.2-0.2c-0.6,0.3-1.2,0.7-1.9,1c-0.3,0.1-0.6,0.3-0.8,0.2c-1.9-0.5-4-0.9-5.8-1.7
		c-2.9-1.3-5.9-1.8-9-2c-0.3,0-0.6,0.1-0.9,0.1c0.5,0.3,1.1,0.3,1.6,0.5c2.3,0.5,4.7,1,7,1.6c2.9,0.8,5.6,1.8,8.5,2.7
		c0.4,0.1,1,0.1,1.4,0c0.9-0.4,1.9-0.7,2.2-1.9c0.1-0.4,0.7-0.7,1.1-1c0.2-0.2,0.5-0.3,0.7-0.5C99,44.9,98.9,44.8,98.9,44.7z
		 M94.8,30.5c0.4-0.4,0.9-0.8,1.5-1.4c-1.6,0.1-2.4,1.2-3.3,2c-1.7-1.1-3.3-2.2-5-3.2c-1.2-0.7-2.4-1.4-3.1-2.7
		c-0.2-0.4-0.9-0.7-1.4-0.9c-0.2-0.1-0.7,0.3-0.8,0.6c-0.1,0.2,0.2,0.7,0.4,0.8c0.4,0.3,1,0.6,1.4,0.8c2.3,1.3,4.7,2.4,6.7,4.2
		c0.7,0.7,1.5,1.2,2.4,1.6c0.5,0.2,1.2-0.2,1.8-0.3c-0.1-0.4-0.3-0.8-0.4-1.2C94.9,30.8,94.9,30.7,94.8,30.5z M24.4,89.3
		c-0.6-0.2-1.3-0.3-1.9-0.5c-1.9-0.5-3.5,0-5,1.1c-0.2,0.2-0.3,0.8-0.3,1.1c0,0.2,0.7,0.3,1,0.3c0.4-0.1,0.8-0.4,1.1-0.5
		c0.6-0.3,1.3-0.7,2-0.9c1-0.2,2.1-0.3,3.1-0.4C24.4,89.4,24.4,89.4,24.4,89.3z M94.8,30.5c0.4-0.4,0.9-0.8,1.5-1.4
		c-1.6,0.1-2.4,1.2-3.3,2c-1.7-1.1-3.3-2.2-5-3.2c-1.2-0.7-2.4-1.4-3.1-2.7c-0.2-0.4-0.9-0.7-1.4-0.9c-0.2-0.1-0.7,0.3-0.8,0.6
		c-0.1,0.2,0.2,0.7,0.4,0.8c0.4,0.3,1,0.6,1.4,0.8c2.3,1.3,4.7,2.4,6.7,4.2c0.7,0.7,1.5,1.2,2.4,1.6c0.5,0.2,1.2-0.2,1.8-0.3
		c-0.1-0.4-0.3-0.8-0.4-1.2C94.9,30.8,94.9,30.7,94.8,30.5z M98.9,44.7c-1.5,0.9-2.9,1.8-4.4,2.7c0-0.1-0.1-0.2-0.1-0.2
		c0.2-0.3,0.5-0.7,0.7-1c-0.1-0.1-0.1-0.1-0.2-0.2c-0.6,0.3-1.2,0.7-1.9,1c-0.3,0.1-0.6,0.3-0.8,0.2c-1.9-0.5-4-0.9-5.8-1.7
		c-2.9-1.3-5.9-1.8-9-2c-0.3,0-0.6,0.1-0.9,0.1c0.5,0.3,1.1,0.3,1.6,0.5c2.3,0.5,4.7,1,7,1.6c2.9,0.8,5.6,1.8,8.5,2.7
		c0.4,0.1,1,0.1,1.4,0c0.9-0.4,1.9-0.7,2.2-1.9c0.1-0.4,0.7-0.7,1.1-1c0.2-0.2,0.5-0.3,0.7-0.5C99,44.9,98.9,44.8,98.9,44.7z
		 M100.1,62.4c-1.3-1.4-2.6-2.8-4.7-2.9c1-0.1,2,0,2.2-1.5c-1,0.3-1.9,0.6-2.7,0.9c-1,0.4-1.9,0.9-2.8,1.4c-0.4,0.2-0.8,0.5-1.3,0.7
		c-0.9,0.5-1.7,1.9-1.6,3.1c0.2-0.3,0.3-0.5,0.4-0.7c2-3,3.4-3.5,6.7-2.8c1.9,0.4,3,1.9,4.1,3.4c0.8,1.1,1.6,2.1,2.4,3.2
		c0.1-0.1,0.2-0.2,0.4-0.3C102.7,65,101.3,63.7,100.1,62.4z M106.7,89.8c-2.2-1.6-4.4-1.2-6.7-0.3c0.5,0.1,0.9,0.2,1.4,0.2
		c1.7-0.1,3.1,0.7,4.6,1.5c0.3,0.2,1,0.1,1.2-0.1C107.4,90.6,107.2,90.2,106.7,89.8z M106.7,89.8c-2.2-1.6-4.4-1.2-6.7-0.3
		c0.5,0.1,0.9,0.2,1.4,0.2c1.7-0.1,3.1,0.7,4.6,1.5c0.3,0.2,1,0.1,1.2-0.1C107.4,90.6,107.2,90.2,106.7,89.8z M100.1,62.4
		c-1.3-1.4-2.6-2.8-4.7-2.9c1-0.1,2,0,2.2-1.5c-1,0.3-1.9,0.6-2.7,0.9c-1,0.4-1.9,0.9-2.8,1.4c-0.4,0.2-0.8,0.5-1.3,0.7
		c-0.9,0.5-1.7,1.9-1.6,3.1c0.2-0.3,0.3-0.5,0.4-0.7c2-3,3.4-3.5,6.7-2.8c1.9,0.4,3,1.9,4.1,3.4c0.8,1.1,1.6,2.1,2.4,3.2
		c0.1-0.1,0.2-0.2,0.4-0.3C102.7,65,101.3,63.7,100.1,62.4z M98.9,44.7c-1.5,0.9-2.9,1.8-4.4,2.7c0-0.1-0.1-0.2-0.1-0.2
		c0.2-0.3,0.5-0.7,0.7-1c-0.1-0.1-0.1-0.1-0.2-0.2c-0.6,0.3-1.2,0.7-1.9,1c-0.3,0.1-0.6,0.3-0.8,0.2c-1.9-0.5-4-0.9-5.8-1.7
		c-2.9-1.3-5.9-1.8-9-2c-0.3,0-0.6,0.1-0.9,0.1c0.5,0.3,1.1,0.3,1.6,0.5c2.3,0.5,4.7,1,7,1.6c2.9,0.8,5.6,1.8,8.5,2.7
		c0.4,0.1,1,0.1,1.4,0c0.9-0.4,1.9-0.7,2.2-1.9c0.1-0.4,0.7-0.7,1.1-1c0.2-0.2,0.5-0.3,0.7-0.5C99,44.9,98.9,44.8,98.9,44.7z
		 M94.8,30.5c0.4-0.4,0.9-0.8,1.5-1.4c-1.6,0.1-2.4,1.2-3.3,2c-1.7-1.1-3.3-2.2-5-3.2c-1.2-0.7-2.4-1.4-3.1-2.7
		c-0.2-0.4-0.9-0.7-1.4-0.9c-0.2-0.1-0.7,0.3-0.8,0.6c-0.1,0.2,0.2,0.7,0.4,0.8c0.4,0.3,1,0.6,1.4,0.8c2.3,1.3,4.7,2.4,6.7,4.2
		c0.7,0.7,1.5,1.2,2.4,1.6c0.5,0.2,1.2-0.2,1.8-0.3c-0.1-0.4-0.3-0.8-0.4-1.2C94.9,30.8,94.9,30.7,94.8,30.5z M94.8,30.5
		c0.4-0.4,0.9-0.8,1.5-1.4c-1.6,0.1-2.4,1.2-3.3,2c-1.7-1.1-3.3-2.2-5-3.2c-1.2-0.7-2.4-1.4-3.1-2.7c-0.2-0.4-0.9-0.7-1.4-0.9
		c-0.2-0.1-0.7,0.3-0.8,0.6c-0.1,0.2,0.2,0.7,0.4,0.8c0.4,0.3,1,0.6,1.4,0.8c2.3,1.3,4.7,2.4,6.7,4.2c0.7,0.7,1.5,1.2,2.4,1.6
		c0.5,0.2,1.2-0.2,1.8-0.3c-0.1-0.4-0.3-0.8-0.4-1.2C94.9,30.8,94.9,30.7,94.8,30.5z M98.9,44.7c-1.5,0.9-2.9,1.8-4.4,2.7
		c0-0.1-0.1-0.2-0.1-0.2c0.2-0.3,0.5-0.7,0.7-1c-0.1-0.1-0.1-0.1-0.2-0.2c-0.6,0.3-1.2,0.7-1.9,1c-0.3,0.1-0.6,0.3-0.8,0.2
		c-1.9-0.5-4-0.9-5.8-1.7c-2.9-1.3-5.9-1.8-9-2c-0.3,0-0.6,0.1-0.9,0.1c0.5,0.3,1.1,0.3,1.6,0.5c2.3,0.5,4.7,1,7,1.6
		c2.9,0.8,5.6,1.8,8.5,2.7c0.4,0.1,1,0.1,1.4,0c0.9-0.4,1.9-0.7,2.2-1.9c0.1-0.4,0.7-0.7,1.1-1c0.2-0.2,0.5-0.3,0.7-0.5
		C99,44.9,98.9,44.8,98.9,44.7z M100.1,62.4c-1.3-1.4-2.6-2.8-4.7-2.9c1-0.1,2,0,2.2-1.5c-1,0.3-1.9,0.6-2.7,0.9
		c-1,0.4-1.9,0.9-2.8,1.4c-0.4,0.2-0.8,0.5-1.3,0.7c-0.9,0.5-1.7,1.9-1.6,3.1c0.2-0.3,0.3-0.5,0.4-0.7c2-3,3.4-3.5,6.7-2.8
		c1.9,0.4,3,1.9,4.1,3.4c0.8,1.1,1.6,2.1,2.4,3.2c0.1-0.1,0.2-0.2,0.4-0.3C102.7,65,101.3,63.7,100.1,62.4z M100.1,62.4
		c-1.3-1.4-2.6-2.8-4.7-2.9c1-0.1,2,0,2.2-1.5c-1,0.3-1.9,0.6-2.7,0.9c-1,0.4-1.9,0.9-2.8,1.4c-0.4,0.2-0.8,0.5-1.3,0.7
		c-0.9,0.5-1.7,1.9-1.6,3.1c0.2-0.3,0.3-0.5,0.4-0.7c2-3,3.4-3.5,6.7-2.8c1.9,0.4,3,1.9,4.1,3.4c0.8,1.1,1.6,2.1,2.4,3.2
		c0.1-0.1,0.2-0.2,0.4-0.3C102.7,65,101.3,63.7,100.1,62.4z M98.9,44.7c-1.5,0.9-2.9,1.8-4.4,2.7c0-0.1-0.1-0.2-0.1-0.2
		c0.2-0.3,0.5-0.7,0.7-1c-0.1-0.1-0.1-0.1-0.2-0.2c-0.6,0.3-1.2,0.7-1.9,1c-0.3,0.1-0.6,0.3-0.8,0.2c-1.9-0.5-4-0.9-5.8-1.7
		c-2.9-1.3-5.9-1.8-9-2c-0.3,0-0.6,0.1-0.9,0.1c0.5,0.3,1.1,0.3,1.6,0.5c2.3,0.5,4.7,1,7,1.6c2.9,0.8,5.6,1.8,8.5,2.7
		c0.4,0.1,1,0.1,1.4,0c0.9-0.4,1.9-0.7,2.2-1.9c0.1-0.4,0.7-0.7,1.1-1c0.2-0.2,0.5-0.3,0.7-0.5C99,44.9,98.9,44.8,98.9,44.7z
		 M94.8,30.5c0.4-0.4,0.9-0.8,1.5-1.4c-1.6,0.1-2.4,1.2-3.3,2c-1.7-1.1-3.3-2.2-5-3.2c-1.2-0.7-2.4-1.4-3.1-2.7
		c-0.2-0.4-0.9-0.7-1.4-0.9c-0.2-0.1-0.7,0.3-0.8,0.6c-0.1,0.2,0.2,0.7,0.4,0.8c0.4,0.3,1,0.6,1.4,0.8c2.3,1.3,4.7,2.4,6.7,4.2
		c0.7,0.7,1.5,1.2,2.4,1.6c0.5,0.2,1.2-0.2,1.8-0.3c-0.1-0.4-0.3-0.8-0.4-1.2C94.9,30.8,94.9,30.7,94.8,30.5z M94.8,30.5
		c0.4-0.4,0.9-0.8,1.5-1.4c-1.6,0.1-2.4,1.2-3.3,2c-1.7-1.1-3.3-2.2-5-3.2c-1.2-0.7-2.4-1.4-3.1-2.7c-0.2-0.4-0.9-0.7-1.4-0.9
		c-0.2-0.1-0.7,0.3-0.8,0.6c-0.1,0.2,0.2,0.7,0.4,0.8c0.4,0.3,1,0.6,1.4,0.8c2.3,1.3,4.7,2.4,6.7,4.2c0.7,0.7,1.5,1.2,2.4,1.6
		c0.5,0.2,1.2-0.2,1.8-0.3c-0.1-0.4-0.3-0.8-0.4-1.2C94.9,30.8,94.9,30.7,94.8,30.5z M98.9,44.7c-1.5,0.9-2.9,1.8-4.4,2.7
		c0-0.1-0.1-0.2-0.1-0.2c0.2-0.3,0.5-0.7,0.7-1c-0.1-0.1-0.1-0.1-0.2-0.2c-0.6,0.3-1.2,0.7-1.9,1c-0.3,0.1-0.6,0.3-0.8,0.2
		c-1.9-0.5-4-0.9-5.8-1.7c-2.9-1.3-5.9-1.8-9-2c-0.3,0-0.6,0.1-0.9,0.1c0.5,0.3,1.1,0.3,1.6,0.5c2.3,0.5,4.7,1,7,1.6
		c2.9,0.8,5.6,1.8,8.5,2.7c0.4,0.1,1,0.1,1.4,0c0.9-0.4,1.9-0.7,2.2-1.9c0.1-0.4,0.7-0.7,1.1-1c0.2-0.2,0.5-0.3,0.7-0.5
		C99,44.9,98.9,44.8,98.9,44.7z M100.1,62.4c-1.3-1.4-2.6-2.8-4.7-2.9c1-0.1,2,0,2.2-1.5c-1,0.3-1.9,0.6-2.7,0.9
		c-1,0.4-1.9,0.9-2.8,1.4c-0.4,0.2-0.8,0.5-1.3,0.7c-0.9,0.5-1.7,1.9-1.6,3.1c0.2-0.3,0.3-0.5,0.4-0.7c2-3,3.4-3.5,6.7-2.8
		c1.9,0.4,3,1.9,4.1,3.4c0.8,1.1,1.6,2.1,2.4,3.2c0.1-0.1,0.2-0.2,0.4-0.3C102.7,65,101.3,63.7,100.1,62.4z M100.1,62.4
		c-1.3-1.4-2.6-2.8-4.7-2.9c1-0.1,2,0,2.2-1.5c-1,0.3-1.9,0.6-2.7,0.9c-1,0.4-1.9,0.9-2.8,1.4c-0.4,0.2-0.8,0.5-1.3,0.7
		c-0.9,0.5-1.7,1.9-1.6,3.1c0.2-0.3,0.3-0.5,0.4-0.7c2-3,3.4-3.5,6.7-2.8c1.9,0.4,3,1.9,4.1,3.4c0.8,1.1,1.6,2.1,2.4,3.2
		c0.1-0.1,0.2-0.2,0.4-0.3C102.7,65,101.3,63.7,100.1,62.4z M98.9,44.7c-1.5,0.9-2.9,1.8-4.4,2.7c0-0.1-0.1-0.2-0.1-0.2
		c0.2-0.3,0.5-0.7,0.7-1c-0.1-0.1-0.1-0.1-0.2-0.2c-0.6,0.3-1.2,0.7-1.9,1c-0.3,0.1-0.6,0.3-0.8,0.2c-1.9-0.5-4-0.9-5.8-1.7
		c-2.9-1.3-5.9-1.8-9-2c-0.3,0-0.6,0.1-0.9,0.1c0.5,0.3,1.1,0.3,1.6,0.5c2.3,0.5,4.7,1,7,1.6c2.9,0.8,5.6,1.8,8.5,2.7
		c0.4,0.1,1,0.1,1.4,0c0.9-0.4,1.9-0.7,2.2-1.9c0.1-0.4,0.7-0.7,1.1-1c0.2-0.2,0.5-0.3,0.7-0.5C99,44.9,98.9,44.8,98.9,44.7z
		 M94.8,30.5c0.4-0.4,0.9-0.8,1.5-1.4c-1.6,0.1-2.4,1.2-3.3,2c-1.7-1.1-3.3-2.2-5-3.2c-1.2-0.7-2.4-1.4-3.1-2.7
		c-0.2-0.4-0.9-0.7-1.4-0.9c-0.2-0.1-0.7,0.3-0.8,0.6c-0.1,0.2,0.2,0.7,0.4,0.8c0.4,0.3,1,0.6,1.4,0.8c2.3,1.3,4.7,2.4,6.7,4.2
		c0.7,0.7,1.5,1.2,2.4,1.6c0.5,0.2,1.2-0.2,1.8-0.3c-0.1-0.4-0.3-0.8-0.4-1.2C94.9,30.8,94.9,30.7,94.8,30.5z"/>
</g>
</svg>
