<!--
graphic and web design by d/sci/gn
www.dscign.com
-->
<svg xmlns="http://www.w3.org/2000/svg" width="124.4px" height="100px" viewBox="0 0 124.4 100">
<style type="text/css">
	.st0{fill:#FF6633;}
</style>
<path class="st0" d="M33.7,61.1c-0.6-0.4-1.2-0.9-1.9-1.2c-1.6-0.7-3.3-1.3-5-2c0.3,1.3,0.4,1.3,2.4,1.6c-3.1,0.3-8.2,5.3-7.8,7.7
c0.5-0.7,1-1.2,1.5-1.8c1.2-1.4,2.3-2.9,3.7-4.1c1.6-1.4,4.6-1.3,6.3,0.1c0.8,0.7,1.5,1.6,2.2,2.4C35.1,62.9,34.4,61.6,33.7,61.1z"
/>
<path class="st0" d="M38.8,27.1c0.8-0.6,1.8-1,2.6-1.5c0.2-0.1,0.5-0.6,0.4-0.8c-0.1-0.3-0.6-0.6-0.8-0.6c-0.5,0.2-1,0.4-1.4,0.8
c-0.5,0.5-0.8,1.2-1.3,1.6c-2.3,1.5-4.6,2.8-6.9,4.3c-2.5-1.9-2.5-1.9-3.3-1.8c0.2,0.1,0.3,0.2,0.4,0.3c0.6,0.5,1.5,0.9,0.5,1.8
c-0.2,0.1,0.1,1,0.3,1c0.6,0.2,1.2,0.2,1.7,0c0.7-0.2,1.3-0.8,1.9-1.2C34.8,29.8,36.7,28.5,38.8,27.1z"/>
<path class="st0" d="M32.8,47c-0.5,0.1-1.2,0-1.7-0.2c-0.6-0.2-1.1-0.6-1.7-0.9c0,0.1-0.1,0.1-0.1,0.2c0.2,0.4,0.5,0.7,0.7,1.1
c-0.1,0.1-0.1,0.1-0.2,0.2c-1.4-0.9-2.9-1.8-4.3-2.7c0,0.1-0.1,0.1-0.1,0.2c0.1,0.1,0.1,0.2,0.2,0.3c0.8,0.5,1.5,1,1.9,2
c0.3,0.7,2.3,1.4,3.1,1.2c2.6-0.8,5.1-1.6,7.7-2.4c2.3-0.6,4.5-1.2,6.8-1.7c0.8-0.2,1.7-0.3,2.6-0.4c0-0.1,0-0.2,0-0.3
c-0.3,0-0.6,0-0.9,0c-1.7,0.2-3.5,0.3-5.1,0.7C38.7,45.1,35.8,46.2,32.8,47z"/>
<path class="st0" d="M97.6,58c-1,0.3-1.9,0.6-2.7,0.9c-1,0.4-1.9,0.9-2.8,1.4c-0.4,0.2-0.8,0.5-1.3,0.7c-0.9,0.5-1.7,1.9-1.6,3.1
c0.2-0.3,0.3-0.5,0.4-0.7c2-3,3.4-3.5,6.7-2.8c1.9,0.4,3,1.9,4.1,3.4c0.8,1.1,1.6,2.1,2.4,3.2c0.1-0.1,0.2-0.2,0.4-0.3
c-0.4-1.9-1.8-3.2-3-4.5c-1.3-1.4-2.6-2.8-4.7-2.9C96.4,59.4,97.4,59.5,97.6,58z"/>
<path class="st0" d="M83.1,25.7c0.1,0.1,0.2,0.1,0.3,0.2c0.3,0.3,0.8,0.4,1.2,0.7c2.3,1.3,4.7,2.4,6.7,4.2c0.7,0.7,1.5,1.2,2.4,1.6
c0.5,0.2,1.2-0.2,1.8-0.3c-0.1-0.4-0.3-0.8-0.4-1.2c0-0.1-0.1-0.2-0.2-0.4c0.4-0.4,0.9-0.8,1.5-1.4c0,0-0.1,0-0.1,0c0,0,0,0,0,0
c-1.6,0.1-2.4,1.2-3.3,2c-1.7-1.1-3.3-2.2-4.9-3.2c-1.2-0.7-2.4-1.4-3.1-2.7c-0.2-0.4-0.9-0.7-1.4-0.9c0,0-0.1,0-0.1,0c0,0,0,0,0,0
c-0.2-0.1-0.7,0.3-0.8,0.6C82.6,25.1,82.9,25.6,83.1,25.7z"/>
<path class="st0" d="M123.9,52c-0.7-1.4-1-3-1.3-4.6c-0.4-2.2-1.5-4.2-2.9-5.9c-0.8-0.9-0.9-1.4-0.5-2.4c1-2.6,0.3-5-1.9-6.5
c-1.6-1.1-3-2.5-4-4.2c-1.2-1.9-2.6-3.5-4.5-4.6c-1-0.6-1.7-1.5-2-2.6c-0.2-0.8-0.5-1.6-1-2.2c-1.9-2.5-3.7-5.2-6.1-7.2
c-0.5-0.4-1.1-0.9-1.4-1.5c-2-3.9-5.5-6-9.6-7.3c-3.3-1-6.6-1.7-10-2.1c-2.9-0.4-5.8-1-8.8-0.8c-3,0.2-5.5,1.1-6.6,4.3
c-0.2,0.5-0.4,0.9-0.7,1.3c-0.1,0.2-0.2,0.7-0.5,0.6c-0.3,0-0.4-0.4-0.5-0.7c-0.3-0.7-0.7-1.4-1-2.1c-0.7-1.5-1.8-2.5-3.4-3
c-1-0.3-2.1-0.5-3.1-0.5c-2.3-0.1-4.6,0.3-6.9,0.6c-4.5,0.6-8.9,1.3-13.1,2.9c-3.5,1.3-6.3,3.4-8,6.7c-0.2,0.3-0.4,0.6-0.7,0.8
c-2.8,2.3-5,5.2-7,8.1c-0.4,0.5-0.7,1.1-0.8,1.7c-0.3,1.4-1.2,2.3-2.3,3c-2,1.3-3.5,3-4.7,5c-0.8,1.4-1.9,2.5-3.2,3.4
c-2.9,2-3.6,4.1-2.2,7.4c0.2,0.5,0.2,0.9-0.2,1.3c-1.2,1.3-2.1,2.8-2.8,4.4c-0.9,2.2-1,4.6-2,6.8c-0.7,1.7-0.5,3.4,0.5,5
C1.2,58,1.6,58.9,1.5,60c-0.1,1.2,0,2.4,0.6,3.5c0.4,0.7,0.4,1.4,0.3,2.1c-0.2,1-0.3,2-0.4,3c-0.3,2.1,0.2,3.9,1.9,5.2
c0.8,0.5,0.9,1,0.6,1.8c-0.9,2.9-0.8,5.7,1.5,8c0.4,0.4,0.5,1,0.3,1.6c-0.3,1.4-0.4,2.7-0.1,4.1c1,5.3,6.5,9.3,11,10.3
c3.2,0.7,6.5-0.6,9.8,0.2c0.1,0,0.2,0,0.3,0c3.1-0.6,5.8-2.1,8.4-3.7c0.5-0.3,0.9-0.5,1.4-0.7c2.1-0.6,4-1.7,5.3-3.6
c0.3-0.4,0.7-0.7,1.1-1c1.5-1,3.1-0.7,4.8-0.3c3,0.8,5.5,0.2,7.5-2.3c0.1-0.2,0.3-0.4,0.5-0.5c1.9-1.5,2.9-3.5,3.4-5.8
c0.4-1.9,0.6-3.9,1.6-5.7c0.5-1,0.6-2.2,0.6-3.4c0-0.4-0.1-0.8,0.3-1.2c0.1,2.4,0.7,4.8,1.8,6.9c0.1,0.2,0.1,0.4,0.1,0.6
c0.4,3.4,1.3,6.6,4.2,8.8c0.1,0.1,0.2,0.2,0.3,0.4c0.9,1.3,2.1,1.9,3.6,2.3c1.5,0.4,3,0.1,4.4-0.4c2.2-0.6,4-0.1,5.4,1.7
c1.3,1.6,3,2.7,5.1,3.3c0.4,0.1,0.8,0.2,1.1,0.4c1.8,1.3,3.7,2.2,5.7,3c1.3,0.6,2.6,1.1,4,1c2-0.2,3.9-0.3,6,0
c2.9,0.4,5.4-0.7,7.9-2.1c3.9-2.3,7.6-7.1,6.1-12.4c-0.2-0.7,0-1.3,0.5-1.8c1-1.1,1.5-2.3,1.8-3.8c0.2-1.5-0.2-2.9-0.6-4.3
c-0.2-0.7-0.1-1,0.5-1.4c0.8-0.5,1.4-1.2,1.7-2.1c0.6-1.3,0.6-2.7,0.3-4.1c-0.4-1.6-0.7-3.2,0.2-4.8c0.5-0.8,0.7-1.8,0.5-2.8
c-0.3-1.2,0.2-2.2,0.8-3.3C124.4,55.5,124.7,53.8,123.9,52z M46.9,5.4c0.2-0.2,0.3-0.5,0.6-0.7c3.5-2.3,8-2.4,11.1,0.5
c2.4,2.3,2.8,5.2,2.3,8.5c-0.3-0.2-0.6-0.3-0.7-0.5c-2.2-2.7-5.1-4.1-8.3-5c-1.5-0.5-3.1-1-4.6-1.6C46.6,6.4,46.5,6,46.9,5.4z
M33.6,4.3C35.3,3.8,37,3,38.8,2.8c1.3-0.2,2.8,0.1,3.6,1.4C42.9,5,42.4,6,41.5,6c-2.6-0.1-5.2,0.1-7.7-0.6
c-0.3-0.1-0.6-0.2-1.2-0.5C33.1,4.7,33.3,4.4,33.6,4.3z M30.2,9.1c0.2-0.3,0.7-0.4,1-0.7c0,0.4,0.2,0.8,0.1,1.1
c-0.7,2-1,3.9-0.5,6.1c-0.5,0-1.1,0.1-1.4-0.1c-0.4-0.2-0.9-0.7-0.9-1.1C28.5,12.5,29,10.7,30.2,9.1z M19.6,23.2c0,0.6,0,1.2,0,1.8
c-0.1,1.4-0.6,2-2,2.3c-1.3,0.3-2.6,0.7-4,1.1C14.1,25.6,17.1,23.1,19.6,23.2z M5.9,35c0.3-0.7,1.1-0.8,1.5-0.2
c0.8,1.3,1.7,2.6,1.3,4.3c-0.1,0.5-0.1,1-0.1,1.6c0,0.8-0.2,1.3-1.1,1.5c-1-1.6-2-3.2-2-5.1C5.5,36.4,5.7,35.7,5.9,35z M3.4,62.3
c0-0.1-0.1-0.1-0.2-0.2c-0.3-1.8-1-3.7-0.3-5.4c0.8-1.9,0.7-3.9,1-5.8c0.2-1.1,0.4-2.3,0.6-3.4c0.1,0,0.3,0,0.4-0.1
c0.2,0.4,0.5,0.8,0.6,1.2c0.7,3,0.3,6-0.5,8.9C4.5,59.1,3.9,60.7,3.4,62.3z M5.1,62.4c2.1-5,3-10.3,3.6-15.7c0.4-3.3,1-6.6,1.3-9.9
c0.1-1.1,0-2.2-0.2-3.3c-0.3-1.7,0.1-2.7,1.8-3.3c1.6-0.5,3.2-0.8,4.8-1.1c0.6-0.1,1.2-0.1,2-0.2c-0.1,0.8-0.3,1.5-0.4,2.1
c-0.1,1.4-0.2,2.9-0.2,4.3c0,1-0.1,1.9-1,2.5c-1.5,1.2-2.5,2.7-3.2,4.5c-0.7,1.9-1.5,3.7-2.2,5.6c-0.3,0.9-0.5,1.8-0.4,2.7
c0.3,3.1,0.6,6.2,1.3,9.3c0.4,1.6,0.4,2.6-0.5,4.1c-2,3.1-2.2,6.5-0.5,9.9c0.3,0.7,0.4,1.5,0.5,2.4c-0.9-0.3-1.3-1.1-1.4-1.9
c-0.1-0.4,0-0.7-0.1-1.1c0-1.2-0.6-1.9-1.8-2c-2-0.2-3.1-1.4-3.6-3.2C4.5,66.2,4.3,64.2,5.1,62.4z M17.8,77.3
c0,0.7,0.3,1.3,0.5,2.1c-1.1,0.7-2.8,0.2-3.5-1.1c-0.9-1.5-1.8-3.1-2.6-4.7c-1.5-2.9-1.3-5.9,0-8.9c0.1-0.5,0.5-0.9,1-1.6
c0.4,0.6,0.7,1,0.9,1.5c0.5,1.4,1.4,2.5,2.8,3.1c0.7,0.3,0.6,0.8,0.6,1.4C17.6,71.8,17.7,74.6,17.8,77.3z M40.5,92.1
c-1.8,1.2-3.8,2.1-6.1,2c-1.9-0.1-3.7,0.3-5.3,1.4c-0.5,0.4-1.2,0.6-1.8,0.9c-0.4,0.2-0.8,0.6-0.9,1c-0.2,0.8-0.6,0.9-1.3,0.9
c-2.7,0-4.7-2-4.8-5c0-0.8,0-1.6,0-2.4c0,0-0.1,0-0.1-0.1c-0.1,0.4-0.3,0.9-0.4,1.4c-0.5,1.6-1.5,2.8-3,3.6c-2,1-3.9,0.7-5.5-0.9
c-1.2-1.2-2.6-2.3-3.4-3.8c-0.8-1.5-1-3.4-1.4-5.1c0.1,0,0.2-0.1,0.3-0.1c0.8,1.9,1.5,3.8,2.4,5.7c0.3,0.6,1,1.3,1.6,1.4
c1.2,0.3,2.6,0.2,3.9,0.3c0-0.1,0.1-0.2,0.1-0.3c-0.2-0.1-0.5-0.3-0.7-0.4c-3.8-1.3-6.1-3.9-7-7.8c-0.3-1.1-0.8-2.2-1.3-3.2
c-0.7-1.4-1-2.9-0.5-4.4c0.1-0.4,0.5-0.7,0.8-1c0.3,0.3,0.6,0.6,0.8,0.9c0.2,0.5,0.4,1,0.5,1.6C8,80.9,8.5,83,9,85.1
c0.1,0.4,0,0.9,0.1,1.4c0,0.4,0.2,0.9,0.3,1.3c1-0.3,0.8-1,0.7-1.5C9.7,85,9.3,83.7,9,82.5c-0.5-2.1-1-4.3-1.5-6.4
c1.4,0.3,2.6,0.6,3.9,1c0.3,0.1,0.6,0.2,0.8,0.4c3.3,3,7.3,4.4,11.8,4.4c1.5,0,2.8,0.5,4,1.4c2.2,1.7,4.7,2.4,7.4,2.1
c0.4,0,0.9,0.1,1.2,0.2c1.5,0.6,3,1.1,4.6,0.9c0.8-0.1,1.7,1.2,1.6,2.2C42.6,90.2,41.7,91.3,40.5,92.1z M51.5,90
c-1,0.5-1.9,0.5-2.8-0.1c0.1-0.2,0.1-0.4,0.3-0.5c1.7-1.1,2.6-2.8,3.8-4.4c0.2-0.2,0.4-0.5,0.7-0.6c1.3-0.4,2.7-0.8,4-1.2
C56.7,86.4,54.5,88.6,51.5,90z M61,22c-0.1,0.1-0.2,0.2-0.3,0.2c-0.4-0.5-0.8-1.1-1.3-1.5c-2.8-2.2-6.1-3.1-9.5-3.5
c-1.3-0.2-2.7-0.2-3.9-1c-0.4-0.3-1-0.5-1.3,0.1c-0.3,0.6,0.1,1.1,0.6,1.2c1.2,0.2,2.3,0.3,3.5,0.4c3.5,0.3,6.8,1.2,9.7,3.3
c2.6,1.9,3.1,6.1,2,8.4c-0.3,0.5-0.4,1.3-0.2,1.9c0.6,2,0.8,4,0.4,6.1c-0.2,1.2-0.5,1.3-1.5,0.7c-0.6-0.3-1.2-0.6-1.9-0.8
c0.4,0.5,0.8,1,1.2,1.4c1.8,1.9,2.7,4.1,2.3,6.8c-0.2,1-0.4,1.3-1.4,0.9c-1.7-0.7-3.4-1.4-5.1-2.1c-0.3-0.1-0.6-0.2-0.9-0.2
c0,0.1-0.1,0.1-0.1,0.2c0.2,0.1,0.5,0.2,0.7,0.3c2.1,0.8,3.8,2.2,5.3,3.9c1.4,1.6,1.1,3.4,1,5.2c0,0.9-0.1,1.8,0,2.7
c0.5,3.8,0,7.3-2.8,10.1c-0.2,0.2-0.4,0.5-0.5,0.8c0.1,0.1,0.1,0.2,0.2,0.3c0.5-0.2,1.1-0.5,1.6-0.7c0.8-0.4,1-0.1,1,0.7
c0,4.3-0.4,8.4-2.5,12.3c-1.1,2.1-2.6,3.4-5,3.8c-1.1,0.1-2.3,0.4-3.4,0.8c-2.1,0.8-4.1,0.3-6.1-0.3c-1.4-0.4-2.9-0.7-4.4-0.9
c-1.8-0.2-3.4-0.7-4.5-2.2c-0.3-0.3-0.2-0.9-0.3-1.3c0.5-0.1,1.1-0.4,1.5-0.2c1,0.3,1.8,0.9,2.8,1.3c1.3,0.5,2.7,0.1,3.9-0.3
c0.3-0.1,0.5-0.8,0.7-1.2c-0.3-0.1-0.6-0.3-0.9-0.4c-0.9-0.2-1.9-0.3-2.9-0.4c-2.1-0.2-4.1-0.8-5.7-2.3c-0.2-0.2-0.5-0.2-0.8-0.3
c0,0.2-0.1,0.4-0.2,0.6c-0.1,0.6,0.1,1.5-0.2,1.8c-0.8,0.8-1.9,1.1-3,0.7c-1.2-0.5-2.4-1.1-3.4-1.9c-2-1.5-3.7-3.4-4.5-5.9
c0-0.2-0.2-0.3-0.3-0.5c-0.1,0-0.2,0.1-0.3,0.1c0.1,0.6,0,1.2,0.2,1.7c0.7,2,1.4,4,3.4,5.2c1.1,0.6,2.2,1.1,3.4,1.6
c0.2,0.1,0.3,0.2,0.5,0.3c-2.7,1.8-7,0.6-8.3-2.2c-1-2.1-1.3-4.3-1-6.6c0.1-1.2,0.1-2.2-0.8-3.3c-1.4-1.7-2.4-3.7-3.5-5.7
c-1.4-2.7-1-4.3,1.4-6.7c0.9-0.9,1.9-1.6,2.8-2.5c0.4-0.4,0.8-0.9,0.9-1.5c0.4-1.3,0.6-2.7,1-4c0.3-1.1,0.8-2.1,1.3-3.1
c0.4-0.8,0.7-1.7,1.3-2.4c1.2-1.5,2.8-2.5,4.8-3c1.2-0.3,2.3-1,3.5-1.5c0.2-0.1,0.5-0.4,0.5-0.6c0-0.3,0-0.7-0.2-0.9
c-0.1-0.1-0.7-0.1-0.8,0.1c-0.9,1.2-2.4,1.4-3.6,2.1c-1.7,1-3.2,2.3-4.6,3.7c-2.4,2.3-3.3,5.4-3.6,8.7c-0.1,0.9-0.5,1.7-1.3,2.2
c-1.7,1.2-3.3,2.4-5.1,3.8c-0.1-0.7-0.3-1.4-0.4-2.1c-1-4.7,0.5-8.8,2.9-12.6c0.9-1.5,2.2-2.9,3.3-4.3c0.4-0.5,0.6-1.2,0.6-1.9
c0-4.6,1.1-9,3.1-13.2c1.4-2.8,3.4-5.1,6.6-6c1.4-0.4,2.7-0.3,3.7,0.2c-1.1,2-2.2,4.1-3.3,6.2c-0.3,0.5-0.3,1.1-0.4,1.7
c0.1,0,0.3,0.1,0.4,0.1c0.2-0.4,0.5-0.8,0.6-1.2c1.3-3.3,3-6.5,5.8-8.9c1.2-1,2.7-1.7,4.1-2.4c0.1-0.1,0.4-0.1,0.6,0
c0.9,0.5,1.7,0.3,2.6,0.1c2.3-0.7,4.6-1.2,7-1.8c4.2-1.1,10,2,11.3,6.1C61.6,18.3,61.2,20.2,61,22z M116.8,35
c0.2-0.3,0.6-0.5,0.9-0.5s0.7,0.4,0.7,0.6c0.2,1,0.5,2,0.3,2.9c-0.4,1.5-1.1,2.8-1.7,4.3c-1-0.3-1.3-0.7-1.3-1.5
c0-0.5,0-0.9-0.1-1.4C115.2,37.7,115.9,36.3,116.8,35z M104.8,23.3c2.3-0.4,5.6,2.5,5.9,5.1c-1.7-0.4-3.4-0.7-5-1.4
c-0.5-0.2-0.7-1.3-0.9-2C104.7,24.5,104.8,23.8,104.8,23.3z M93.1,8.4c0.3,0.2,0.8,0.3,1,0.6c1.1,1.6,1.7,3.4,1.7,5.4
c0,0.8-0.6,1-1.2,1.2c-0.3,0.1-0.7,0-1.2,0c0.6-2.1,0.2-4.1-0.5-6.1C92.9,9.2,93.1,8.8,93.1,8.4z M82.8,3.4c2-1,3.9-0.6,5.8,0.1
c1,0.3,1.9,0.8,2.9,1.2c0,0.2,0,0.3,0,0.5c-1,0.3-2,0.6-3,0.7C86.7,6.1,85,6,83.2,6.1c-0.8,0-1.4-0.1-1.5-1
C81.6,4.3,82.1,3.8,82.8,3.4z M64.7,6.5C67,3.1,71.6,2,75.5,4c0.7,0.3,1.3,0.9,1.8,1.4c0.4,0.4,0.4,0.9-0.3,1.1
C75.7,7,74.4,7.6,73,8c-3.4,1-6.6,2.3-8.9,5.2c-0.1,0.1-0.3,0.2-0.7,0.4C63.3,11,63.2,8.6,64.7,6.5z M72.3,89.8
c-2.7-1.5-4.7-3.6-5.5-6.5c1.2,0.4,2.6,0.7,3.9,1.1c0.3,0.1,0.6,0.2,0.7,0.4c1.2,1.7,2.2,3.5,4,4.7c0.1,0,0.1,0.2,0.1,0.3
C74.5,90.6,73.4,90.4,72.3,89.8z M80,84.8c-1.4,0.5-2.9,0.5-4.4,0c-1.3-0.4-2.6-0.7-4-0.9c-2-0.3-3.4-1.4-4.4-3.2
c-2.3-4-2.9-8.4-2.8-12.9c0-0.8,0.3-0.9,1-0.6c0.5,0.2,1,0.4,1.4,0.7c0,0,0.1,0,0.3-0.1c-0.1-0.3-0.2-0.6-0.4-0.7
c-2.7-2.7-3.1-6-2.8-9.6c0.1-1.7,0.1-3.5,0-5.2c-0.1-1.4,0.4-2.6,1.3-3.6c1.5-1.6,3.1-2.9,5.2-3.7c0.2-0.1,0.4-0.2,0.6-0.2
c0-0.1-0.1-0.2-0.1-0.3c-1,0.3-2.1,0.6-3.1,1c-1,0.4-2,0.9-3,1.3c-0.9,0.4-1.2,0.1-1.4-0.9c-0.4-2.7,0.5-5,2.3-6.9
c0.4-0.4,0.7-0.8,1.1-1.3c0-0.1-0.1-0.1-0.1-0.2c-0.6,0.3-1.3,0.7-1.9,1c-0.9,0.5-1.1,0.4-1.3-0.6c-0.4-2.1-0.3-4.1,0.3-6.2
c0.2-0.6,0.2-1.3,0-1.8c-1.5-4-0.3-8,3.8-10c3.2-1.6,6.6-2,10.1-2.2c0.5,0,1.1-0.3,1.5-0.5c0.2-0.1,0.2-0.7,0.1-0.9
c-0.1-0.2-0.7-0.3-0.8-0.2c-2.5,1.7-5.6,1-8.3,2c-1.9,0.7-3.9,1.4-5.5,2.7c-0.5,0.4-1,0.8-1.4,1.2c-1.1-2-0.3-6.3,1.5-8.3
c1.9-2.1,4.5-2.6,7.1-3.1c2-0.3,3.7,0.3,5.5,0.7c1.7,0.3,3.3,1,4.9,1.4c0.2,0.1,0.6,0,0.8-0.1c1.1-0.7,2.1-0.2,3.1,0.4
c3.9,2.2,6.1,5.7,7.8,9.7c0.3,0.7,0.6,1.4,1,2.1c0.2,0,0.3-0.1,0.5-0.1c-0.1-0.5-0.2-1.1-0.4-1.6c-0.5-1.1-1-2.1-1.6-3.2
c-0.6-1-1.2-2-1.8-3.1c2.3-0.8,4.3-0.2,6.2,1c2.9,1.9,4.4,4.8,5.4,7.9c1.2,3.4,2,6.8,1.9,10.5c0,0.6,0.5,1.4,1,1.9
c3,3.3,5.2,7.2,5.9,11.6c0.3,2.1-0.2,4.4-0.4,6.6c0,0.1-0.2,0.3-0.2,0.4c-0.1,0-0.2,0-0.2,0c-1.8-1.4-3.7-2.7-5.3-4.2
c-0.5-0.4-0.6-1.4-0.8-2.1c-0.6-1.9-0.8-4-1.7-5.7c-1.2-2.5-3.4-4.4-5.7-6c-0.4-0.3-0.9-0.4-1.4-0.5c-1.1-0.3-2-0.7-2.8-1.6
c-0.3-0.4-0.6-0.8-1.1-0.2c-0.5,0.5-0.2,1,0.2,1.3c1.1,0.6,2.2,1.3,3.3,1.6c2.6,0.6,4.6,1.9,5.8,4.2c0.9,1.6,1.3,3.4,1.9,5.1
c0.4,1.2,0.4,2.5,1,3.5c0.5,0.9,1.5,1.5,2.2,2.3c1.1,1.2,2.4,2.3,3.2,3.7c0.4,0.7,0.5,1.9,0.2,2.6c-0.5,1.4-1.3,2.6-2,3.9
c-0.6,1.1-1.2,2.2-1.8,3.2c-0.1,0.1-0.1,0.3-0.2,0.3c-1.2,0.8-1,1.9-0.9,3.1c0.3,2.4,0,4.7-1.1,6.8c-0.6,1.3-1.6,2.2-3,2.5
c-1.8,0.4-3.5,0.4-5.5-0.4c1.2-0.6,2.3-1,3.3-1.6c0.8-0.5,1.8-1,2.3-1.8c0.8-1.3,1.4-2.8,2-4.2c0.2-0.4,0.1-0.9-0.1-1.4
c-0.2,0.4-0.3,0.8-0.5,1.2c-1.5,3.3-3.9,5.7-7.3,7c-0.6,0.2-1.3,0.2-1.9,0c-1.5-0.3-1.7-0.7-1.6-2.2c0-0.3,0-0.6,0-1
c-0.4,0.2-0.7,0.2-0.8,0.4c-2,1.8-4.4,2.2-7,2.5c-0.6,0.1-1.1,0.1-1.7,0.2c-0.3,0.1-0.6,0.3-1,0.5c0.3,0.4,0.5,1.1,0.9,1.2
c1.6,0.4,3.3,0.8,4.9-0.2c0.6-0.3,1.1-0.7,1.8-0.9c0.4-0.1,1,0.1,1.5,0.2c-0.1,0.4-0.1,1-0.3,1.3c-0.9,1.3-2.3,2-3.8,2.1
C84.3,83.6,82.2,84.1,80,84.8z M106.9,69.8c-0.1-1.1,0-1.8,1.2-2.5c0.8-0.4,1.4-1.5,2-2.4c0.3-0.5,0.5-1,1-1.9
c0.5,0.7,1,1.1,1.2,1.6c1.3,2.9,1.4,5.8,0,8.7c-0.8,1.7-1.7,3.3-2.7,4.8c-0.5,0.9-1.4,1.4-2.4,1.5c-0.7,0.1-1.1-0.3-1-0.9
C107,75.9,107.2,72.8,106.9,69.8z M118.5,81.6c-0.5,1.1-1.1,2.3-1.4,3.6c-0.9,3.7-3.1,6.2-6.7,7.5c-0.3,0.1-0.6,0.3-0.9,0.7
c0.2,0.1,0.4,0.2,0.7,0.2c1,0,2-0.1,3-0.2c1-0.1,1.9-1.1,2.1-2c0-0.2,0-0.4,0.1-0.6c0.8-1.6,1.6-3.1,2.4-4.7
c-0.4,2.8-0.5,5.6-3,7.6c-0.6,0.5-1.2,1.1-1.8,1.7c-1.9,1.8-5.3,1.6-7-0.6c-0.4-0.5-0.9-1-1.2-1.6s-0.4-1.3-0.6-2
c-0.1,0-0.2,0-0.2,0v2.3c0,3-2.1,5.1-4.8,5.1c-0.7,0-1.2-0.2-1.4-0.9c-0.1-0.3-0.4-0.7-0.7-0.9C94.5,95.1,92,94,88.9,94
c-2.7,0-5.2-1.3-6.8-3.7c-0.9-1.4-0.8-2.6,0.4-3.6c0.2-0.1,0.4-0.3,0.6-0.2c1.6,0.2,3.1-0.3,4.6-0.9c0.4-0.2,0.9-0.3,1.3-0.2
c2.6,0.2,5-0.4,7.1-2c1.4-1,2.8-1.6,4.6-1.6c4.4,0,8.2-1.5,11.5-4.4c0.2-0.2,0.6-0.3,0.9-0.4c1.2-0.3,2.3-0.6,3.7-0.9
c-0.2,1.3-0.5,2.6-0.8,3.8c-0.5,2-1.1,3.9-1.6,5.8c-0.2,0.7-0.4,1.4,0.4,2.1c0.2-0.4,0.4-0.7,0.4-1c-0.2-2.5,0.9-4.7,1.4-7
c0.2-1,0.6-2,1-2.9c0.1-0.2,0.4-0.5,0.7-0.6c0.1,0,0.4,0.4,0.5,0.6C119.4,78.6,119.2,80.1,118.5,81.6z M119.3,68.5
c-0.5,1.6-1.6,2.7-3.4,2.9c-1.2,0.1-1.7,0.7-1.9,2c-0.1,0.8-0.4,1.6-0.6,2.4c-0.1,0.3-0.3,0.7-0.5,1c-0.2-0.1-0.4-0.3-0.6-0.4
c0.2-0.8,0.3-1.6,0.6-2.3c1.9-4,1.2-7.6-1.3-11.1c-0.2-0.3-0.4-0.9-0.2-1.2c1-2.4,1.2-4.9,1.4-7.5c0.1-1.7,0.5-3.5,0.1-5.2
c-0.6-3.3-2-6.4-3.8-9.3c-0.4-0.7-1.2-1.2-1.7-1.9c-0.4-0.5-0.9-1.1-0.9-1.8c-0.2-2.4-0.2-4.7-0.3-7.2c2.3,0.3,4.8,0.3,7.1,1.6
c1.2,0.7,1.3,1.4,1.2,2.8c-0.1,1.6-0.2,3.3,0,4.9c0.4,4.1,1.1,8.2,1.6,12.3c0.5,3.9,1.5,7.7,3,11.4C120,64,119.9,66.3,119.3,68.5z
M121.3,60.9c-0.1,0.5-0.2,1-0.4,1.5c-0.8-3.3-2.5-6.3-2.5-9.7c0-1.4,0.2-2.8,0.4-4.2c0-0.4,0.4-0.7,0.6-1.2
c1.3,2.1,0.9,4.2,1.2,6.3c0.1,0.7,0.1,1.4,0.4,2C122,57.3,121.5,59.1,121.3,60.9z"/>
<path class="st0" d="M93.5,48.5c0.5,0,1.1,0,1.5-0.1c0.9-0.4,1.9-0.7,2.2-1.9c0-0.2,0.2-0.4,0.4-0.5c0.2-0.2,0.5-0.3,0.7-0.5
c0.2-0.2,0.5-0.3,0.7-0.5c0-0.1-0.1-0.2-0.1-0.3c-1.5,0.9-2.9,1.8-4.4,2.7c0-0.1-0.1-0.2-0.1-0.2c0.2-0.3,0.5-0.7,0.7-1
C95,46.1,95,46.1,94.9,46c-0.6,0.3-1.2,0.7-1.9,1c-0.3,0.1-0.6,0.3-0.8,0.2c-1.9-0.5-4-0.9-5.8-1.7c-2.9-1.3-5.9-1.8-9-2
c-0.3,0-0.6,0.1-0.9,0.1c0.1,0,0.1,0,0.2,0.1c-0.1,0-0.2,0-0.3,0c0.5,0.3,1.1,0.3,1.6,0.5c2.3,0.5,4.7,1,7,1.6
C87.9,46.6,90.6,47.6,93.5,48.5z"/>
<path class="st0" d="M106.7,89.8c-2.2-1.6-4.4-1.2-6.7-0.3c0.5,0.1,0.9,0.2,1.4,0.2c1.7-0.1,3.1,0.7,4.6,1.5c0.3,0.2,1,0.1,1.2-0.1
C107.4,90.6,107.2,90.2,106.7,89.8z"/>
<path class="st0" d="M17.5,89.9c-0.2,0.2-0.3,0.8-0.3,1.1c0,0.2,0.7,0.3,1,0.3c0.4-0.1,0.8-0.4,1.1-0.5c0.6-0.3,1.3-0.7,2-0.9
c1-0.2,2.1-0.3,3.1-0.4c0-0.1,0-0.1,0-0.2c-0.6-0.2-1.3-0.3-1.9-0.5C20.6,88.3,19,88.8,17.5,89.9z"/>
</svg>