<?xml version="1.0" encoding="utf-8"?>
<!-- Generator: Adobe Illustrator 20.0.0, SVG Export Plug-In . SVG Version: 6.00 Build 0)  -->
<svg version="1.1" id="weltmachen" xmlns="http://www.w3.org/2000/svg" xmlns:xlink="http://www.w3.org/1999/xlink" x="0px" y="0px"
	 width="198.7788849px" height="200px" viewBox="0 0 198.7788849 200" enable-background="new 0 0 198.7788849 200"
	 xml:space="preserve">
<path id="BG" fill="#FFEBE6" d="M196.3589325,117.2126083c-4.0800171,7.5599976-10.5599976,13.8400192-16.6199951,13.5100021
	h-4.8300171c-1.8999634,0.0800171-3.7999878,0.1699829-5.6900024,0.2600098c-3,2.9400024-3.4799805,6.6099854-3.0799561,10.5299683
	c-0.1600342,5.8099976,3.1399536,12.0300293-2,17.25c-2.9700317,3.0200195-3.210022,7.9400024-7.4299927,10.1600342
	c-4.1800537,2.1900024-4.8800049,7.9499512-9.4700317,9.8099976c-3.2199707,1.2999878-3.4000244,4.5799561-4.6799927,7.039978
	c-1.8599854,3.5800171-4.3599854,5.0300293-8.289978,4.3300171c-4.6000366-0.8200073-9.1200562,0.1599731-13.6400146,0.8299561
	c-0.1500244,0.0100098-0.2900391,0.0300293-0.4299927,0.0500488c-0.8800049,0.1300049-1.7700195,0.2600098-2.6500244,0.3800049
	c-0.289978,0.6900024-0.5800171,1.3699951-0.8699951,2.0499878c-3.1099854,5.7399902-6.7800293,1.3999634-10.1300049,0.3999634
	c-1.539978-0.4499512-2.7999878-1.8599854-4.1799927-2.8299561c-1.3800049-1.6500244-2.5200195-3.6000366-4.1799927-4.8699951
	c-3.3500366-2.5599976-5.0599976,0.7999878-7.2000122,2.4499512c0,0,0,0.0100098-0.0100098,0.0100098
	c-0.1400146,0.2900391-0.2799683,0.5800171-0.4299927,0.8699951c-2.710022,2.7300415-4.0599976,6.5100098-7.2399902,8.9299927
	c-2.4500122,1.8600464-5.1900024,2.2300415-7.289978,0.5599976c-2.460022-1.9699707-3.1200562-5.3299561-3.4900513-8.4699707
	c-0.1999512-1.7199707-0.1499634-3.4699707-0.2099609-5.210022c-0.0700073-1.1699829-0.1500244-2.3399658-0.2200317-3.5199585
	c-0.2600098-4.6300049-2.4099731,0.6199951-3.3200073-0.6300049c-0.7399902,0.2199707-1.4699707,0.4400024-2.1999512,0.6599731
	c-2.6500206,0.6099854-5.2100182,0.25-5.840023-2.6799927c-0.9799805-4.5499878-3.8699951-4.1599731-7.0299683-3.2600098
	c-7.3600464,2.0900269-10.2700195-3.6599731-13.75-7.9599609c-3.4800415-4.3099976-6.8100586-8.2800293-13.0800171-7.9400024
	c-2.0599976,0.1099854-2.0800171-2.0500488-2.4899902-3.4900513c-1.3300171-4.7599487-0.2700195-9.6099854-0.5300293-14.3999634
	c-0.1400146-2.710022-2.6199951-4.2299805-4.5999756-5.6500244c-4.4500132-3.1799927-5.3900156-6.8699951-2.5900269-11.5899582
	c1.0100098-1.7000122,0.5499878-2.8500366-1.4799814-3.5200195c-5.0800171-1.7000122-10.6500244-2.9099731-13.7800293-7.710022
	c-2.8800049-4.4199829-0.8800049-9.1699829,1.8200073-12.6199951c4.3699951-5.5799561,5.3300171-11.9699707,6.7999878-18.4599609
	c0.7200317-3.1500244,3.0900269-5.9200439,4.7200317-8.8600464c-0.0100098-0.2999878-0.0300293-0.5899658-0.039978-0.8799438
	c-0.0600586-0.1500244-0.1200562-0.2900391-0.1800537-0.4400024c-0.3800049-0.8700562-0.7699585-1.7400513-1.1499634-2.6100464
	c-4.1900024-2.6699829-6.6000366-10.8800049-3.7800293-14.789978c1.8099976-2.5,5.2999878-2.5100098,8.29004-2.7999878
	c1.5899658-0.1600342,3.2699585-0.5100098,4.7699585-0.1700439c5.7300415,1.3200073,6.2600098-2.5699463,7.5400391-6.5699463
	c2.5799561-8.1000366,9.1099854-11.75,16.9199829-13.7700195c3.0299683-0.7800293,1.6199951-3.9199829,2.1799927-5.8900146
	c1.8200073-6.3999634,7.1199951-9.5800171,12.4100342-6.8999634c1.4799805,0.9099731,2.9599571,1.8199463,4.4499474,2.7299805
	c0.0599976,0,0.1300049,0.0200195,0.1900024,0.039978c0.1600342,0.1300049,0.3099976,0.2700195,0.4700317,0.4000244
	c0.0599976,0,0.1300049,0.0200195,0.1900024,0.039978c0.1599731,0.1300049,0.3099976,0.2600098,0.4699707,0.4000244
	c0.5,0.3099976,1,0.6199951,1.5100098,0.9299927c0.5-0.0200195,1-0.039978,1.5100098-0.0599976
	c0.0899658-1.75,0.1900024-3.5,0.289978-5.25c0.0700073-1.4700317,0.1400146-2.9400034,0.210022-4.4000254
	c-0.5100098-6.7600098,2.8399658-9.2000122,9.3699951-9.6499634c3.9000244-0.2700195,7.5200195-1.7900391,10.1599731,2.3699951
	c0.8099976,1.0999756,1.6199951,2.2000122,2.4200439,3.2999878c1.0999756,1.6099854,2.2099609,3.2299805,3.3099976,4.8400269
	c3.8599854,5.1199961,6.2199707,1.789979,8.5899658-1.5200195c1.1700439-2.0499878,2.3400269-4.1000366,3.5100098-6.1500244
	c1.2299805-1.7000122,2.460022-3.3900146,3.6900024-5.0799561c4.9299927-4.3400269,6.7399902,0.4499512,7.9700317,3.3799438
	c1.9799805,4.7200317,5.0999756,3,7.9199829,2.1200562c6.0100098-1.8700562,11.9899902-3.9300537,17.7399902,0.2799683
	c3.1500244,2.2999878,3.2800293,6.2700195,3.6199951,9.6599741c0.6900024,6.9200439,5.0999756,10.6300049,10.5200195,13.75
	c2.4199829,1.3900146,3.0799561,3.9100342,3.3399658,6.3200073c0.2200317,1.9800415,0.6600342,2.2400513,2.6500244,2.1700439
	c10.960022-0.4200439,15.1199951,6,10.1199951,16.1799927c-1.9699707,4.0199585-0.3699951,6.8099976,1.1500244,9.9599609
	c0.8999634,1.8900146,0.75,3.7400513,0.2099609,5.6400146c-1.1599731,1.4000244-2.3200073,2.7999878-3.4699707,4.2000122
	c-1.1099854,5.9199829,4.3399658,6.2399902,7.3999634,7.9799805
	C191.0089569,88.932579,204.2889252,102.5326157,196.3589325,117.2126083z"/>
<g>
	<path fill="#FF8366" d="M39.538929,113.6126328c-0.5999756,3.3699951-1.2099609,6.7399902-1.8200073,10.1099854
		c-0.3899536,2.1799927-1.9099731,2.289978-3.8099976,2.7299805c-3.0100098,0.6900024-4.9099731,3.5499802-7.8499756,4.9199753
		c-3.3499756,1.5700073-3.2800293-0.4400024-4.6199951-2.1399536c-3.2700195-4.140007-0.8500366-10.3799973-5.4500132-13.929985
		c-2.2700195-1.7400513-5.3499756-2.5900269-6.2399902-5.8700562c-1.5800171-5.7699585-0.1799927-11.3599854,0.5899658-17.0499878
		c0.7600098-5.6599731,1.9200439-11.1099854,4.5599976-16.2199707c0.3300171-0.6500244-0.0799561-1.6900024-0.1499634-2.5400391
		c-0.0100098-0.2999878-0.0300293-0.5899658-0.039978-0.8799438c-0.0600586-0.1500244-0.1200562-0.2900391-0.1800537-0.4400024
		c-0.3800049-0.8700562-0.7699585-1.7400513-1.1499634-2.6100464c0.8300171,0.1300049,1.789978,0.0500488,2.4699707,0.4400024
		c3.5599985,2.0300293,3.54004-0.0100098,3.04004-2.5999756c-0.9500122-4.9700317,3.0099487-11.460022,8.039978-12.1099854
		c2.1199951-0.2700195,0.1699829,2.1900024,0.7399902,3.2699585c-2.25,2.1199951-4.6900024,4.3400269-4.4299927,7.6700439
		c0.2700195,3.4699707,1.1799927,6.8999634,1.9500122,10.3199463c0.1900024,0.8500366-1.4700317,1.8800049,0.0200195,2.3000488
		c1.4699707,0.4199829,2.9899902-0.0900269,4.1699829-1.3099976c0.5899658-0.6199951,1.3399658-1.1000366,2.0199585-1.6300049
		c0.0800171,0.289978,0.1500244,0.5799561,0.2300415,0.8800049c-3.0700073,3.8699951-7,7.4899902-5.0300293,13.1799927
		c1.8800049,5.4199829-0.9799805,11.1400146,1.2999878,16.4799805c-0.9599609-1.0200195-1.9199829-2.039978-2.8799438-3.0599976
		c-0.25-7.7700195,0.5099487-15.6599731-2.6200562-23.0999756c1.1300049-1.3300171,2.3100586-2.6600342,0.2300415-4.1700439
		c-1.2999878-1.4400024-2.4899902-3.0999756-4.7700195-2.7699585c-0.2799683,0.039978-0.6300049,0.5899658-0.6900024,0.9499512
		c-1.2600107,7.1000366-3.7999887,13.9700317-4.039979,21.25c-0.25,7.9900513-1.2000122,14.3100586,6.2099619,17.9500122
		c1.3099976,0.6400146,3.3600464,0.5200195,3.6100464,2.9100342c0.3699951,3.6300049,0.5799561,7.8299561,5.0599976,8.8099976
		c4.0799561,0.8999634,5.1399536-2.4899902,6.0299683-5.6000366c0.4700317-1.8499756,0.6000366-3.7099609-0.039978-5.5299683
		c-0.039978-0.1300049-0.0900269-0.25-0.1400146-0.3800049C35.7589607,113.7025986,37.7289314,115.6526108,39.538929,113.6126328z"
		/>
	<path fill="#FF8366" d="M113.5189667,47.3725815c-1.5900269,7.9700317-5.7000122,14.1300049-13.9100342,16.7800293
		c-5.7299805,1.8400269-18.0100098-2.6500244-21.2399902-7.789978c-1.1599731-1.8400269-2.7700195-3.4900513-3.5499878-5.4700317
		c-1.2000122-3.0700073-2.6300049-6.5700073,2.2999878-8.039978c3.1799927-0.210022,6.0900269-0.9800415,7.8699951-3.9700317
		c0.1699829-0.2799683,0.3300171-0.5599976,0.4899902-0.8499756c0.0800171-0.2200317,0.1699829-0.4400024,0.25-0.6600342
		c1.710022-2.2799683,1.6300049-4.9599609,1.210022-7.4899902c-0.8900146-5.3399658-5.7299805-5.3399658-9.5700073-6.4599609
		c-2.5200195-0.7300415-3.9299927,0.8200073-4.9500122,3.039978c-0.3999634,0.8800049-0.1499634,2.4699707-1.7999878,2.539978
		c0.0499878-0.6499634,0.0900269-1.3099976,0.1300049-1.9699707c0.0200195-0.0200195,0.0499878-0.039978,0.0499878-0.0599976
		c-0.0100098-0.0599976-0.0299683-0.1099854-0.0499878-0.1600342c0.4099731-1.4499512-0.3099976-2.2999878-1.5300293-2.8699951
		c-0.0799561-0.1999512-0.1599731-0.3999634-0.2299805-0.5999756c0.5-0.0200195,1-0.039978,1.5100098-0.0599976
		c0.8300171-0.1600342,1.039978-4.1400146,0.289978-5.25c0.0700073-1.4700317,0.1400146-2.9400034,0.210022-4.4000254
		c0.1900024,0.8600464,0.3599854,1.7200317,0.5599976,2.580018c0.1599731,0.6900024,0.3599854,1.3699951,0.5499878,2.0499878
		c0.4500122-0.4500122,0.8900146-0.8999634,1.3599854-1.3300171c3.4100342-3.1399546,13.210022,1.7800293,14.9299927,7.4100342
		c0.3100586,1.0200195,0.6600342,2.5800171,2,2.4299927c1.8900146-0.210022,2.5-1.5700073,2.2300415-3.5100098
		c-0.7700195-5.6300049-1.4100342-11.2699594-2.1000366-16.9099731c0.8099976,1.0999756,1.6199951,2.2000122,2.4200439,3.2999878
		c-0.3300171,4.0800171-0.0500488,8.1199961,0.8200073,12.1400156c0.5599976,2.5700073,1.6699829,7.2999878,1.25,7.4500122
		c-5.1800537,1.8499756-6.3000488,6.9199829-9.0500488,10.5799561c-2.2699585,3.0200195-7.1799927,3.6799927-7.8399658,7.6400146
		c-0.9800415,5.8099976,2.5700073,10.0200195,7.1699829,12.75c5.3900146,3.2000122,11.4000244,4.7000122,17.3400269,1.2399902
		c5.8200073-3.3800049,7.9099731-9.2799683,8.6399536-15.4400024c0.5400391-4.4899902,2.9200439-9.8499756-2.9599609-13.0599976
		c1.0899658-0.5200195,2.1900024-1.039978,3.2799683-1.5599976
		C116.838913,36.1526108,114.5989227,41.9425888,113.5189667,47.3725815z"/>
	<path fill="#FF8366" d="M151.2089691,53.602623c-4.8500366-6.7800293-7.8000488-14.7700195-13.6800537-20.9400024
		c-1.5699463-1.6500244-1.3899536-4.9199829-4.4599609-5.5200195c-6.0400391-1.2000122-8.5-6.2799683-11.6099854-10.6699829
		c-3.3700562-4.7600107-2.6100464-12.1600351-9.4100342-14.7299814c-1.2299805,1.6899414-2.460022,3.3799438-3.6900024,5.0799561
		c4.9199829-1.3800049,6.9000244,2.2300415,8.1300049,5.5900269c2.6699829,7.2999887,7.789978,12.2799692,14,16.3499756
		c2.2399902,1.460022,2.3499756,3.7300415,2.0499878,5.5499878c-0.1799927,1.0599976-2.5899658,1.75-4,2.6100464
		c0.4000244,2.4499512,4.0599976,1.3899536,4.3300171,5.1599731c0.4400024,5.9100342,2.9299927,11.7000122,4.7299805,17.4799805
		c0.960022,3.0900269,3.0300293,5.5400391,6.3800049,5.9300537c3.8800049,0.4599609,6.9299927-1.5200195,8.9100342-4.7600098
		C154.5589447,57.9926376,152.7789154,55.8026352,151.2089691,53.602623z M144.9489594,62.432579
		c-1.8500366,0.8600464-3.3200073-0.1699829-4.460022-1.3499756c-3.6099854-3.710022-4.6500244-8.6099854-5.0900269-13.4199829
		c-0.3599854-4.0200195,2.2700195-5.2000122,5.5800171-2.9299927c4.4400024,3.0499878,7.1000366,7.4400024,8.2900391,12.1499634
		C149.1489105,60.2826157,147.1089325,61.4226303,144.9489594,62.432579z"/>
	<path fill="#FF8366" d="M143.7589569,180.6726227c-2.2600098,2.6699829-4,5.9699707-7.8300171,6.7699585
		c-4.7800293,1-9.5900269,1.8900146-14.3800049,2.8600464c-0.3399658,0.0699463-0.6199951,0.4099731-0.9199829,0.6299438
		c-0.1500244,0.0100098-0.2900391,0.0300293-0.4299927,0.0500488c-0.8800049,0.1300049-1.7700195,0.2600098-2.6500244,0.3800049
		c-0.289978,0.6900024-0.5800171,1.3699951-0.8699951,2.0499878c-1.9099731-6.3200073-8.4899902-7.4299927-14.3099976-2.4299927
		c-1.3800049-1.6500244-2.5200195-3.6000366-4.1799927-4.8699951c-3.3500366-2.5599976-5.0599976,0.7999878-7.2000122,2.4499512
		c0,0,0,0.0100098-0.0100098,0.0100098c0.0599976-0.6300049,0.3800049-1.4099731,0.1300049-1.8599854
		c-3.9899902-7.0900269-13.960022-7.8400269-18.789978-1.460022c-0.0700073-1.1699829-0.1500244-2.3399658-0.2200317-3.5199585
		c0.1799927-0.1199951,0.4100342-0.2000122,0.5200195-0.3699951c4.789978-7.3000488,13.4099731-7.0599976,18.0200195,0.3899536
		c0.6399536,1.0400391,0.9899902,3.2600098,3.1300049,2.460022c1.6399536-0.6099854,3.2099609-0.9799805,4.9899902-0.8400269
		c4.0799561,0.3099976,7.8399658-0.4899902,10.6499634-3.8199463c1.0300293-0.1500244,2.0599976-0.3000488,3.0900269-0.4500122
		c3.0700073,1.539978,4.25,4.289978,4.5200195,7.4500122c0.2199707,2.6199951,1.9199829,2.6900024,3.5599976,2.0499878
		c4.6699829-1.8200073,9.2699585-3.8300171,13.8199463-5.9299927c1.2300415-0.5599976,2.9300537-0.7200317,3.3600464-2.460022
		C139.7589569,180.3626251,141.7589569,180.5225983,143.7589569,180.6726227z"/>
	<path fill="#FF6633" d="M90.5333023,6.3525906c0.6899109,5.6376362,1.3272018,11.2824841,2.0985565,16.9089546
		c0.2658768,1.9393253-0.3442612,3.3056641-2.2280884,3.510458c-1.3495331,0.1467056-1.692276-1.4052448-2.003624-2.4259682
		c-1.7196884-5.6377926-11.5208817-10.549509-14.9336319-7.4141197c-0.4667435,0.4288177-0.9080811,0.8853035-1.3611755,1.3289757
		c-0.1839676-0.6823635-0.3851624-1.3606586-0.5475159-2.0481281c-0.2021866-0.8561754-0.3723145-1.7199211-0.556282-2.5803986
		c-0.508461-6.7597404,2.8348541-9.2025261,9.3685684-9.6491041C84.2711029,3.7166278,87.8856125,2.1896698,90.5333023,6.3525906z"
		/>
	<path fill="#FFAF99" d="M109.4100952,179.5546265c-2.813446,3.3278046-6.5739517,4.1283569-10.6541901,3.8181152
		c-1.779892-0.1353302-3.3502808,0.2250671-4.9899139,0.8418427c-2.1343613,0.8028564-2.4855652-1.4179993-3.1283188-2.4581909
		c-4.6048431-7.4522705-13.2301559-7.6959229-18.0205231-0.3941345c-0.108902,0.1659851-0.3412857,0.2509766-0.5160751,0.373764
		c-0.2620087-4.6379852-2.4159851,0.6116333-3.326622-0.6365509c-1.4627228-0.7759247-3.1349335-1.1972351-3.9337921-2.9497681
		c-0.7692871-1.6876984-1.077404-3.6907349-2.880455-4.7650146l-0.0006104-0.0009003
		c-0.9082718-1.2365112-1.7338066-2.4621429,0.4343071-3.292923c2.7120781,2.4355469,5.4101295,4.8869781,8.1436119,7.2982483
		c0.9903107,0.8735809,1.4241028,0.6586761,2.037735-0.6663818c1.5849457-3.4224854,3.5759735-8.3944397,6.8809433-8.2766876
		c3.6989365,0.1317749,8.7643433,0.7091064,11.1744003,5.4671173c2.6524811,5.2366028,8.3125381,6.1095123,12.8685226,2.3253784
		C105.298851,177.6479797,107.0201035,179.1973114,109.4100952,179.5546265z"/>
	<path fill="#FF6633" d="M72.318367,185.2524414c4.8348846-6.3793335,14.7955856-5.6292114,18.7909393,1.461792
		c0.2545624,0.4517975-0.0720062,1.2310333-0.1282272,1.8579407l0.0074387-0.0072174
		c-0.1459503,0.2920685-0.291893,0.5841064-0.4378433,0.8761597c-2.7100067,2.7271881-4.0582123,6.5125275-7.238266,8.9306335
		c-2.4534149,1.8655396-5.197525,2.2307587-7.2928619,0.5577545c-2.4655838-1.9686279-3.1171799-5.323822-3.4904938-8.4660645
		C72.324585,188.7423859,72.3800812,186.990448,72.318367,185.2524414z"/>
	<path fill="#FFAF99" d="M108.3156357,32.9514427c5.8853226,3.2107315,3.5060883,8.5729942,2.9681473,13.065712
		c-0.7369232,6.154438-2.826149,12.0583649-8.6458893,15.4393539c-5.9418716,3.4519234-11.945343,1.9599571-17.335083-1.2396431
		c-4.6063004-2.7345047-8.1517258-6.9461784-7.1771164-12.7496872c0.6650314-3.9600296,5.5741882-4.6229172,7.8434753-7.6410294
		c2.7521515-3.6603355,3.8745651-8.7360973,9.048378-10.5838451c0.4253311-0.151907-0.6879272-4.882618-1.2446899-7.4514885
		c-0.8704758-4.0162983-1.1566544-8.0533047-0.8235245-12.1418304c1.1040192,1.6160688,2.208046,3.2321377,3.3120728,4.8482075
		c-1.8824387,1.4573565-2.0978012,9.3279076-0.2895355,10.5813732
		C97.1405411,33.4951591,99.9230881,35.2698746,108.3156357,32.9514427z M95.2815857,62.4157791
		c9.5155487,0.0062943,17.9045029-15.3851128,13.4055252-24.2768097c-2.1184921-4.1869583-5.5623322-1.6595078-8.3965225-2.282444
		c-6.7520599-1.4840431-16.9863586,4.5635262-18.9405899,11.383091
		C79.1476822,54.9248734,86.0186539,62.4096489,95.2815857,62.4157791z"/>
	<path fill="#FFAF99" d="M132.5389252,34.3125839c-0.1799927,1.0599976-2.5899658,1.75-4,2.6100464
		c-0.7299805-0.7900391-1.4699707-1.5800171-2.2099609-2.3699951c0.3699951-1.1600342,0.1300049-2.0300293-0.8900146-2.8500366
		c-4.1799927-3.3699951-9.0400391-5.7799683-10.5400391-11.9899902c-1.0499878-4.4000254-4.289978-8.1099863-10.0499878-6.7399912
		c1.1700439-2.0499878,2.3400269-4.1000366,3.5100098-6.1500244c4.9199829-1.3800049,6.9000244,2.2300415,8.1300049,5.5900269
		c2.6699829,7.2999887,7.789978,12.2799692,14,16.3499756C132.7289276,30.2226181,132.838913,32.4926376,132.5389252,34.3125839z"/>
	<path fill="#FFD7CC" d="M126.3289642,34.5526352c-3.3400269-2.6900024-6.9100342-4.710022-11.4400024-4.0400391
		c-1.1400146-2.7299805-2.2400513-5.4699707-3.4299927-8.1699829c-2.9700317-6.750001-8.8500366-5-13.7800293-3.9700317
		c-2.3900146,0.5100098-1.75,4.25-1.710022,6.710022c-1.8099976-1.2600098-1.5899658-9.1300058,0.2900391-10.5899668
		c3.8599854,5.1199961,6.2199707,1.789979,8.5899658-1.5200195c5.7600098-1.3699951,9,2.3399658,10.0499878,6.7399912
		c1.5,6.210022,6.3600464,8.6199951,10.5400391,11.9899902C126.4589691,32.5226059,126.6989594,33.392601,126.3289642,34.5526352z"
		/>
	<path fill="#FFAF99" d="M162.6111603,122.2086105c2.6466827-2.7817459,6.0991669-2.954567,9.5804291-2.8466492
		c1.916626,0.059433,3.9458618,0.16008,5.0142822,2.2204895c1.576355,3.0400467,0.9897003,5.5808411-1.7417908,7.6828995
		c-0.3511963,0.2702637-0.3807526,0.9584808-0.5593262,1.4530945c-1.8968506,0.0886993-3.7937012,0.1773987-5.690567,0.266098
		c-2.8900604,0.3396149-6.5220795,10.2870941-5.0286102,13.7321167c0.131485,0.3032684,0.1257019,0.6660461,0.18367,1.0011597
		c-0.2029877-0.0455933-0.440155-0.0384979-0.6039124-0.1446228c-2.7221069-1.7640839-4.4991608-4.218338-5.3254089-7.3577118
		c0.4815979,0.525177,0.9037933,1.1273346,1.459671,1.5562592c0.7170563,0.55336,1.5410919,0.9680786,2.3190613,1.4424896
		c-0.1342316-0.7335968-0.525177-1.5317993-0.3595428-2.1899414c0.8493652-3.3752289,1.9754639-6.7859192,5.1226044-8.6412811
		c2.3219757-1.3688965,4.4660645-2.5670166,4.5232086-5.5764236c0.027771-1.4622269-0.5499878-2.9582825-1.8324127-3.5269547
		c-2.197937-0.9746552-4.4601593-0.7027206-6.4213562,0.890686
		C163.0378265,122.1830902,162.8244934,122.1958466,162.6111603,122.2086105z"/>
	<path fill="#FF6633" d="M102.3670959,190.9779053c5.8238449-4.9960327,12.3970566-3.8803406,14.3162537,2.4299164
		c-3.1140366,5.7415466-6.7884903,1.4008789-10.1322327,0.4075012
		C105.0113525,193.3579102,103.7530289,191.9531097,102.3670959,190.9779053z"/>
	<path fill="#FF8366" d="M66.1589203,21.5326157c-2.1799889-0.1199951-4.3999596-0.039978-5.760006,1.9400024
		c-2.0899658,3.0299683-3.9699707,6.1799927-5.9399414,9.289978c-1.3400269-0.4599609-2.6900024-0.9099731-4.0400391-1.3599854
		c0.7900391-1.1500244,1.5900269-2.289978,2.3699951-3.4400024c1.5700073-2.3200073,3.1000366-4.6699829,4.710022-6.960022
		c1-1.4400024,2.460022-2.1300049,4.210022-2.1999512C63.1889534,19.7126083,64.6689301,20.6225815,66.1589203,21.5326157z"/>
	<path fill="#FFAF99" d="M69.2189178,23.9425888c-2.8099976-0.8999634-5.1099854-0.1900024-7.2099571,1.9200439
		c-2.4299927,2.4299927-2.6799927,5.8499756-4.25,8.6499634c-0.7200317-0.289978-1.4500122-0.5899658-2.1700439-0.8900146
		c-0.3799438-0.289978-0.75-0.5699463-1.1299438-0.8599854c1.9699707-3.1099854,3.8499756-6.2600098,5.9399414-9.289978
		c1.3600464-1.9799805,3.5800171-2.0599976,5.760006-1.9400024c0.0599976,0,0.1300049,0.0200195,0.1900024,0.039978
		c0.1600342,0.1300049,0.3099976,0.2700195,0.4700317,0.4000244c0.0599976,0,0.1300049,0.0200195,0.1900024,0.039978
		c0.1599731,0.1300049,0.3099976,0.2600098,0.4699707,0.4000244c0.5,0.3099976,1,0.6199951,1.5100098,0.9299927
		C69.0589447,23.5426254,69.1389618,23.7426376,69.2189178,23.9425888z"/>
	<path fill="#FF8366" d="M166.1389618,141.5125885c-0.6199951,2.1900024-1.2600098,4.3800049-0.4100342,6.6699829
		c0.1099854,0.3000488,0,0.6900024-0.0100098,1.0400391c-0.3200073-0.0900269-0.6999512-0.0900269-0.9699707-0.2600098
		c-4.4400024-2.8800049-7.1300049-6.7299805-6.7399902-12.2700195c0.1499634,0.5100098,0.289978,1.0100098,0.4299927,1.5200195
		c0.8300171,3.1400146,2.5999756,5.5999756,5.3300171,7.3599854c0.1599731,0.1099854,0.3999634,0.1000366,0.5999756,0.1500244
		c-0.0599976-0.3400269-0.0499878-0.7000122-0.1799927-1.0100098c-1.5-3.4400024,2.1400146-13.3900146,5.0299683-13.7299805
		C166.2189178,133.9226227,165.7389374,137.5926056,166.1389618,141.5125885z"/>
	<path fill="#FF8366" d="M68.7789154,181.1026154c-0.7399902,0.2199707-1.4699707,0.4400024-2.1999512,0.6599731
		c-4.3699913-1.2299805-2.8200035-5.7299805-4.6199913-8.3800049c1.7999878,1.0800171,2.1099815,3.0800171,2.87994,4.7700195
		C65.6389618,179.9026031,67.3089447,180.3225861,68.7789154,181.1026154z"/>
	<path fill="#FF6633" d="M181.2189178,83.3825912c-3.0599976-1.7399902-8.5099487-2.0599976-7.3999634-7.9799805
		c1.1499634-1.4000244,2.3099976-2.7999878,3.4699707-4.2000122c0.5400391-1.8999634,0.6900024-3.75-0.2099609-5.6400146
		c-1.5200195-3.1499634-3.1199951-5.9400024-1.1500244-9.9599609c5-10.1799927,0.8400269-16.6000366-10.1199951-16.1799927
		c-1.9899902,0.0700073-2.4299927-0.1900024-2.6500244-2.1700439c-0.2600098-2.4099731-0.9199829-4.9299927-3.3399658-6.3200073
		c-5.4200439-3.1199951-9.8300171-6.8299561-10.5200195-13.75c-0.3399658-3.3899546-0.4699707-7.3599863-3.6199951-9.6599741
		c-5.75-4.210022-11.7299805-2.1500244-17.7399902-0.2799683c-2.8200073,0.8799438-5.9400024,2.5999756-7.9199829-2.1200562
		c-1.2300415-2.9299927-3.0400391-7.7199707-7.9700317-3.3799438c6.7999878,2.5699463,6.039978,9.9699707,9.4100342,14.7299814
		c3.1099854,4.3900146,5.5699463,9.4699707,11.6099854,10.6699829c3.0700073,0.6000366,2.8900146,3.8699951,4.4599609,5.5200195
		c5.8800049,6.1699829,8.8300171,14.1599731,13.6800537,20.9400024c1.5699463,2.2000122,3.3499756,4.3900146,1.6799927,7.1300049
		c-1.9800415,3.2399902-5.0300293,5.2199707-8.9100342,4.7600098c-3.3499756-0.3900146-5.4199829-2.8400269-6.3800049-5.9300537
		c-1.7999878-5.7799683-4.289978-11.5699463-4.7299805-17.4799805c-0.2700195-3.7700195-3.9299927-2.710022-4.3300171-5.1599731
		c-0.7299805-0.7900391-1.4699707-1.5800171-2.2099609-2.3699951c-3.3400269-2.6900024-6.9100342-4.710022-11.4400024-4.0400391
		c-1.1000366,0.2900391-2.1900024,0.5800171-3.2900391,0.8800049c5.2399902,4.7600098,3,10.5499878,1.9200439,15.9799805
		c-1.5900269,7.9700317-5.7000122,14.1300049-13.9100342,16.7800293c-5.7299805,1.8400269-18.0100098-2.6500244-21.2399902-7.789978
		c-1.1599731-1.8400269-2.7700195-3.4900513-3.5499878-5.4700317c-1.2000122-3.0700073-2.6300049-6.5700073,2.2999878-8.039978
		c-2.7800293-0.5200195-5.5599976-1.0400391-8.3400269-1.5499878c-1.3199463-0.3600464-2.6399536-0.7200317-3.9599609-1.0800171
		c-0.9600182-0.2200317-1.9100304-0.4400024-2.8599815-0.6600342c-3.0200195-1.0199585-6.9300537-1.0799561-6.3700562-5.9400024
		c-0.3799438-0.289978-0.75-0.5699463-1.1299438-0.8599854c-1.3400269-0.4599609-2.6900024-0.9099731-4.0400391-1.3599854
		c0.7900391-1.1500244,1.5900269-2.289978,2.3699951-3.4400024c1.5700073-2.3200073,3.1000366-4.6699829,4.710022-6.960022
		c1-1.4400024,2.460022-2.1300049,4.210022-2.1999512c-5.2900391-2.6800537-10.5900269,0.5-12.4100342,6.8999634
		c-0.5599976,1.9700317,0.8499756,5.1099854-2.1799927,5.8900146c-7.8099976,2.0200195-14.3400269,5.6699829-16.9199829,13.7700195
		c-1.2800293,4-1.8099976,7.8899536-7.5400391,6.5699463c-1.5-0.3399658-3.1799927,0.0100098-4.7699585,0.1700439
		c-2.9900522,0.289978-6.4800425,0.2999878-8.29004,2.7999878c-2.8200073,3.9099731-0.4099731,12.1199951,3.7800293,14.789978
		c0.8300171,0.1300049,1.789978,0.0500488,2.4699707,0.4400024c3.5599985,2.0300293,3.54004-0.0100098,3.04004-2.5999756
		c-0.9500122-4.9700317,3.0099487-11.460022,8.039978-12.1099854c2.1199951-0.2700195,0.1699829,2.1900024,0.7399902,3.2699585
		c-0.5,6.1600342,1.8599854,11.7000122,3.7299805,17.3500366c0.0800171,0.289978,0.1500244,0.5799561,0.2300415,0.8800049
		c0.5899658,1.539978,1.1699829,3.0700073,1.7600098,4.6099854c1.9699707,3.0100098,3.9499512,6.0100098,5.9299927,9.0200195
		v0.2099609c2.6199951,3.2999878,4.2699585,6.8699951,3.1099854,11.2200317
		c-0.0100098,0.1399536-0.0100098,0.2799683-0.0100098,0.4199829c0,0.1500244-0.0100098,0.2999878-0.0100098,0.4500122
		c-0.9499512,3.5899658-1.9099731,7.1799927-2.8699951,10.7600098c-0.5999756,3.3699951-1.2099609,6.7399902-1.8200073,10.1099854
		c-0.3899536,2.1799927-1.9099731,2.289978-3.8099976,2.7299805c-3.0100098,0.6900024-4.9099731,3.5499802-7.8499756,4.9199753
		c-3.3499756,1.5700073-3.2800293-0.4400024-4.6199951-2.1399536c-3.2700195-4.140007-0.8500366-10.3799973-5.4500132-13.929985
		c-2.2700195-1.7400513-5.3499756-2.5900269-6.2399902-5.8700562c-1.5800171-5.7699585-0.1799927-11.3599854,0.5899658-17.0499878
		c0.7600098-5.6599731,1.9200439-11.1099854,4.5599976-16.2199707c0.3300171-0.6500244-0.0799561-1.6900024-0.1499634-2.5400391
		c-1.6300049,2.9400024-4,5.710022-4.7200317,8.8600464c-1.4699707,6.4899902-2.4299927,12.8800049-6.7999878,18.4599609
		c-2.7000122,3.4500122-4.7000122,8.2000122-1.8200073,12.6199951c3.1300046,4.8000488,8.7000122,6.0100098,13.7800293,7.710022
		c2.0299692,0.6699829,2.4899912,1.8200073,1.4799814,3.5200195c-2.7999887,4.7199631-1.8599863,8.4099655,2.5900269,11.5899582
		c1.9799805,1.4200439,4.4599609,2.9400024,4.5999756,5.6500244c0.2600098,4.789978-0.7999878,9.6400146,0.5300293,14.3999634
		c0.4099731,1.4400024,0.4299927,3.6000366,2.4899902,3.4900513c6.2699585-0.3400269,9.5999756,3.6300049,13.0800171,7.9400024
		c3.4799805,4.2999878,6.3899536,10.0499878,13.75,7.9599609c3.1599731-0.8999634,6.0499878-1.289978,7.0299683,3.2600098
		c0.6300049,2.9299927,3.1900024,3.289978,5.840023,2.6799927c-4.3699913-1.2299805-2.8200035-5.7299805-4.6199913-8.3800049
		c-0.2300415,0.0599976-0.4700317,0.1199951-0.7000122,0.1799927c0.289978,1.0200195,0.7299805,2.4700317-0.3500366,2.7800293
		c-0.5700073,0.1699829-1.8800049-1.2700195-2.4499512-2.2299805c-0.7200317-1.2000122,0.8899536-1.4100342,1.3499756-2.1300049
		c1.75-2.7399902,4.0299683-5.2900391,5.0399742-8.2800293c0.6100464-1.7799683-2.1799889-0.7299805-3.2899742-1.0899658
		c-4.6400146-1.5200195-9.1600342-8.3000488-8.7999878-13.3099976c0.8800049-12.2200317,6.5799561-14.1600342,20.2899742-16.4900513
		c2.4299927-0.4099731,3.9400024-0.9599609,3.2399902-3.9799805c-1.6499634-7.179985,1.8400269-13.3300095,4.1199951-19.7600021
		c1.0900269-3.0799561,2.0500488-6.2999878,1.7600098-9.7000122c-0.6199951-7.0199585,9.6799927-16.8699951,16.4500122-15.5199585
		c1.7399902,0.3499756,3.25,1.8599854,4.8499756,2.8599854c0.5,0.3099976,0.960022,0.6699829,1.4400024,1.0100098
		c-0.0100098-0.6900024,0.2200317-1.5400391-0.0899658-2.0599976c-4.6000366-7.8300171,0.4599609-14.0100098,6.5499878-18.2600098
		c5.289978-3.6900024,10.7299805-3.8499756,16.460022-3.3699951c3.4899902,0.289978,5.8399658,2.7199707,8.3999634,5.210022
		c8.4899902,8.2699585,7.4100342,19.1299438,8.4000244,29.289978c0.6499634,6.5499878-5.0800171,12.8900146-10.960022,12.7799683
		c-4.7000122-0.0799561-8.5700073-3.0299683-11.9799805-6.2099609c-0.9799805-0.9100342-1.2900391-1.2600098-2.3900146-1.1799927
		c2.4199829,5.2299805,8.5700073,7.5,10.6300049,13.2699585c0.8499756,2.4100342,1.1300049,4.7600098,1,7.1900024
		c-0.3099976,5.429985,4.0900269,4.7399826,6.6300049,4.2100143c9.2199707-1.929985,15.25,10.8200073,13.7000122,17.3099976
		c-2.8600464,11.960022-9.4800415,21.7799683-17.5599976,30.75c-0.4100342,0.4500122-0.960022,0.7799683-1.4400024,1.1599731
		c0.5899658,0.4300537,1.1799927,0.8600464,1.7699585,1.2900391c1.25,0.3699951,2.4900513,0.7399902,3.7300415,1.1099854
		c2,0.1500244,4,0.3099976,6,0.460022c-2.2600098,2.6699829-4,5.9699707-7.8300171,6.7699585
		c-4.7800293,1-9.5900269,1.8900146-14.3800049,2.8600464c-0.3399658,0.0699463-0.6199951,0.4099731-0.9199829,0.6299438
		c4.5199585-0.6699829,9.039978-1.6499634,13.6400146-0.8299561c3.9299927,0.7000122,6.4299927-0.75,8.289978-4.3300171
		c1.2799683-2.460022,1.460022-5.7399902,4.6799927-7.039978c4.5900269-1.8600464,5.289978-7.6199951,9.4700317-9.8099976
		c4.2199707-2.2200317,4.4599609-7.1400146,7.4299927-10.1600342c5.1399536-5.2199707,1.8399658-11.4400024,2-17.25
		c-0.6199951,2.1900024-1.2600098,4.3800049-0.4100342,6.6699829c0.1099854,0.3000488,0,0.6900024-0.0100098,1.0400391
		c-0.3200073-0.0900269-0.6999512-0.0900269-0.9699707-0.2600098c-4.4400024-2.8800049-7.1300049-6.7299805-6.7399902-12.2700195
		c0.0199585-0.3800049,0.0299683-0.7600098,0.0499878-1.1300049c0.0100098-3.7199707,0.6500244-7.3099976,2.1300049-10.7399826
		c-0.3599854-1.2399902,0.1400146-2.0100098,1.3099976-2.4199829c0-0.0700073,0.0100098-0.1400146,0.0100098-0.210022
		c1.1300049-1.8999634,2.5999756-3.3999634,4.8200073-4c0.1900024-0.0599976,0.3599854-0.1799927,0.539978-0.2799683
		c-0.0900269-0.1699829-0.1300049-0.4299927-0.2800293-0.5c-0.3699951-0.1900024-0.8899536-0.5300293-1.1499634-0.4100342
		c-2.0900269,1-4.0800171,2.210022-6.210022,3.1199951c-4.8800049,2.0800171-9.2099609-0.7299805-9.5700073-6.1299438
		c-0.0999756-1.5100098-0.0299683-3.0400391-0.039978-4.5500488c-0.1300049-0.6699829-0.2600098-1.3299561-0.3900146-2
		c-1.1199951-7.0299683-2.25-14.0599976-3.3699951-21.0899658c-0.0499878-0.4400024-0.0999756-0.8800049-0.1400146-1.3300171
		c0-0.3499756,0.0100098-0.7000122,0.0100098-1.0499878c-0.0199585-0.2999878-0.039978-0.6000366-0.0599976-0.9000244
		c-0.1799927-5.3800049,7.2999878-13.6799927,12.4899902-13.8499756c0.1600342-2.2000122,0.3300171-4.3900146,0.4899902-6.5800171
		c-0.0599976-0.2299805-0.1199951-0.460022-0.1899414-0.6900024c-0.0200195-0.1499634-0.0400391-0.2999878-0.0600586-0.4500122
		c-2.3399658-3.5099487-4.6799927-7.0099487-7.0199585-10.5199585c-0.1500244-0.2900391-0.2999878-0.5800171-0.4500122-0.8600464
		c-0.3599854-0.8799438-0.7199707-1.7599487-1.0800171-2.6399536c-0.0599976-0.1600342-0.1300049-0.3099976-0.1900024-0.4700317
		c-0.1499634-0.5-0.3099976-1.0100098-0.4599609-1.5199585c-1.3800049-4.460022-2.75-8.9200439-4.1300049-13.3800049
		c-0.1600342-1.9100342-0.3099976-3.8099976-0.4700317-5.7200317c0.0700073-1.1099854,0.1300049-2.210022,0.2000122-3.3200073
		c0.0300293-2.0899658-0.4299927-5.4599609,1.6600342-5.5499878c2.5799561-0.1199951,2.6799927,3.6300049,3.6999512,5.6900024
		c1.7900391,3.6199951,5.5400391,5.0200195,7.9200439,7.8699951c2.7199707,3.25,1.539978,6.9000244,0.7599487,10.4799805
		c-0.0899658,0.4100342,0.2400513,1.3200073,0.3600464,1.3200073c7.9499512-0.1499634,7.6599731,7.4700317,10.6300049,11.7300415
		c2.5599976,3.6699829,3.8199463,8.3199463,5.2099609,12.6900024c0.8200073,2.5799561-1.5,4.2399902-3,6.0699463
		c-0.6599731,0.8099976-1.3399658,2.0400391-1.2099609,2.9800415c0.2699585,2.0100098,0.9599609,3.6300049-1.5,5.0999756
		c-0.9200439,0.5599976,1.2599487,2.0300293,2.0599976,2.9299927c5.7599487,6.460022,6.9599609,16.1700439,3.1199951,23.9100342
		c-1.4899902,3-2.7800293,5.8999634-6.0499878,7.3299561c-0.4100342,0.1800537-0.6800537,0.7000122-1.0200195,1.0599976
		c0.8699951,0.3100586,1.7199707,0.8300171,2.5999756,0.9100342c3.8599854,0.3900146,8.0200195-0.1500244,11.1700439,2.6699829
		c2.9199829,2.6099854,1.5599976,5.4199829-0.3900146,7.9600143c-0.5900269,0.7700195-1.5599976,1.2999878-1.0800171,2.5
		c6.0599976,0.3300171,12.539978-5.9500046,16.6199951-13.5100021
		C204.2889252,102.5326157,191.0089569,88.932579,181.2189178,83.3825912z M80.2089691,92.3026352
		c0,0.3699951-0.0100098,0.7299805-0.0100098,1.0999756v0.6500244c-0.1500244,1.7599487-0.3000488,3.5199585-0.4400024,5.2799683
		c-0.0800171,0.2200317-0.1500244,0.4400024-0.2300415,0.6600342v0.4299927
		c0.8900146,4.2699585-6.1599731,12.9299927-11.7099609,14.9499512c-7.4399986,2.710022-14.4600182,2.5100098-20.299984-3.1499634
		c-2.5900269-2.5-1.8000488-6.5900269-2.1600342-10.0499878c-0.5800171-5.4900513-1.5899658-10.9500122-1.9799805-16.4500122
		c-0.3599854-4.9799805,1.0700073-9.6400146,4.5899658-13.3500366c3.3300171-3.5,6.7700195-6.9699707,11.9700317-7.5699463
		c10.299984-1.1800537,20.5299644,7.9099731,20.7000084,18.3599854
		C80.6889496,86.2226181,81.3689423,89.3026352,80.2089691,92.3026352z M143.0289154,30.3225937
		c-0.5799561-0.5799561-1.1599731-1.1599731-1.75-1.7399902c-0.9499512-0.5200195-1.8999634-1.0299683-2.8499756-1.5499878
		c-7.9299927,0.3699951-11.4000244-4.6799927-13.6500244-11.2200327c-0.289978-0.7199707-0.5899658-1.4499512-0.8800049-2.1799927
		c-1.7199707-1.8099976-1.7699585-3.4699707-0.0999756-3.5199585c1.4299927-0.0500488,2.8499756-0.1900024,4.2700195-0.210022
		c9.6300049-0.1599731,12.6900024,3.2299805,14.7299805,16.2600098c0.0900269,0.539978,0.2200317,1.0800171,0.2399902,1.6300049
		C143.0789642,28.6325912,143.0389252,29.4826279,143.0289154,30.3225937z"/>
	<path fill="#FFAF99" d="M70.7848511,18.0277576c0.7566071,1.1125698,0.5394974,5.0946159-0.2867737,5.2597904
		C70.5936737,21.5342827,70.6892624,19.7810211,70.7848511,18.0277576z"/>
	<path fill="#FF8366" d="M90.5506744,189.4411163c0.1459503-0.2920532,0.291893-0.5840912,0.4378433-0.8761597
		C90.8425674,188.8570251,90.6966248,189.1490631,90.5506744,189.4411163z"/>
	<path fill="#FF6633" d="M14.5271339,72.3013382c0.0614424,0.1470032,0.1228848,0.2940063,0.1843271,0.4410019
		C14.6500168,72.5953445,14.5885744,72.4483414,14.5271339,72.3013382z"/>
	<path fill="#FF8366" d="M66.8179398,21.9692554c-0.1563644-0.1310406-0.3127289-0.2620792-0.4690933-0.393116
		C66.5052109,21.70718,66.6615753,21.8382149,66.8179398,21.9692554z"/>
	<path fill="#FF8366" d="M67.477623,22.4085617c-0.1564789-0.1312733-0.312973-0.2625484-0.4694595-0.3938217
		C67.16465,22.1460133,67.3211365,22.2772884,67.477623,22.4085617z"/>
	<path fill="#FF8366" d="M137.5589447,128.5926056c-2.539978,0.5299683-6.9400024,1.2199707-6.6300049-4.2100143
		c0.1300049-2.4299927-0.1500244-4.7799683-1-7.1900024c-2.0599976-5.7699585-8.210022-8.039978-10.6300049-13.2699585
		c1.0999756-0.0800171,1.4100342,0.2699585,2.3900146,1.1799927c3.4099731,3.1799927,7.2799683,6.1300049,11.9799805,6.2099609
		c5.8800049,0.1100464,11.6099854-6.2299805,10.960022-12.7799683c-0.9899902-10.1600342,0.0899658-21.0200195-8.4000244-29.289978
		c-2.5599976-2.4900513-4.9099731-4.9200439-8.3999634-5.210022c-5.7300415-0.4799805-11.1700439-0.3200073-16.460022,3.3699951
		c-6.0900269,4.25-11.1500244,10.4299927-6.5499878,18.2600098c0.3099976,0.5199585,0.0799561,1.3699951,0.0899658,2.0599976
		c-0.4799805-0.3400269-0.9400024-0.7000122-1.4400024-1.0100098c-1.5999756-1-3.1099854-2.5100098-4.8499756-2.8599854
		c-6.7700195-1.3500366-17.0700073,8.5-16.4500122,15.5199585c0.2900391,3.4000244-0.6699829,6.6200562-1.7600098,9.7000122
		c-2.2799683,6.4299927-5.7699585,12.5800171-4.1199951,19.7600021c0.7000122,3.0200195-0.8099976,3.5700073-3.2399902,3.9799805
		c-13.7100182,2.3300171-19.4099693,4.2700195-20.2899742,16.4900513
		c-0.3600464,5.0099487,4.1599731,11.789978,8.7999878,13.3099976c1.1099854,0.3599854,3.9000206-0.6900024,3.2899742,1.0899658
		c-1.010006,2.9899902-3.2899742,5.5400391-5.0399742,8.2800293c-0.460022,0.7199707-2.0700073,0.9299927-1.3499756,2.1300049
		c0.5699463,0.9599609,1.8799438,2.3999634,2.4499512,2.2299805c1.0800171-0.3099976,0.6400146-1.7600098,0.3500366-2.7800293
		c0.2299805-0.0599976,0.4699707-0.1199951,0.7000122-0.1799927c-0.9100342-1.2399902-1.7300415-2.4599609,0.4299927-3.289978
		c1.3099976-1.25,2.6199913-2.5,3.9299889-3.7600098c2.9299927-3.8800049,6.3699951-6.7799683,11.6799927-6.1300049
		c1.0800171,0.0599976,2.1599731,0.1300049,3.2399902,0.1900024c1.8499756-0.2199707,3.6900024-0.4400024,5.539978-0.6699829
		c1.4100342-2.0400391,3.4100342-2.5100098,5.7300415-2.1600342c-2.710022-5.0499878,2.3599854-11.6099854,9.3399658-13.039978
		c4.9700317-1.0100098,10.1400146-2.039978,14.1799927-5.6300049c1.1199951,1.2999878,1.3000488-3.1099854,2.4400024-0.4500122
		c0.3200073,0.75-0.6499634,1.960022-0.7099609,2.9800415c-0.6000366,10.2699585-0.75,20.5199585,1.7600098,30.6199951
		c4.7299805-2.4800415,6.0699463,3,9.3299561,3.9699707c1.1400146,0.6000366,2.2700195,1.2000122,3.4100342,1.7999878
		c0.4799805-0.3800049,1.0299683-0.7099609,1.4400024-1.1599731c8.0799561-8.9700317,14.6999512-18.789978,17.5599976-30.75
		C152.8089447,139.4126129,146.7789154,126.6626205,137.5589447,128.5926056z M118.7389374,70.5725937
		c1.75-0.289978,3.5300293-0.4400024,3.7800293-0.4699707c11.9799805,0,19.3599854,8.4500122,19.6499634,20.7099609
		c0.2399902,10.5599976-1.5800171,14.0300293-10.5299683,16.4400024c-4.1500244,1.1199951-8.0300293-1.539978-10.8500366-4.8499756
		c-4.039978-4.7299805-8.2699585-9.3300171-11.8299561-14.4000244
		C103.9689178,80.9226303,109.0589447,72.1325912,118.7389374,70.5725937z M117.7289276,101.3326035
		c0.0499878,0.1699829-0.4899902,0.7800293-0.5899658,0.7399902c-2.4100342-0.8999634-4.1600342-2.4299927-4.960022-6.1099854
		c0.0200195,0,0.7600098-0.4400024,1.1400146-0.2299805C115.5489349,96.9626083,116.9189301,98.9525986,117.7289276,101.3326035z
		 M88.6789398,152.5625763c-4.7600098,4.2300415-10.8800049,5.0200195-17.1500244,4.460022
		c-2.8699951-0.2600098-5.6900024-0.2799683-7.8499718-2.710022c-3.289978-3.6900024-5.1099854-7.6399536-2.1099854-12.2599487
		c3.510006-5.3800049,9.2899742-6.0500488,14.1099815-6.6600342c6.6599731-0.210022,10.3499756,3.5599976,12.8900146,7.7200317
		C90.0689545,145.5725861,91.5489349,150.0025787,88.6789398,152.5625763z M113.5489349,134.4226227
		c-6.210022,2.4599609-12.3499756,4.3699951-19.0700073,3.1499634c-6.0700073-1.0999756-11.4500122-8.8399658-11.3099976-15.0599899
		c0.1900024-8.1699829,0.0300293-16.3800049,2.3699951-24.289978c1.6900024-5.6799927,5.6099854-10.1799927,11.6099854-10.2000122
		c5.7900391-0.0299683,10.2000122,3.9199829,12.5200195,9.3499756c1.4500122,3.4300537,4.5700073,4.8300171,7.0400391,7.0500488
		c4.4299927,3.9899902,7.1199951,9.0199585,8.3199463,13.6900024
		C125.0289154,124.9826279,118.8989105,132.3125763,113.5489349,134.4226227z M123.7789154,131.7525787
		c-0.3800049,2.1500244-1.6199951,3.3000488-3.5499878,3.6900024c-0.0999756,0.0200195-0.4500122-0.4299927-0.4199829-0.6300049
		c0.2700195-2.0699463,2.1699829-2.4299927,3.5800171-3.289978
		C123.4689178,131.4726105,123.7389374,131.7226105,123.7789154,131.7525787z M119.4489594,136.8925934
		c0.0499878,0.1500244-0.1799927,0.3800049-0.4100342,0.8099976c-0.2299805-0.5100098-0.4199829-0.7799683-0.4500122-1.0599976
		c-0.0099487-0.1499634,0.25-0.3300171,0.3900146-0.5C119.1489105,136.3925934,119.378952,136.6126251,119.4489594,136.8925934z
		 M145.4889374,141.032608c-1.8699951,9.0100098-3.7799683,18.3999634-11.9000244,24.4199829
		c-2.1599731,1.6000366-4.9899902,1.4899902-7.8499756,1.4199829c-10.1099854-0.2599487-4.789978-8.5799561-7.1500244-11.9199829
		c0.3400269-7.2700195-0.2799683-13.9899902,3.8900146-19.2199707c3.9000244-4.8800049,9.8200073-5.25,15.5599976-4.1600342
		C143.0489349,132.5125885,146.5189667,136.0625763,145.4889374,141.032608z"/>
	<path fill="#FFAF99" d="M39.3189583,90.7625961v-0.2099609c-2.3699951-2.75-6.8500366-4.1100464-5.9299927-9.0200195
		c-0.5900269-1.539978-1.1700439-3.0700073-1.7600098-4.6099854c-3.0700073,3.8699951-7,7.4899902-5.0300293,13.1799927
		c1.8800049,5.4199829-0.9799805,11.1400146,1.2999878,16.4799805c2.25,2.210022,4.5600586,4.3599854,5.9500122,7.2600098h0.0100098
		c1.9000244-0.1400146,3.8699951,1.8099976,5.6799927-0.2299805c0.960022-3.5800171,1.9200439-7.1700439,2.8699951-10.7600098
		c0-0.1500244,0.0100098-0.2999878,0.0100098-0.4500122c0-0.1400146,0-0.2800293,0.0100098-0.4199829
		C42.6789436,97.8825912,40.998951,94.3225937,39.3189583,90.7625961z M39.2089729,106.6225815
		c-3.2200317,0.3000488-4.0900269-2.9400024-4.2800293-5.1699829c-0.2199707-2.5499878,0.1400146-6.3499756,3.8900146-5.9400024
		c2.4199829,0.2600098,3.0299683,3.4100342,3,6.3800049C41.2789192,103.3725815,41.8489265,106.3725815,39.2089729,106.6225815z"/>
	<path fill="#FFAF99" d="M157.4289398,117.5326157c-3.7399902,1.2799683-7.0700073-2-7.5700073-7.4400024
		c0.2700195,0.1099854,0.6000366,0.1500244,0.789978,0.3300171c4.1300049,4.2299805,8.0600586,3.8499756,10.1200562-1.710022
		c3.4799805-9.3400269,3.7799683-18.7399902-2.6200562-27.2000122c-1.4499512-1.9099731-2.4299927-5.0700073-6.0999756-4.0599976
		c-3.4500122,0.9400024-4.7299805,3.8500366-6.3200073,6.5200195c-0.0199585-0.2999878-0.039978-0.6000366-0.0599976-0.9000244
		c1.5900269-4.1400146,4.0700073-7.4799805,8.2999878-9.2699585c0.9800415-0.4100342,2.0300293-0.7000122,2.4200439,0.4799805
		c1.6300049,4.8599854,6.5899658,6.4199829,9.4400024,9.8099976c2.289978,2.7199707,3.7399902,6.75,4.2699585,10.8800049
		C171.3489227,104.7826157,166.1589203,114.5326157,157.4289398,117.5326157z"/>
	<path fill="#FF8366" d="M80.2089691,92.3026352c0.1899414-7.4500122-0.25-14.5599976-6.3600464-20.1800537
		c-7.1499634-6.5699463-19.4699669-3.8499756-24.1899986,4.4200439c-3.2199707,5.6399536-3.4499512,11.1599731-4.1599731,17.1499634
		c-1.3300171,11.2900391,3.75,19.9100342,14.7199707,21.2000122c7.2499962,0.8599854,16.4700279-3.3200073,18.8500328-13.5999756
		v-0.4000244c0.1599731-0.1599731,0.3099976-0.3099976,0.4599609-0.4699707
		c0.8900146,4.2699585-6.1599731,12.9299927-11.7099609,14.9499512c-7.4399986,2.710022-14.4600182,2.5100098-20.299984-3.1499634
		c-2.5900269-2.5-1.8000488-6.5900269-2.1600342-10.0499878c-0.5800171-5.4900513-1.5899658-10.9500122-1.9799805-16.4500122
		c-0.3599854-4.9799805,1.0700073-9.6400146,4.5899658-13.3500366c3.3300171-3.5,6.7700195-6.9699707,11.9700317-7.5699463
		c10.299984-1.1800537,20.5299644,7.9099731,20.7000084,18.3599854
		C80.6889496,86.2226181,81.3689423,89.3026352,80.2089691,92.3026352z"/>
	<path fill="#FFEBE6" d="M114.8889618,30.5125961c-1.1000366,0.2900391-2.1900024,0.5800171-3.2900391,0.8800049
		c-1.0899658,0.5200195-2.1900024,1.039978-3.2799683,1.5599976c-8.4000244,2.3200073-11.1799927,0.5400391-12.3500366-7.8699951
		c-0.039978-2.460022-0.6799927-6.2000122,1.710022-6.710022c4.9299927-1.0299683,10.8099976-2.7799692,13.7800293,3.9700317
		C112.6489105,25.0426254,113.7489471,27.7826157,114.8889618,30.5125961z"/>
	<path fill="#FFEBE6" d="M155.7389374,104.432579c-1.1900024,3.4900513-3.1199951,4.6500244-6.5100098,3.0100098
		c-1.1199951-7.0299683-2.25-14.0599976-3.3699951-21.0899658c0.1000366-0.4299927,0.2000122-0.8599854,0.2999878-1.2999878
		c1.7700195-2.5599976,3.75-5.4200439,7.1100464-2.6500244c2.2799683,1.8900146,2.9199829,5.0499878,3.2599487,8.0200195
		C157.0789642,95.1325912,157.338913,99.7926254,155.7389374,104.432579z"/>
	<path fill="#FFD7CC" d="M169.0589447,70.5426254c-0.9400024,3.75-6.4899902,3.1199951-8,6.8299561
		c-1.7000122-0.4400024-2.6300049-1.5699463-2.8800049-3.2799683c1.6599731-0.3800049,3.8200073-0.6400146,3.8800049-2.6699829
		c0.0899658-3.2800293-0.1900024-6.6700439-3.4100342-8.7800293c-0.0599976-0.2299805-0.1199951-0.460022-0.1899414-0.6900024
		c-0.0200195-0.1499634-0.0400391-0.2999878-0.0600586-0.4500122c-2.3399658-3.5099487-4.6799927-7.0099487-7.0199585-10.5199585
		c2.539978-0.2000122,5.2199707-2.7000122,7.5599976,0.1199951c2.3499756,2.8200073,4.6199951,5.75,6.5700073,8.8499756
		C167.5189667,63.1726303,170.0389252,66.6325912,169.0589447,70.5426254z"/>
	<path fill="#FFAF99" d="M168.3489227,73.432579c-2.8099976,0.7600098-1.5999756,6.6000366-6.2099609,4.5700073
		c-0.3800049-0.1599731-0.7200317-0.4199829-1.0800171-0.6300049c1.5100098-3.7099609,7.0599976-3.0799561,8-6.8299561
		c0.9799805-3.9100342-1.539978-7.3699951-3.5499878-10.5900269c-1.9500122-3.0999756-4.2200317-6.0299683-6.5700073-8.8499756
		c-2.3400269-2.8200073-5.0200195-0.3200073-7.5599976-0.1199951c-0.1500244-0.2900391-0.2999878-0.5800171-0.4500122-0.8600464
		c5.3699951-4.2799683,10.0100098-3.4299927,13.789978,2.8300171c2.3500366,3.8800049,4.5,7.9100342,6.3500366,12.0400391
		C172.5989227,68.392601,173.1889496,72.1225815,168.3489227,73.432579z"/>
	<path fill="#FF8366" d="M143.0289154,30.3225937c-0.5799561-0.5799561-1.1599731-1.1599731-1.75-1.7399902
		c0.9100342-7.9199829-9.3999634-16.789978-17.3800049-14.9500132c-1.7199707-1.8099976-1.7699585-3.4699707-0.0999756-3.5199585
		c1.4299927-0.0500488,2.8499756-0.1900024,4.2700195-0.210022c9.6300049-0.1599731,12.6900024,3.2299805,14.7299805,16.2600098
		c0.0900269,0.539978,0.2200317,1.0800171,0.2399902,1.6300049
		C143.0789642,28.6325912,143.0389252,29.4826279,143.0289154,30.3225937z"/>
	<path fill="#FFAF99" d="M31.3989143,76.0426254c-0.6799927,0.5299683-1.4299927,1.0100098-2.0199585,1.6300049
		c-1.1799927,1.2199707-2.7000122,1.7299805-4.1699829,1.3099976c-1.4900513-0.4200439,0.1699829-1.4500122-0.0200195-2.3000488
		c-0.7700195-3.4199829-1.6799927-6.8499756-1.9500122-10.3199463c-0.2600098-3.3300171,2.1799927-5.5500488,4.4299927-7.6700439
		C27.1689339,64.852623,29.5289192,70.392601,31.3989143,76.0426254z"/>
	<path fill="#FFD7CC" d="M85.7289276,37.3725815c-0.0800171,0.2200317-0.1699829,0.4400024-0.25,0.6600342
		c-0.1599731,0.289978-0.3200073,0.5700073-0.4899902,0.8499756c0.0300293-0.2199707,0.0599976-0.4299927,0.0900269-0.6499634
		c-2.7900391-3.0500488-6.4700317-1.5300293-9.7000122-1.6000366c-2.9299927-0.0599976-6.1400146,0.6600342-6.6000366,4.6700439
		c-1.3199463-0.3600464-2.6399536-0.7200317-3.9599609-1.0800171c-0.8800011-2.6300049,2.1300049-1.3500366,2.6199951-2.6199951
		c0.0599976-0.0100098,0.1199951-0.0200195,0.1900024-0.0300293c2.2000122,0,3.0199585-1.789978,3.8399658-3.2699585
		c2.960022-5.3200073,7.9200439-3.1200562,11.9700317-2.8400269C86.2989349,31.6726303,86.5289154,34.7525864,85.7289276,37.3725815
		z"/>
	<path fill="#FFD7CC" d="M171.5089569,124.8026352c-0.0599976,3.0099487-2.210022,4.2099533-4.5300293,5.5799484
		c-3.1400146,1.8600464-4.2699585,5.2700195-5.1199951,8.6400146c-0.1699829,0.6599731,0.2299805,1.460022,0.3599854,2.1900024
		c-0.7799683-0.4699707-1.5999756-0.8900146-2.3200073-1.4400024c-0.5599976-0.4299927-0.9799805-1.0299683-1.4599609-1.5599976
		c-0.1400146-0.5100098-0.2800293-1.0100098-0.4299927-1.5200195c0.0199585-0.3800049,0.0299683-0.7600098,0.0499878-1.1300049
		c1.0599976,0.3900146,2.1799927,0.5,2.4000244-0.8999634c0.3399658-2.1500244,1.6599731-3.2700195,3.289978-4.5300293
		c1.7000122-1.3200073,2.0200195-3.599968,1.6699829-5.7899704c-0.2000122-1.2299805-1.0499878-1.8400269-2.1699829-2.1699829
		c1.960022-1.6000366,4.2299805-1.8699951,6.4199829-0.8900146
		C170.9589691,121.852623,171.5289154,123.3426132,171.5089569,124.8026352z"/>
	<path fill="#FFD7CC" d="M149.6589203,47.0125961c-0.1499634-0.5-0.3099976-1.0100098-0.4599609-1.5199585
		c2.8699951-1.7400513,1.289978-4.2600098,0.7600098-6.25c-0.75-2.8400269-2.1600342-5.5100098-4.8900146-7.1300049
		c-0.1600342-1.9100342-0.3099976-3.8099976-0.4700317-5.7200317c0.8099976,0.1900024,1.9200439,0.1099854,2.3800049,0.6099854
		c3.1099854,3.4000244,6.5,6.6799927,6.8599854,11.6799927C154.0989227,42.2826157,153.4689178,45.4525986,149.6589203,47.0125961z"
		/>
	<path fill="#FFEBE6" d="M85.0789642,38.2326279c-0.0300293,0.2199707-0.0599976,0.4299927-0.0900269,0.6499634
		c-1.7799683,2.9899902-4.6900024,3.7600098-7.8699951,3.9700317c-2.7800293-0.5200195-5.5599976-1.0400391-8.3400269-1.5499878
		c0.460022-4.0100098,3.6700439-4.7300415,6.6000366-4.6700439C78.6089325,36.7025986,82.2889252,35.182579,85.0789642,38.2326279z"
		/>
	<path fill="#FFD7CC" d="M138.4289398,27.0326157c-7.9299927,0.3699951-11.4000244-4.6799927-13.6500244-11.2200327
		C129.4589691,15.9026098,137.4389496,22.4726181,138.4289398,27.0326157z"/>
	<path fill="#FFD7CC" d="M134.0289154,179.1026154c-3.5799561,2.3200073-7.0899658,4.7600098-10.7799683,6.8900146
		c-1.6000366,0.9299927-3.4799805,1.8399658-5.4500122,1.1399536c-0.2399902-0.0899658-0.0100098-1.5100098,0-2.3200073
		c4.9400024-1.3499756,7.3599854-5.8699951,11.0499878-8.7999878c1.1400146,0.6000366,2.2700195,1.2000122,3.4100342,1.7999878
		C132.8489227,178.24263,133.4389496,178.6726227,134.0289154,179.1026154z"/>
	<path fill="#FFAF99" d="M141.2789154,28.5826035c-0.9499512-0.5200195-1.8999634-1.0299683-2.8499756-1.5499878
		c-0.9899902-4.5599976-8.9699707-11.1300058-13.6500244-11.2200327c-0.289978-0.7199707-0.5899658-1.4499512-0.8800049-2.1799927
		C131.878952,11.7926245,142.1889496,20.6626205,141.2789154,28.5826035z"/>
	<path fill="#FFAF99" d="M137.7589569,180.2126007c-0.4299927,1.7399902-2.1300049,1.9000244-3.3600464,2.460022
		c-4.5499878,2.0999756-9.1499634,4.1099854-13.8199463,5.9299927c-1.6400146,0.6400146-3.3400269,0.5700073-3.5599976-2.0499878
		c-0.2700195-3.1600342-1.4500122-5.9100342-4.5200195-7.4500122c1.1799927-0.9400024,2.3599854-1.8900146,3.539978-2.8300171
		c0.5700073,2.4799805,1.1500244,4.960022,1.7300415,7.4400024c0.0099487,0.3699951,0.0199585,0.7299805,0.0299683,1.0999756
		c-0.0100098,0.8099976-0.2399902,2.2300415,0,2.3200073c1.9700317,0.7000122,3.8499756-0.2099609,5.4500122-1.1399536
		c3.6900024-2.1300049,7.2000122-4.5700073,10.7799683-6.8900146
		C135.2789154,179.4726105,136.5189667,179.8426056,137.7589569,180.2126007z"/>
	<path fill="#FFAF99" d="M154.3589325,44.2025986c-0.9099731,1.710022-2.1099854,3.4199829-4.5100098,3.2800293
		c-0.0599976-0.1600342-0.1300049-0.3099976-0.1900024-0.4700317c3.8099976-1.5599976,4.4400024-4.7299805,4.1799927-8.3300171
		c-0.3599854-5-3.75-8.2799683-6.8599854-11.6799927c-0.4599609-0.5-1.5700073-0.4199829-2.3800049-0.6099854
		c0.0700073-1.1099854,0.1300049-2.210022,0.2000122-3.3200073c5.1099854,1.3800049,7.3499756,6.0200195,10.1500244,9.6799927
		C157.5989227,36.2126083,156.2989349,40.5125961,154.3589325,44.2025986z"/>
	<path fill="#FFEBE6" d="M163.7489471,130.1325836c-1.6300049,1.2600098-2.9500122,2.3800049-3.289978,4.5300293
		c-0.2200317,1.3999634-1.3400269,1.289978-2.4000244,0.8999634c0.0100098-3.7199707,0.6500244-7.3099976,2.1300049-10.7399826
		c0.4400024-0.5700073,0.8900146-1.1400146,1.3399658-1.7099609c0.2200317-0.210022,0.4400024-0.4300537,0.6600342-0.6400146
		c0.1400146-0.0900269,0.2799683-0.1799927,0.4199829-0.2600098c0.2200317-0.0200195,0.4299927-0.0300293,0.6400146-0.039978
		c1.1199951,0.3299561,1.9699707,0.9400024,2.1699829,2.1699829
		C165.7689667,126.5326157,165.4489594,128.8125763,163.7489471,130.1325836z"/>
	<path fill="#FFEBE6" d="M162.0589447,71.4226303c-0.0599976,2.0299683-2.2200317,2.289978-3.8800049,2.6699829
		c0-1.6199951-0.0100098-3.25-0.0200195-4.8699951c0.1600342-2.2000122,0.3300171-4.3900146,0.4899902-6.5800171
		C161.8689423,64.7525864,162.1489105,68.142601,162.0589447,71.4226303z"/>
	<path fill="#FFEBE6" d="M149.1989594,45.4926376c-1.3800049-4.460022-2.75-8.9200439-4.1300049-13.3800049
		c2.7299805,1.6199951,4.1400146,4.289978,4.8900146,7.1300049
		C150.4889374,41.2326279,152.0689545,43.7525864,149.1989594,45.4926376z"/>
	<path fill="#FF8366" d="M61.9589729,39.5625839c-3.0200195-1.0199585-6.9300537-1.0799561-6.3700562-5.9400024
		c0.7200317,0.3000488,1.4500122,0.6000366,2.1700439,0.8900146c1.1799927,0.8099976,2.3499756,1.6199951,3.5299683,2.4299927
		C61.5089607,37.8125839,61.7289314,38.682579,61.9589729,39.5625839z"/>
	<path fill="#FF8366" d="M39.3189583,90.5526352c-2.3699951-2.75-6.8500366-4.1100464-5.9299927-9.0200195
		C35.3589363,84.5426254,37.3389168,87.5426254,39.3189583,90.5526352z"/>
	<path fill="#FFAF99" d="M67.4389496,37.602623c-0.4899902,1.2699585-3.4999962-0.0100098-2.6199951,2.6199951
		c-0.9600182-0.2200317-1.9100304-0.4400024-2.8599815-0.6600342c-0.2300415-0.8800049-0.4500122-1.75-0.6700439-2.6199951
		c0.4200439,0.2200317,0.8500366,0.4400024,1.2800293,0.6600342C64.1889496,38.3026352,65.8089447,38.1726303,67.4389496,37.602623z
		"/>
	<path fill="#FFAF99" d="M42.4289436,101.9826279c0.25-4.1000366-1.4299927-7.6600342-3.1099854-11.2200317
		C41.9389534,94.0625839,43.5889168,97.6325912,42.4289436,101.9826279z"/>
	<path fill="#FF8366" d="M180.8189545,128.2226105c-0.5900269,0.7700195-1.5599976,1.2999878-1.0800171,2.5h-4.8300171
		c0.1700439-0.5,0.2000122-1.1900024,0.5599976-1.460022c2.7300415-2.099968,3.3099976-4.640007,1.7400513-7.679985
		c-1.0700073-2.0599976-3.1000366-2.1599731-5.0200195-2.2199707c-3.4799805-0.1100464-6.9299927,0.0599976-9.5800171,2.8499756
		c-0.1400146,0.0800171-0.2799683,0.1699829-0.4199829,0.2600098c-0.2200317,0.2099609-0.4400024,0.4299927-0.6600342,0.6400146
		c-0.4499512,0.5699463-0.8999634,1.1399536-1.3399658,1.7099609c-0.3599854-1.2399902,0.1400146-2.0100098,1.3099976-2.4199829
		c0-0.0700073,0.0100098-0.1400146,0.0100098-0.210022c1.1300049-1.8999634,2.5999756-3.3999634,4.8200073-4
		c0.1900024-0.0599976,0.3599854-0.1799927,0.539978-0.2799683c-0.0900269-0.1699829-0.1300049-0.4299927-0.2800293-0.5
		c-0.3699951-0.1900024-0.8899536-0.5300293-1.1499634-0.4100342c-2.0900269,1-4.0800171,2.210022-6.210022,3.1199951
		c-4.8800049,2.0800171-9.2099609-0.7299805-9.5700073-6.1299438c-0.0999756-1.5100098-0.0299683-3.0400391-0.039978-4.5500488
		c0.0800171,0.210022,0.1599731,0.4299927,0.2399902,0.6500244c0.5,5.4400024,3.8300171,8.7199707,7.5700073,7.4400024
		c8.7299805-3,13.9199829-12.75,12.6699829-22.5599976c-0.5299683-4.1300049-1.9799805-8.1600342-4.2699585-10.8800049
		c-2.8500366-3.3900146-7.8099976-4.9500122-9.4400024-9.8099976c-0.3900146-1.1799927-1.4400024-0.8900146-2.4200439-0.4799805
		c-4.2299805,1.789978-6.7099609,5.1299438-8.2999878,9.2699585c-0.1799927-5.3800049,7.2999878-13.6799927,12.4899902-13.8499756
		c0.0100098,1.6199951,0.0200195,3.25,0.0200195,4.8699951c0.25,1.710022,1.1799927,2.8399658,2.8800049,3.2799683
		c0.3599854,0.210022,0.7000122,0.4700317,1.0800171,0.6300049c4.6099854,2.0300293,3.3999634-3.8099976,6.2099609-4.5700073
		c4.8400269-1.3099976,4.25-5.039978,2.7200317-8.4399414c-1.8500366-4.1300049-4-8.1600342-6.3500366-12.0400391
		c-3.7799683-6.2600098-8.4199829-7.1099854-13.789978-2.8300171c-0.3599854-0.8799438-0.7199707-1.7599487-1.0800171-2.6399536
		c2.4000244,0.1399536,3.6000366-1.5700073,4.5100098-3.2800293c1.9400024-3.6900024,3.2399902-7.9899902,0.5900269-11.4500122
		c-2.8000488-3.6599731-5.0400391-8.2999878-10.1500244-9.6799927c0.0300293-2.0899658-0.4299927-5.4599609,1.6600342-5.5499878
		c2.5799561-0.1199951,2.6799927,3.6300049,3.6999512,5.6900024c1.7900391,3.6199951,5.5400391,5.0200195,7.9200439,7.8699951
		c2.7199707,3.25,1.539978,6.9000244,0.7599487,10.4799805c-0.0899658,0.4100342,0.2400513,1.3200073,0.3600464,1.3200073
		c7.9499512-0.1499634,7.6599731,7.4700317,10.6300049,11.7300415c2.5599976,3.6699829,3.8199463,8.3199463,5.2099609,12.6900024
		c0.8200073,2.5799561-1.5,4.2399902-3,6.0699463c-0.6599731,0.8099976-1.3399658,2.0400391-1.2099609,2.9800415
		c0.2699585,2.0100098,0.9599609,3.6300049-1.5,5.0999756c-0.9200439,0.5599976,1.2599487,2.0300293,2.0599976,2.9299927
		c5.7599487,6.460022,6.9599609,16.1700439,3.1199951,23.9100342c-1.4899902,3-2.7800293,5.8999634-6.0499878,7.3299561
		c-0.4100342,0.1800537-0.6800537,0.7000122-1.0200195,1.0599976c0.8699951,0.3100586,1.7199707,0.8300171,2.5999756,0.9100342
		c3.8599854,0.3900146,8.0200195-0.1500244,11.1700439,2.6699829
		C184.128952,122.8725815,182.7689667,125.682579,180.8189545,128.2226105z"/>
	<path fill="#FFD7CC" d="M160.7689667,108.7126083c-2.0599976,5.5599976-5.9900513,5.9400024-10.1200562,1.710022
		c-0.1899414-0.1799927-0.5199585-0.2200317-0.789978-0.3300171c-0.0800171-0.2200317-0.1599731-0.4400024-0.2399902-0.6500244
		c-0.1300049-0.6699829-0.2600098-1.3299561-0.3900146-2c3.3900146,1.6400146,5.3200073,0.4800415,6.5100098-3.0100098
		c1.5999756-4.6399536,1.3400269-9.2999878,0.789978-14.0099487c-0.3399658-2.9700317-0.9799805-6.1300049-3.2599487-8.0200195
		c-3.3600464-2.7700195-5.3400269,0.0900269-7.1100464,2.6500244c-0.0999756,0.4400024-0.1999512,0.8699951-0.2999878,1.2999878
		c-0.0499878-0.4400024-0.0999756-0.8800049-0.1400146-1.3300171c0-0.3499756,0.0100098-0.7000122,0.0100098-1.0499878
		c1.5900269-2.6699829,2.8699951-5.5800171,6.3200073-6.5200195c3.6699829-1.0100098,4.6500244,2.1500244,6.0999756,4.0599976
		C164.5489349,89.9726181,164.2489471,99.3725815,160.7689667,108.7126083z"/>
	<path fill="#FFAF99" d="M80.2089691,92.3026352c0,0.3699951-0.0100098,0.7299805-0.0100098,1.0999756v0.6500244
		c-0.1500244,1.7599487-0.3000488,3.5199585-0.4400024,5.2799683c-0.0800171,0.2200317-0.1500244,0.4400024-0.2300415,0.6600342
		v0.4299927c-0.1499634,0.1599731-0.2999878,0.3099976-0.4599609,0.4699707
		c0.0100098-0.2999878,0.0100098-0.5999756,0.0199585-0.8999634c0-0.2200317,0.0100098-0.4400024,0.0100098-0.6600342
		c0.5800171-4.6300049,0.6199951-9.2600098,0.2600098-13.9299927c-0.3800049-5.0800171-5.7799683-11.6599731-11.5999756-13.0900269
		c-5.5599937-1.3699951-10.1799889,1.1800537-13.2200279,5.3500366c-4.9799805,6.7999878-7.7799683,14.3699951-5.7000122,23.2000122
		c1.6100464,6.8199463,6.0800171,10.3499756,12.3600464,11.5299683c5.5799522,1.0599976,10.7099571-0.5100098,14.2099571-5.4899902
		c1.2800293-1.8300171,2.4400024-3.7399902,3.6600342-5.6099854c-2.3800049,10.2799683-11.6000366,14.4599609-18.8500328,13.5999756
		c-10.9699707-1.289978-16.0499878-9.9099731-14.7199707-21.2000122c0.710022-5.9899902,0.9400024-11.5100098,4.1599731-17.1499634
		c4.7200317-8.2700195,17.0400352-10.9899902,24.1899986-4.4200439
		C79.9589691,77.7426376,80.3989105,84.852623,80.2089691,92.3026352z"/>
	<path fill="#FFAF99" d="M34.0341988,119.7552261c-0.8816414,3.1059113-1.9501953,6.4958878-6.0275955,5.6016541
		c-4.4781017-0.9820786-4.6869411-5.1823273-5.0607376-8.8189011c-0.2450829-2.3843002-2.2931919-2.2660599-3.6061134-2.909584
		c-7.408082-3.6310501-6.4647837-9.951149-6.206727-17.9448471c0.2350197-7.2801056,2.771471-14.1516113,4.0340853-21.2528534
		c0.0637188-0.3583527,0.4134483-0.9081421,0.6905651-0.9480209c2.285326-0.3289337,3.4728222,1.3302917,4.7668018,2.7711639
		c-2.1718235-0.0670319-2.308569,1.7759476-2.4735165,3.0924072c-0.1957836,1.5626144-1.4071102,3.1612854-0.202879,4.7940369
		c0.003933,1.0409851,0.0078697,2.0819702,0.0118065,3.1229553c-0.2208862,0.2594528-0.595705,0.4952011-0.6398354,0.781868
		c-0.813303,5.2830734-1.6530304,10.5895538-0.462635,15.9102097c1.4443569,6.4557877,5.0014973,8.9957886,8.7910957,6.4496613
		c0.3108768-0.2088852,0.6674557-0.3497314,1.0027962-0.5221863c0.0547028,0.407135,0.1383171,0.812767,0.1596146,1.2216263
		C29.0097771,114.9217377,25.8366108,120.7673569,34.0341988,119.7552261z"/>
	<path fill="#FFD7CC" d="M34.0341988,119.7552261c-8.197588,1.0121307-5.0244217-4.8334885-5.2232742-8.6508102
		c-0.0212975-0.4088593-0.1049118-0.8144913-0.1596146-1.2216263c-0.3353405,0.1724548-0.6919193,0.3133011-1.0027962,0.5221863
		c-3.7895985,2.5461273-7.3467388,0.0061264-8.7910957-6.4496613c-1.1903954-5.3206558-0.350668-10.6271362,0.462635-15.9102097
		c0.0441303-0.2866669,0.4189491-0.5224152,0.6399956-0.7819748c0.5737133,2.8466492,3.184267,5.0996933,2.2121277,8.4324722
		c-0.9348717,3.20504,0.4818039,5.7355499,2.8505859,7.8318939c0.957552,1.0197601,1.9151058,2.0395203,2.8726654,3.0592957
		c2.2503281,2.2031784,4.5680847,4.350975,5.9583321,7.2602005
		C34.6550255,115.7938385,34.5396996,117.7685776,34.0341988,119.7552261z"/>
	<path fill="#FF6633" d="M25.0227623,103.5274963c-2.368782-2.096344-3.7854576-4.6268539-2.8505859-7.8318939
		c0.9721394-3.3327789-1.6384144-5.5858231-2.2121277-8.4324722c-0.004097-1.0408783-0.0080338-2.0818634-0.0117226-3.1225967
		c0.8177834-1.2398834,1.6353264-2.4800034,2.4528713-3.7201309
		C25.5309048,87.8668365,24.7674599,95.7549591,25.0227623,103.5274963z"/>
	<path fill="#FFD7CC" d="M22.4011974,80.4204025c-0.8175449,1.2401276-1.635088,2.4802475-2.4528713,3.7201309
		c-1.2044754-1.6330032,0.0068512-3.2316742,0.2026348-4.7942886c0.1649475-1.3164597,0.301693-3.1594391,2.4735165-3.0924072
		C24.706028,77.7582016,23.5260773,79.0878296,22.4011974,80.4204025z"/>
	<path fill="#FFAF99" d="M85.726738,37.3764305c0.8019943-2.6205482,0.5714798-5.7051983-2.2919464-5.9097481
		c-4.0459213-0.2890205-9.0031967-2.4812241-11.96418,2.8373299c-0.8252182,1.4822693-1.6464081,3.2689857-3.8445129,3.2735138
		c2.7216949-2.2561836,2.5329285-5.5290985,2.995903-8.574316c1.6458435-0.0732288,1.3939667-1.6589813,1.797905-2.5379753
		c1.021553-2.2229671,2.4259186-3.7766247,4.9451447-3.0421715c3.8393707,1.1193409,8.6800079,1.1215668,9.5722504,6.4565773
		C87.3603592,32.4092636,87.4383087,35.0921135,85.726738,37.3764305z"/>
	<path fill="#FFD7CC" d="M62.5674438,37.6031113c-0.4269028-0.2217445-0.8538055-0.4434891-1.2807922-0.6651154
		c-1.1748009-0.8070068-2.3495216-1.6141243-3.5244217-2.4211617c1.5639572-2.8079357,1.8179665-6.2194633,4.2460251-8.6586075
		c2.0960617-2.1056309,4.3965378-2.816843,7.2096863-1.916048c1.2236786,0.5751076,1.9428101,1.4199123,1.5326767,2.8681507
		c-1.0114212,0.3170662-2.2283173,0.3780937-2.9981232,0.9960632
		C64.6485825,30.2980957,64.1705399,34.2633209,62.5674438,37.6031113z"/>
	<path fill="#FFEBE6" d="M62.5674438,37.6031113c1.603096-3.3397903,2.0811386-7.3050156,5.185051-9.7967186
		c0.7698059-0.6179695,1.986702-0.678997,2.9981232-0.9960632l0.0002213,0.0023575
		c-0.0002594,0.0749321-0.0004883,0.1498604-0.0007172,0.2247849c-0.0429459,0.6552086-0.0858917,1.3104153-0.128479,1.9656811
		c-0.462616,3.0452747-0.2738495,6.3181896-2.9955444,8.5743732c-0.0640106,0.0028229-0.1267166,0.0122604-0.1884842,0.0284348
		C65.8138351,38.1719055,64.1903839,38.3035011,62.5674438,37.6031113z"/>
	<path fill="#FFD7CC" d="M70.7501221,27.0374718c0.0002289-0.0749245,0.0004578-0.1498528,0.0007172-0.2247849
		c0.0170441,0.0515442,0.0406265,0.1022072,0.0478058,0.1550884C70.801445,26.9884338,70.7673798,27.0140915,70.7501221,27.0374718z
		"/>
	<path fill="#FFAF99" d="M149.2681732,56.8842697c-0.1167297,3.399971-2.1600342,4.5400963-4.3179169,5.5452347
		c-1.8560181,0.8645248-3.3163452-0.1681709-4.4651337-1.3499794c-3.6025391-3.7060928-4.6499786-8.6078835-5.0815735-13.4123001
		c-0.361618-4.0253448,2.2677002-5.2040062,5.5794067-2.9317322
		C145.422699,47.7817421,148.0748596,52.1723022,149.2681732,56.8842697z"/>
	<path fill="#FF6633" d="M116.0345001,176.2689209c-1.1770172,0.9455414-2.3540268,1.8910675-3.5309906,2.8366241
		c-1.031044,0.1496429-2.0621262,0.2992401-3.0933228,0.4489594c-2.3900833-0.357193-4.1113358-1.9065247-5.9111481-3.3159485
		c-0.5346298-0.6564331-1.0691833-1.3129272-1.6032944-1.9693604c2.8869019,1.1312256,6.1901245,2.6173706,7.4266586-1.6840668
		c0.7244415-2.5201263-1.5747299-4.3668213-3.6378937-5.7881165c-4.2362442-3.3025665-8.1056366-7.1286469-13.1795959-9.2358093
		c-2.7023468-5.05336,2.3605042-11.6101074,9.342865-13.0337677c4.968071-1.0129547,10.1422577-2.0414276,14.180687-5.6342316
		c1.1243362,1.296936,1.3037415-3.1092224,2.4377365-0.4487c0.32061,0.7522278-0.6475449,1.9630432-0.7073898,2.9821777
		c-0.6030731,10.269043-0.7457809,20.5188904,1.762619,30.6115112c-0.5370407,0.721344-1.0741043,1.4425812-1.6111526,2.1638336
		C117.2850189,174.8909912,116.6597595,175.5799713,116.0345001,176.2689209z"/>
	<path fill="#FFD7CC" d="M101.8953018,174.2691498c0.5345535,0.6564789,1.0691071,1.312973,1.6037369,1.9694061
		c-4.5559082,3.7841187-10.2159653,2.9112091-12.8684464-2.3253937c-2.4100571-4.7580109-7.4754639-5.3353424-11.1744003-5.4671173
		c-3.3049698-0.1177521-5.2959976,4.8542023-6.8809433,8.2766876c-0.6136322,1.325058-1.0474243,1.5399628-2.037735,0.6663818
		c-2.7334824-2.4112701-5.4315338-4.8627014-8.1436119-7.2982483c1.3074493-1.2513428,2.6149178-2.5027008,3.922596-3.7539673
		c1.6799469,1.7659454,3.6651459,4.9624176,5.8568268,3.5325012c3.1240997-2.038269,5.0225601-5.7451172,5.8263931-9.6682434
		c1.0811081,0.0648346,2.1622162,0.1296844,3.2438507,0.1946564c0.4420853,0.2868805,0.8496017,0.6636658,1.3307877,0.8456879
		c3.0574951,1.156662,6.9007568,0.5610046,8.6843491,4.4663696c1.3437958,2.942337,3.6837082,4.7262573,7.2108841,4.173584
		C99.6114883,171.3440247,100.7533951,172.8065796,101.8953018,174.2691498z"/>
	<path fill="#FFD7CC" d="M95.2815857,62.4157791c-9.2629318-0.0061302-16.1339035-7.4909058-13.9315872-15.1761627
		c1.9542313-6.8195648,12.18853-12.8671341,18.9405899-11.383091c2.8341904,0.6229362,6.2780304-1.9045143,8.3965225,2.282444
		C113.1860886,47.0306664,104.7971344,62.4220734,95.2815857,62.4157791z M95.2735138,61.9824905
		c5.6739883-0.0561905,10.7630234-6.2578812,10.6334991-12.9583817c-0.1445618-7.4785309-3.3429031-11.2700844-9.5550919-11.3273239
		c-5.3845291-0.049614-11.7133102,8.0518265-11.7454987,15.0353546
		C84.5836182,57.6819496,89.6075058,62.0386009,95.2735138,61.9824905z"/>
	<path fill="#FFAF99" d="M125.0241852,118.1104584c-0.0000916,6.8690796-6.1284637,14.1971741-11.4717102,16.3112793
		c-6.2166519,2.459671-12.3560257,4.3699646-19.0686493,3.1548462c-6.071434-1.0990906-11.4501495-8.8423767-11.3117828-15.0600052
		c0.1819992-8.1786957,0.0220108-16.3862076,2.3696594-24.2932968c1.6869965-5.6819382,5.6027222-10.1794662,11.6118622-10.2034531
		c5.7828522-0.0230865,10.1996536,3.9182739,12.5133743,9.3568039c1.4560776,3.4225845,4.5678711,4.8253555,7.0412827,7.0493927
		C121.143837,108.4144592,123.8323212,113.4417191,125.0241852,118.1104584z M119.9199142,117.3781586
		c0.0670242-3.9602356-1.5843277-7.157608-4.4069672-9.7877655c-3.1506195-2.9357681-7.4177246-4.5356827-9.3316498-8.9846344
		c-1.6124573-3.7482224-4.5626297-6.9937057-9.050087-6.5232697c-3.9188919,0.4108353-6.390358,3.345253-7.766983,7.1475296
		c-2.2902298,6.3256836-0.4832153,12.6520386-0.206604,18.9737396c0.140686,3.2153702,0.5362473,6.6536713,2.8001175,8.9810638
		c4.2210617,4.3394852,9.6254959,3.0165024,14.9200211,2.4747086
		C114.4396057,128.8857117,119.9110107,123.9964066,119.9199142,117.3781586z"/>
	<path fill="#FFAF99" d="M118.587059,154.9489594c0.3440399-7.2629089-0.2820129-13.9893646,3.896492-19.2203979
		c3.8932648-4.8739471,9.8114014-5.2469788,15.5572205-4.1603546c5.0092163,0.9473114,8.4740601,4.4993286,7.4473419,9.4616089
		c-1.8654327,9.0158386-3.7815552,18.4055786-11.8978119,24.4215851c-2.1648102,1.6046295-4.9893799,1.4942932-7.8474121,1.4206848
		C115.633522,166.6117706,120.9446106,158.2890472,118.587059,154.9489594z M119.8310623,153.0973206
		c0.8647385,3.0260162,0.4049301,7.0418549,4.5355377,8.5255737c2.4308548,0.8731232,4.5369034-0.5628967,6.3007736-1.8843689
		c5.6708679-4.2485809,8.5935211-10.2837219,9.8565216-17.0596161c0.7092438-3.8050232,0.0422058-7.7189178-4.2506409-9.0901184
		c-4.7032471-1.5023041-9.3770523-1.2214355-12.9092026,3.0143127
		C119.3642654,141.3996582,120.1935043,147.2585754,119.8310623,153.0973206z"/>
	<path fill="#FFAF99" d="M75.6772232,135.3894958c6.6611328-0.2059937,10.3554916,3.559845,12.8895798,7.7259521
		c1.4975128,2.4619141,2.9815063,6.8920135,0.1101685,9.4459686c-4.7600632,4.2339172-10.8744507,5.0215149-17.1504974,4.4596558
		c-2.8641281-0.2563934-5.6913071-0.2829132-7.8487282-2.7054749c-3.2860832-3.6899414-5.1120262-7.6439972-2.1050873-12.2597809
		C65.08181,136.6691284,70.8557053,136.0051117,75.6772232,135.3894958z M85.4107971,145.1522522
		c-0.9099121-4.019455-3.4024124-7.178894-8.0072937-7.1629486c-4.8913116,0.016922-9.9162521,1.8950348-10.0261078,7.4767609
		c-0.1051712,5.3427429,5.0165405,7.3573761,9.4612732,7.643631
		C81.4462585,153.4064331,85.6448212,151.5914612,85.4107971,145.1522522z"/>
	<path fill="#FFAF99" d="M122.5213776,70.1055069c11.97966,0,19.3624573,8.4458008,19.6430511,20.7096176
		c0.2415619,10.5575638-1.5751495,14.0230789-10.5282288,16.4376221c-4.1459274,1.1181107-8.0223694-1.5441437-10.8514252-4.8545837
		c-4.0356598-4.7223892-8.2687149-9.3251877-11.8302231-14.3918533c-4.9808655-7.0858688,0.0999756-15.8720322,9.7818909-17.4364395
		C120.4928284,70.2860794,122.2707367,70.1355667,122.5213776,70.1055069z M122.9976349,73.8427658
		c-0.5143356,0.0863571-1.6204147,0.3090744-2.7366104,0.4535828c-7.9381866,1.0277023-12.5673447,6.7423096-9.7816391,12.6999893
		c1.6001511,3.4221954,4.2517471,6.3801346,6.5925217,9.42202c3.2401123,4.2106018,6.6322861,8.9497833,12.5673294,8.4322891
		c5.6805725-0.4953156,8.4143066-4.8032455,9.5739594-10.2724533
		C141.5179291,83.7085037,134.1858368,73.8426666,122.9976349,73.8427658z"/>
	<path fill="#FFAF99" d="M92.5049133,157.561203c5.0739594,2.1071625,8.9433517,5.9332428,13.1796112,9.2357941
		c0.4291992,1.5238495,1.2324677,3.1691589-0.7234116,4.2174683c-2.5212021,1.3513184-4.3312759-1.1347656-6.5757141-1.3514099
		c-0.3415985-0.5555573-0.6530075-1.1325378-1.0296249-1.6632538c-2.7023392-3.8078613-3.9081192-9.5379639-10.5778885-8.2750702
		C88.186264,157.6783447,90.1912003,157.2111053,92.5049133,157.561203z"/>
	<path fill="#FFEBE6" d="M117.9102783,174.2020264c0.5370483-0.7212524,1.0741119-1.4424896,1.6111526-2.1638336
		c4.7292099-2.4785004,6.0634995,3.0085144,9.3255844,3.9742889c-3.6856461,2.9305115-6.1098633,7.4463959-11.0518799,8.7995911
		c-0.008316-0.3649139-0.016777-0.7298126-0.0252304-1.094696
		C117.8167191,180.545578,117.8634949,177.3737946,117.9102783,174.2020264z"/>
	<path fill="#FFEBE6" d="M77.9997177,160.2011566c-0.803833,3.9231262-2.7022934,7.6299744-5.8263931,9.6682434
		c-2.1916809,1.4299164-4.1768799-1.7665558-5.8568344-3.5325012
		C69.2447052,162.4520416,72.6923294,159.5559387,77.9997177,160.2011566z"/>
	<path fill="#FFEBE6" d="M86.7778854,159.7247314c6.6697693-1.2628937,7.8755493,4.4672089,10.5778885,8.2750702
		c0.3766174,0.5307159,0.6880264,1.1076965,1.0298615,1.663208c0.0281372,0.0727997,0.0560379,0.1456299,0.0839462,0.2184448
		c-3.5271683,0.5526733-5.8670807-1.2312469-7.2108765-4.173584c-1.7835922-3.905365-5.6268539-3.3097076-8.6843491-4.4663696
		c-0.4811859-0.1820221-0.8887024-0.5588074-1.3307877-0.8456726
		C83.0879974,160.1720581,84.9329453,159.9483948,86.7778854,159.7247314z"/>
	<path fill="#FF6633" d="M112.1776352,95.9657669c0.0208588-0.0050125,0.760582-0.4423981,1.1418457-0.2315674
		c2.2251587,1.2305145,3.6024628,3.2188873,4.4053192,5.5971298c0.0582886,0.1726532-0.4871292,0.7787628-0.5869293,0.7415009
		C114.7301712,101.1741028,112.9824905,99.641571,112.1776352,95.9657669z"/>
	<path fill="#FF6633" d="M123.7773819,131.751297c-0.3786163,2.1551819-1.6191635,3.2972565-3.5498276,3.6872864
		c-0.1022949,0.0206757-0.4475555-0.4257965-0.4219894-0.6210785c0.2711868-2.0717468,2.1716156-2.4328766,3.5803223-3.2998047
		C123.4669952,131.467804,123.7380142,131.7264862,123.7773819,131.751297z"/>
	<path fill="#FF6633" d="M119.0374298,137.7011566c-0.228035-0.5110016-0.4176025-0.7768097-0.4438553-1.0578766
		c-0.0143356-0.1537933,0.2474213-0.3333588,0.3846664-0.501297c0.1668701,0.2467041,0.4012375,0.4752808,0.4743195,0.7471924
		C119.4939651,137.0431824,119.2706909,137.2683105,119.0374298,137.7011566z"/>
	<path fill="#FFD7CC" d="M41.8204041,101.8911972c-0.5446777,1.4811249,0.0282478,4.4772797-2.6159973,4.7290497
		c-3.214653,0.3061066-4.0827675-2.9371109-4.2743607-5.1662903c-0.2190323-2.5483932,0.1372108-6.3517227,3.8886528-5.9421082
		C41.243,95.7765656,41.8496399,98.9261093,41.8204041,101.8911972z"/>
	<path fill="#FFD7CC" d="M79.1005478,99.3353119c-0.0054169,0.2196198-0.0108261,0.4392242-0.0163498,0.6588745
		c-0.0036316,0.2981339-0.0071411,0.5962448-0.0108795,0.8944626c-0.0016403,0.133728-0.0030746,0.2673492-0.004776,0.4008179
		c-1.2155533,1.872467-2.375145,3.7841644-3.6568451,5.6101532c-3.4997482,4.9859467-8.6372833,6.5484009-14.2142029,5.4977417
		c-6.2768745-1.1825333-10.7475204-4.7179031-12.3546906-11.5310898c-2.0842361-8.835556,0.7121849-16.4084854,5.6916885-23.2080841
		c3.048996-4.1634674,7.6624184-6.7131119,13.2249527-5.3435516c5.8158722,1.4319458,11.2194061,8.0039673,11.6034851,13.0868835
		C79.7159805,90.0738144,79.676384,94.6996536,79.1005478,99.3353119z M54.4750595,95.4594498
		c-0.3076134,7.0819931,4.8678513,13.4118271,11.1597137,13.6488342c8.6698914,0.326622,11.8367004-4.6707916,12.4537048-19.6526794
		c0.209343-5.0831451-5.1289825-11.0384827-9.9546051-11.1051712C62.2780838,78.269516,54.8157082,87.6168671,54.4750595,95.4594498
		z"/>
	<path fill="#FFD7CC" d="M117.9102783,174.2020264c-0.0467834,3.1717682-0.0935593,6.3435516-0.1403732,9.5153503
		c-0.578598-2.4829407-1.1571808-4.9658966-1.7355804-7.4486389
		C116.6597595,175.5799713,117.2850189,174.8909912,117.9102783,174.2020264z"/>
	<path fill="#FF8366" d="M98.4695816,169.8814545c-0.0279083-0.0728149-0.055809-0.1456451-0.0839462-0.2184448
		c2.2442017,0.2166901,4.0542755,2.702774,6.5754776,1.3514557c1.9558792-1.0483093,1.1526108-2.6936188,0.7234116-4.2174683
		c2.0631485,1.4213104,4.3623199,3.2680054,3.6378784,5.7881317c-1.2365341,4.3014374-4.5397568,2.8152924-7.4266586,1.6840668
		C100.7533951,172.8065796,99.6114883,171.3440247,98.4695816,169.8814545z"/>
	<path fill="#FFEBE6" d="M95.2735138,61.9824905c-5.666008,0.0561104-10.6898956-4.3005409-10.6670914-9.250351
		c0.0321884-6.9835281,6.3609695-15.0849686,11.7454987-15.0353546c6.2121887,0.0572395,9.4105301,3.848793,9.5550919,11.3273239
		C106.0365372,55.7246094,100.9475021,61.9263,95.2735138,61.9824905z"/>
	<path fill="#FFD7CC" d="M119.9199142,117.3781586c-0.0089035,6.618248-5.4803085,11.5075531-13.0421524,12.2813721
		c-5.2945251,0.5417938-10.6989594,1.8647766-14.9200211-2.4747086c-2.2638702-2.3273926-2.6594315-5.7656937-2.8001175-8.9810638
		c-0.2766113-6.321701-2.0836258-12.648056,0.206604-18.9737396c1.3766251-3.8022766,3.8480911-6.7366943,7.766983-7.1475296
		c4.4874573-0.4704361,7.4376297,2.7750473,9.050087,6.5232697c1.9139252,4.4489517,6.1810303,6.0488663,9.3316498,8.9846344
		C118.3355865,110.2205505,119.9869385,113.417923,119.9199142,117.3781586z M91.9303894,105.3460617
		c0.1971664,1.4490356,0.4130096,2.8535461,0.5763626,4.2641449c1.5384064,13.2854462,3.4621277,15.4947815,14.0064621,15.1557159
		c5.23983-0.1684799,8.6314926-3.1250839,9.3616791-8.3702393c0.4991531-3.5856476-1.5554504-6.1909866-4.3963394-8.2595444
		c-2.9451141-2.1444321-6.3121109-3.5764084-8.434021-7.0180664c-1.452919-2.3565674-3.0871658-6.2635498-7.5427628-3.9167023
		C92.0257187,99.03228,92.5030441,102.3527832,91.9303894,105.3460617z"/>
	<path fill="#FFD7CC" d="M119.8310623,153.0973206c0.362442-5.8387451-0.4667969-11.6976624,3.5329895-16.4942169
		c3.5321503-4.2357483,8.2059555-4.5166168,12.9092026-3.0143127c4.2928467,1.3712006,4.9598846,5.2850952,4.2506409,9.0901184
		c-1.2630005,6.7758942-4.1856537,12.8110352-9.8565216,17.0596161c-1.7638702,1.3214722-3.8699188,2.7574921-6.3007736,1.8843689
		C120.2359924,160.1391754,120.6958008,156.1233368,119.8310623,153.0973206z M120.9925079,144.4891815
		c0.005043,4.1696014-0.227005,8.1180115,4.8662109,8.1593018c4.3260193,0.03508,9.3944397-8.4475861,8.4058838-14.6949158
		c-0.4999237-3.1592865-3.9087524-3.6196899-6.6013031-2.9403381
		C122.5904388,136.2931671,121.7834625,140.736557,120.9925079,144.4891815z"/>
	<path fill="#FFD7CC" d="M85.4107971,145.1522522c0.234024,6.439209-3.9645386,8.2541809-8.5721283,7.9574432
		c-4.4447327-0.2862549-9.5664444-2.3008881-9.4612732-7.643631c0.1098557-5.5817261,5.1347961-7.4598389,10.0261078-7.4767609
		C82.0083847,137.9733582,84.500885,141.1327972,85.4107971,145.1522522z"/>
	<path fill="#FFD7CC" d="M122.9976349,73.8427658c11.1882019-0.0000992,18.5202942,9.8657379,16.2155609,20.7354279
		c-1.1596527,5.4692078-3.8933868,9.7771378-9.5739594,10.2724533c-5.9350433,0.5174942-9.3272171-4.2216873-12.5673294-8.4322891
		c-2.3407745-3.0418854-4.9923706-5.9998245-6.5925217-9.42202c-2.7857056-5.9576797,1.8434525-11.672287,9.7816391-12.6999893
		C121.3772202,74.1518402,122.4832993,73.9291229,122.9976349,73.8427658z M126.4360962,100.8931808
		c1.0733566-0.4204483,2.2908783-0.5700302,3.0346069-1.2431412c4.0649719-3.6790085,4.9523926-8.5971909,3.3152924-13.3724136
		c-1.4172516-4.1339951-4.6330261-6.8433151-9.7495117-6.9911575c-6.2142868-0.1795578-10.796814,4.1329422-8.4452438,9.0196609
		C117.144577,93.6121063,119.8602829,99.0642014,126.4360962,100.8931808z"/>
	<path fill="#FFEBE6" d="M54.4750595,95.4594498c0.3406487-7.8425827,7.8030243-17.1899338,13.6588135-17.1090164
		c4.8256226,0.0666885,10.1639481,6.0220261,9.9546051,11.1051712
		c-0.6170044,14.9818878-3.7838135,19.9793015-12.4537048,19.6526794
		C59.3429108,108.8712769,54.1674461,102.5414429,54.4750595,95.4594498z"/>
	<path fill="#FFEBE6" d="M91.9303894,105.3460617c0.5726547-2.9932785,0.0953293-6.3137817,3.5713806-8.1446915
		c4.4555969-2.3468475,6.0898438,1.5601349,7.5427628,3.9167023c2.1219101,3.441658,5.4889069,4.8736343,8.434021,7.0180664
		c2.840889,2.0685577,4.8954926,4.6738968,4.3963394,8.2595444c-0.7301865,5.2451553-4.1218491,8.2017593-9.3616791,8.3702393
		c-10.5443344,0.3390656-12.4680557-1.8702698-14.0064621-15.1557159
		C92.343399,108.1996078,92.1275558,106.7950974,91.9303894,105.3460617z"/>
	<path fill="#FFEBE6" d="M120.9925079,144.4891815c0.7909546-3.7526245,1.5979309-8.1960144,6.6707916-9.4759521
		c2.6925507-0.6793518,6.1013794-0.2189484,6.6013031,2.9403381c0.9885559,6.2473297-4.0798645,14.7299957-8.4058838,14.6949158
		C120.7655029,152.607193,120.997551,148.658783,120.9925079,144.4891815z"/>
	<path fill="#FFEBE6" d="M126.4360962,100.8931808c-6.5758133-1.8289795-9.2915192-7.2810745-11.8448563-12.5870514
		c-2.3515701-4.8867188,2.230957-9.1992188,8.4452438-9.0196609c5.1164856,0.1478424,8.3322601,2.8571625,9.7495117,6.9911575
		c1.6371002,4.7752228,0.7496796,9.6934052-3.3152924,13.3724136
		C128.7269745,100.3231506,127.5094528,100.4727325,126.4360962,100.8931808z"/>
</g>
</svg>
